Trophy-Pro.ufo
<glyph name="exclam" format="1">
  <advance width="679"/>
  <unicode hex="0021"/>
  <outline>
    <contour>
      <point x="289" y="-58" type="qcurve" smooth="yes"/>
      <point x="414" y="-58"/>
      <point x="414" y="77" type="qcurve" smooth="yes"/>
      <point x="414" y="226"/>
      <point x="291" y="226" type="qcurve" smooth="yes"/>
      <point x="229" y="226"/>
      <point x="164" y="153"/>
      <point x="164" y="79" type="qcurve" smooth="yes"/>
      <point x="164" y="-58"/>
    </contour>
    <contour>
      <point x="375" y="447" type="qcurve"/>
      <point x="209" y="447" type="line"/>
      <point x="218" y="583"/>
      <point x="218" y="737" type="qcurve" smooth="yes"/>
      <point x="218" y="1154"/>
      <point x="168" y="1570" type="qcurve"/>
      <point x="417" y="1570" type="line"/>
      <point x="386" y="1316"/>
      <point x="370" y="1003" type="qcurve" smooth="yes"/>
      <point x="363" y="867"/>
      <point x="363" y="743" type="qcurve" smooth="yes"/>
      <point x="363" y="584"/>
    </contour>
  </outline>
</glyph>
<glyph name="quotedbl" format="1">
  <advance width="672"/>
  <unicode hex="0022"/>
  <outline>
    <contour>
      <point x="197" y="1108" type="line"/>
      <point x="167" y="1108" type="line"/>
      <point x="105" y="1467" type="line" smooth="yes"/>
      <point x="101" y="1490"/>
      <point x="101" y="1500" type="qcurve" smooth="yes"/>
      <point x="101" y="1537"/>
      <point x="142" y="1577"/>
      <point x="181" y="1577" type="qcurve" smooth="yes"/>
      <point x="220" y="1577"/>
      <point x="263" y="1538"/>
      <point x="263" y="1501" type="qcurve" smooth="yes"/>
      <point x="263" y="1493"/>
      <point x="259" y="1467" type="qcurve" smooth="yes"/>
    </contour>
    <contour>
      <point x="509" y="1108" type="line"/>
      <point x="479" y="1108" type="line"/>
      <point x="417" y="1467" type="line" smooth="yes"/>
      <point x="413" y="1490"/>
      <point x="413" y="1500" type="qcurve" smooth="yes"/>
      <point x="413" y="1537"/>
      <point x="454" y="1577"/>
      <point x="493" y="1577" type="qcurve" smooth="yes"/>
      <point x="532" y="1577"/>
      <point x="575" y="1538"/>
      <point x="575" y="1501" type="qcurve" smooth="yes"/>
      <point x="575" y="1493"/>
      <point x="571" y="1467" type="qcurve" smooth="yes"/>
    </contour>
  </outline>
</glyph>
<glyph name="numbersign" format="1">
  <advance width="1164"/>
  <unicode hex="0023"/>
  <outline>
    <contour>
      <point x="669" y="0" type="line"/>
      <point x="525" y="0" type="line"/>
      <point x="628" y="433" type="line"/>
      <point x="411" y="433" type="line"/>
      <point x="308" y="0" type="line"/>
      <point x="164" y="0" type="line"/>
      <point x="267" y="433" type="line"/>
      <point x="119" y="433" type="line"/>
      <point x="119" y="561" type="line"/>
      <point x="298" y="561" type="line"/>
      <point x="368" y="856" type="line"/>
      <point x="208" y="856" type="line"/>
      <point x="208" y="984" type="line"/>
      <point x="399" y="984" type="line"/>
      <point x="511" y="1454" type="line"/>
      <point x="655" y="1454" type="line"/>
      <point x="543" y="984" type="line"/>
      <point x="760" y="984" type="line"/>
      <point x="872" y="1454" type="line"/>
      <point x="1016" y="1454" type="line"/>
      <point x="904" y="984" type="line"/>
      <point x="1045" y="984" type="line"/>
      <point x="1045" y="856" type="line"/>
      <point x="873" y="856" type="line"/>
      <point x="803" y="561" type="line"/>
      <point x="956" y="561" type="line"/>
      <point x="956" y="433" type="line"/>
      <point x="772" y="433" type="line"/>
    </contour>
    <contour>
      <point x="659" y="561" type="line"/>
      <point x="729" y="856" type="line"/>
      <point x="512" y="856" type="line"/>
      <point x="442" y="561" type="line"/>
    </contour>
  </outline>
</glyph>
<glyph name="dollar" format="1">
  <advance width="1049"/>
  <unicode hex="0024"/>
  <outline>
    <contour>
      <point x="547" y="-192" type="line"/>
      <point x="471" y="-192" type="line"/>
      <point x="471" y="-22" type="line"/>
      <point x="360" y="-21"/>
      <point x="151" y="29"/>
      <point x="95" y="68" type="qcurve"/>
      <point x="95" y="366" type="line"/>
      <point x="200" y="353" type="line" smooth="yes"/>
      <point x="213" y="352"/>
      <point x="217" y="338" type="qcurve" smooth="yes"/>
      <point x="258" y="178" type="line"/>
      <point x="264" y="159"/>
      <point x="280" y="155" type="qcurve" smooth="yes"/>
      <point x="373" y="128"/>
      <point x="471" y="122" type="qcurve"/>
      <point x="471" y="712" type="line"/>
      <point x="373" y="752"/>
      <point x="214" y="854"/>
      <point x="119" y="1003"/>
      <point x="119" y="1116" type="qcurve" smooth="yes"/>
      <point x="119" y="1233"/>
      <point x="206" y="1387"/>
      <point x="363" y="1470"/>
      <point x="471" y="1480" type="qcurve"/>
      <point x="471" y="1608" type="line"/>
      <point x="547" y="1608" type="line"/>
      <point x="547" y="1483" type="line"/>
      <point x="551" y="1483" type="line" smooth="yes"/>
      <point x="683" y="1483"/>
      <point x="852" y="1461" type="qcurve"/>
      <point x="852" y="1380"/>
      <point x="857" y="1289" type="qcurve" smooth="yes"/>
      <point x="871" y="1053" type="line"/>
      <point x="757" y="1067" type="line"/>
      <point x="743" y="1068"/>
      <point x="740" y="1082" type="qcurve" smooth="yes"/>
      <point x="692" y="1312" type="line"/>
      <point x="690" y="1325"/>
      <point x="657" y="1328"/>
      <point x="640" y="1330" type="qcurve" smooth="yes"/>
      <point x="597" y="1336"/>
      <point x="547" y="1338" type="qcurve"/>
      <point x="547" y="879" type="line"/>
      <point x="597" y="857" type="line"/>
      <point x="764" y="787"/>
      <point x="939" y="578"/>
      <point x="939" y="417" type="qcurve" smooth="yes"/>
      <point x="939" y="247"/>
      <point x="741" y="7"/>
      <point x="547" y="-18" type="qcurve"/>
    </contour>
    <contour>
      <point x="471" y="915" type="qcurve"/>
      <point x="471" y="1334" type="line"/>
      <point x="407" y="1322"/>
      <point x="336" y="1255"/>
      <point x="309" y="1166"/>
      <point x="309" y="1122" type="qcurve" smooth="yes"/>
      <point x="309" y="1047"/>
      <point x="393" y="953"/>
    </contour>
    <contour>
      <point x="547" y="130" type="line"/>
      <point x="644" y="155"/>
      <point x="745" y="307"/>
      <point x="745" y="402" type="qcurve" smooth="yes"/>
      <point x="745" y="497"/>
      <point x="658" y="628"/>
      <point x="547" y="679" type="qcurve"/>
    </contour>
  </outline>
</glyph>
<glyph name="percent" format="1">
  <advance width="1610"/>
  <unicode hex="0025"/>
  <outline>
    <contour>
      <point x="449" y="1459" type="qcurve" smooth="yes"/>
      <point x="547" y="1459"/>
      <point x="732" y="1361"/>
      <point x="836" y="1180"/>
      <point x="836" y="1080" type="qcurve" smooth="yes"/>
      <point x="836" y="981"/>
      <point x="735" y="802"/>
      <point x="550" y="701"/>
      <point x="449" y="701" type="qcurve" smooth="yes"/>
      <point x="349" y="701"/>
      <point x="164" y="802"/>
      <point x="62" y="981"/>
      <point x="62" y="1080" type="qcurve" smooth="yes"/>
      <point x="62" y="1180"/>
      <point x="166" y="1361"/>
      <point x="351" y="1459"/>
    </contour>
    <contour>
      <point x="206" y="1066" type="qcurve" smooth="yes"/>
      <point x="219" y="974"/>
      <point x="304" y="811"/>
      <point x="368" y="768" type="qcurve"/>
      <point x="425" y="728"/>
      <point x="482" y="728" type="qcurve" smooth="yes"/>
      <point x="489" y="728"/>
      <point x="495" y="729" type="qcurve"/>
      <point x="558" y="732"/>
      <point x="662" y="832"/>
      <point x="683" y="918" type="qcurve" smooth="yes"/>
      <point x="696" y="972"/>
      <point x="696" y="1029" type="qcurve" smooth="yes"/>
      <point x="696" y="1061"/>
      <point x="692" y="1094" type="qcurve" smooth="yes"/>
      <point x="680" y="1187"/>
      <point x="592" y="1352"/>
      <point x="529" y="1394" type="qcurve" smooth="yes"/>
      <point x="471" y="1432"/>
      <point x="414" y="1432" type="qcurve" smooth="yes"/>
      <point x="403" y="1432" type="line"/>
      <point x="342" y="1429"/>
      <point x="238" y="1331"/>
      <point x="217" y="1245" type="qcurve" smooth="yes"/>
      <point x="202" y="1187"/>
      <point x="202" y="1128" type="qcurve" smooth="yes"/>
      <point x="202" y="1097"/>
    </contour>
    <contour>
      <point x="297" y="-29" type="line"/>
      <point x="1237" y="1432" type="line"/>
      <point x="1321" y="1432" type="line"/>
      <point x="383" y="-29" type="line"/>
    </contour>
    <contour>
      <point x="1161" y="738" type="qcurve" smooth="yes"/>
      <point x="1258" y="738"/>
      <point x="1444" y="639"/>
      <point x="1548" y="458"/>
      <point x="1548" y="359" type="qcurve" smooth="yes"/>
      <point x="1548" y="259"/>
      <point x="1447" y="80"/>
      <point x="1262" y="-20"/>
      <point x="1161" y="-20" type="qcurve" smooth="yes"/>
      <point x="1060" y="-20"/>
      <point x="876" y="80"/>
      <point x="774" y="259"/>
      <point x="774" y="359" type="qcurve" smooth="yes"/>
      <point x="774" y="458"/>
      <point x="878" y="639"/>
      <point x="1063" y="738"/>
    </contour>
    <contour>
      <point x="918" y="344" type="qcurve" smooth="yes"/>
      <point x="931" y="252"/>
      <point x="1016" y="89"/>
      <point x="1080" y="46" type="qcurve" smooth="yes"/>
      <point x="1139" y="7"/>
      <point x="1196" y="7" type="qcurve" smooth="yes"/>
      <point x="1207" y="7" type="line"/>
      <point x="1270" y="10"/>
      <point x="1374" y="110"/>
      <point x="1395" y="196" type="qcurve" smooth="yes"/>
      <point x="1408" y="250"/>
      <point x="1408" y="307" type="qcurve" smooth="yes"/>
      <point x="1408" y="339"/>
      <point x="1404" y="372" type="qcurve" smooth="yes"/>
      <point x="1392" y="465"/>
      <point x="1304" y="630"/>
      <point x="1241" y="672" type="qcurve" smooth="yes"/>
      <point x="1183" y="710"/>
      <point x="1126" y="710" type="qcurve" smooth="yes"/>
      <point x="1115" y="710" type="line"/>
      <point x="1054" y="707"/>
      <point x="950" y="609"/>
      <point x="929" y="523" type="qcurve" smooth="yes"/>
      <point x="914" y="465"/>
      <point x="914" y="406" type="qcurve" smooth="yes"/>
      <point x="914" y="375"/>
    </contour>
  </outline>
</glyph>
<glyph name="ampersand" format="1">
  <advance width="1465"/>
  <unicode hex="0026"/>
  <outline>
    <contour>
      <point x="521" y="-20" type="qcurve"/>
      <point x="510" y="-20" type="line" smooth="yes"/>
      <point x="386" y="-20"/>
      <point x="184" y="70"/>
      <point x="64" y="257"/>
      <point x="64" y="398" type="qcurve" smooth="yes"/>
      <point x="64" y="497"/>
      <point x="161" y="654"/>
      <point x="311" y="775"/>
      <point x="395" y="820" type="qcurve" smooth="yes"/>
      <point x="398" y="822" type="line"/>
      <point x="389" y="836"/>
      <point x="319" y="913"/>
      <point x="256" y="999"/>
      <point x="215" y="1105"/>
      <point x="215" y="1177" type="qcurve" smooth="yes"/>
      <point x="215" y="1268"/>
      <point x="299" y="1407"/>
      <point x="462" y="1486"/>
      <point x="580" y="1486" type="qcurve" smooth="yes"/>
      <point x="681" y="1486"/>
      <point x="837" y="1416"/>
      <point x="925" y="1284"/>
      <point x="925" y="1190" type="qcurve" smooth="yes"/>
      <point x="925" y="1101"/>
      <point x="848" y="955"/>
      <point x="715" y="842"/>
      <point x="630" y="803" type="qcurve"/>
      <point x="668" y="758"/>
      <point x="904" y="509" type="qcurve" smooth="yes"/>
      <point x="1000" y="408" type="line"/>
      <point x="1069" y="545"/>
      <point x="1083" y="723" type="qcurve"/>
      <point x="1083" y="764" type="line"/>
      <point x="1363" y="764" type="line"/>
      <point x="1355" y="678" type="line" smooth="yes"/>
      <point x="1354" y="666"/>
      <point x="1341" y="665" type="qcurve"/>
      <point x="1234" y="651" type="line"/>
      <point x="1221" y="650"/>
      <point x="1219" y="639" type="qcurve"/>
      <point x="1219" y="634" type="line"/>
      <point x="1195" y="433"/>
      <point x="1107" y="295" type="qcurve"/>
      <point x="1184" y="213"/>
      <point x="1234" y="157" type="qcurve"/>
      <point x="1238" y="154"/>
      <point x="1246" y="150"/>
      <point x="1366" y="133" type="qcurve" smooth="yes"/>
      <point x="1380" y="131"/>
      <point x="1380" y="121" type="qcurve"/>
      <point x="1391" y="-3" type="line"/>
      <point x="1241" y="10"/>
      <point x="1124" y="10" type="qcurve"/>
      <point x="1059" y="83"/>
      <point x="991" y="157" type="qcurve"/>
      <point x="894" y="70"/>
      <point x="650" y="-18"/>
    </contour>
    <contour>
      <point x="553" y="130" type="qcurve" smooth="yes"/>
      <point x="649" y="130"/>
      <point x="822" y="202"/>
      <point x="891" y="264" type="qcurve"/>
      <point x="841" y="317" type="line" smooth="yes"/>
      <point x="652" y="516"/>
      <point x="476" y="720" type="qcurve"/>
      <point x="276" y="596"/>
      <point x="276" y="425" type="qcurve" smooth="yes"/>
      <point x="276" y="344"/>
      <point x="330" y="210"/>
      <point x="452" y="130"/>
    </contour>
    <contour>
      <point x="551" y="889" type="line"/>
      <point x="658" y="950"/>
      <point x="773" y="1078"/>
      <point x="773" y="1171" type="qcurve" smooth="yes"/>
      <point x="773" y="1214"/>
      <point x="741" y="1311"/>
      <point x="654" y="1378"/>
      <point x="571" y="1378" type="qcurve" smooth="yes"/>
      <point x="510" y="1378"/>
      <point x="432" y="1314"/>
      <point x="393" y="1221"/>
      <point x="393" y="1174" type="qcurve" smooth="yes"/>
      <point x="393" y="1130"/>
      <point x="437" y="1038"/>
      <point x="501" y="950"/>
      <point x="533" y="912" type="qcurve" smooth="yes"/>
    </contour>
  </outline>
</glyph>
<glyph name="quotesingle" format="1">
  <advance width="346"/>
  <unicode hex="0027"/>
  <outline>
    <contour>
      <point x="197" y="1108" type="line"/>
      <point x="167" y="1108" type="line"/>
      <point x="105" y="1467" type="line" smooth="yes"/>
      <point x="101" y="1490"/>
      <point x="101" y="1500" type="qcurve" smooth="yes"/>
      <point x="101" y="1537"/>
      <point x="142" y="1577"/>
      <point x="181" y="1577" type="qcurve" smooth="yes"/>
      <point x="220" y="1577"/>
      <point x="263" y="1538"/>
      <point x="263" y="1501" type="qcurve" smooth="yes"/>
      <point x="263" y="1493"/>
      <point x="259" y="1467" type="qcurve" smooth="yes"/>
    </contour>
  </outline>
</glyph>
<glyph name="parenleft" format="1">
  <advance width="658"/>
  <unicode hex="0028"/>
  <outline>
    <contour>
      <point x="449" y="-420" type="line"/>
      <point x="322" y="-298"/>
      <point x="161" y="79"/>
      <point x="86" y="493"/>
      <point x="86" y="661" type="qcurve" smooth="yes"/>
      <point x="86" y="820"/>
      <point x="167" y="1222"/>
      <point x="329" y="1587"/>
      <point x="449" y="1703" type="qcurve"/>
      <point x="516" y="1582" type="line"/>
      <point x="407" y="1507"/>
      <point x="344" y="1263" type="qcurve"/>
      <point x="303" y="1090"/>
      <point x="279" y="757"/>
      <point x="279" y="622" type="qcurve" smooth="yes"/>
      <point x="279" y="506"/>
      <point x="308" y="173"/>
      <point x="344" y="19" type="qcurve"/>
      <point x="407" y="-225"/>
      <point x="516" y="-299" type="qcurve"/>
    </contour>
  </outline>
</glyph>
<glyph name="parenright" format="1">
  <advance width="658"/>
  <unicode hex="0029"/>
  <outline>
    <contour>
      <point x="102" y="-420" type="qcurve"/>
      <point x="36" y="-299" type="line"/>
      <point x="144" y="-225"/>
      <point x="208" y="19" type="qcurve"/>
      <point x="244" y="173"/>
      <point x="273" y="506"/>
      <point x="273" y="622" type="qcurve" smooth="yes"/>
      <point x="273" y="757"/>
      <point x="249" y="1090"/>
      <point x="208" y="1263" type="qcurve"/>
      <point x="144" y="1507"/>
      <point x="36" y="1582" type="qcurve"/>
      <point x="102" y="1703" type="line"/>
      <point x="223" y="1587"/>
      <point x="384" y="1222"/>
      <point x="466" y="820"/>
      <point x="466" y="661" type="qcurve" smooth="yes"/>
      <point x="466" y="493"/>
      <point x="391" y="79"/>
      <point x="230" y="-298"/>
    </contour>
  </outline>
</glyph>
<glyph name="asterisk" format="1">
  <advance width="1024"/>
  <unicode hex="002A"/>
  <outline>
    <contour>
      <point x="498" y="1294" type="qcurve"/>
      <point x="494" y="1365"/>
      <point x="461" y="1424" type="qcurve" smooth="yes"/>
      <point x="424" y="1490"/>
      <point x="424" y="1508" type="qcurve" smooth="yes"/>
      <point x="424" y="1540"/>
      <point x="471" y="1579"/>
      <point x="510" y="1579" type="qcurve" smooth="yes"/>
      <point x="547" y="1579"/>
      <point x="596" y="1543"/>
      <point x="596" y="1514" type="qcurve" smooth="yes"/>
      <point x="596" y="1493"/>
      <point x="560" y="1425" type="qcurve" smooth="yes"/>
      <point x="527" y="1364"/>
      <point x="523" y="1295" type="qcurve"/>
      <point x="589" y="1320"/>
      <point x="636" y="1370" type="qcurve" smooth="yes"/>
      <point x="687" y="1425"/>
      <point x="705" y="1431" type="qcurve" smooth="yes"/>
      <point x="716" y="1434"/>
      <point x="726" y="1434" type="qcurve" smooth="yes"/>
      <point x="744" y="1434"/>
      <point x="761" y="1424" type="qcurve" smooth="yes"/>
      <point x="787" y="1407"/>
      <point x="799" y="1371" type="qcurve" smooth="yes"/>
      <point x="805" y="1352"/>
      <point x="805" y="1335" type="qcurve" smooth="yes"/>
      <point x="805" y="1320"/>
      <point x="801" y="1307" type="qcurve" smooth="yes"/>
      <point x="791" y="1277"/>
      <point x="763" y="1269" type="qcurve" smooth="yes"/>
      <point x="757" y="1267"/>
      <point x="744" y="1267" type="qcurve" smooth="yes"/>
      <point x="719" y="1267"/>
      <point x="668" y="1276" type="qcurve" smooth="yes"/>
      <point x="640" y="1281"/>
      <point x="613" y="1281" type="qcurve" smooth="yes"/>
      <point x="572" y="1281"/>
      <point x="532" y="1270" type="qcurve"/>
      <point x="576" y="1215"/>
      <point x="637" y="1187" type="qcurve" smooth="yes"/>
      <point x="705" y="1155"/>
      <point x="716" y="1140" type="qcurve" smooth="yes"/>
      <point x="729" y="1122"/>
      <point x="729" y="1102" type="qcurve" smooth="yes"/>
      <point x="729" y="1093"/>
      <point x="727" y="1085" type="qcurve" smooth="yes"/>
      <point x="719" y="1055"/>
      <point x="688" y="1032" type="qcurve" smooth="yes"/>
      <point x="659" y="1010"/>
      <point x="629" y="1010" type="qcurve"/>
      <point x="628" y="1010"/>
      <point x="628" y="1011" type="qcurve"/>
      <point x="597" y="1011"/>
      <point x="580" y="1034" type="qcurve" smooth="yes"/>
      <point x="568" y="1051"/>
      <point x="558" y="1128" type="qcurve"/>
      <point x="548" y="1195"/>
      <point x="511" y="1253" type="qcurve"/>
      <point x="473" y="1195"/>
      <point x="465" y="1129" type="qcurve" smooth="yes"/>
      <point x="456" y="1054"/>
      <point x="445" y="1039" type="qcurve" smooth="yes"/>
      <point x="426" y="1014"/>
      <point x="396" y="1012" type="qcurve"/>
      <point x="391" y="1012" type="line" smooth="yes"/>
      <point x="363" y="1012"/>
      <point x="334" y="1033" type="qcurve" smooth="yes"/>
      <point x="304" y="1054"/>
      <point x="295" y="1084" type="qcurve"/>
      <point x="291" y="1094"/>
      <point x="291" y="1104" type="qcurve" smooth="yes"/>
      <point x="291" y="1121"/>
      <point x="302" y="1136" type="qcurve" smooth="yes"/>
      <point x="315" y="1153"/>
      <point x="385" y="1187" type="qcurve" smooth="yes"/>
      <point x="446" y="1216"/>
      <point x="490" y="1269" type="qcurve"/>
      <point x="449" y="1280"/>
      <point x="410" y="1280" type="qcurve" smooth="yes"/>
      <point x="383" y="1280"/>
      <point x="357" y="1275" type="qcurve" smooth="yes"/>
      <point x="303" y="1264"/>
      <point x="279" y="1264" type="qcurve" smooth="yes"/>
      <point x="270" y="1264"/>
      <point x="265" y="1266" type="qcurve" smooth="yes"/>
      <point x="235" y="1275"/>
      <point x="224" y="1304" type="qcurve"/>
      <point x="218" y="1317"/>
      <point x="218" y="1333" type="qcurve" smooth="yes"/>
      <point x="218" y="1350"/>
      <point x="224" y="1369" type="qcurve" smooth="yes"/>
      <point x="235" y="1404"/>
      <point x="260" y="1422" type="qcurve" smooth="yes"/>
      <point x="277" y="1434"/>
      <point x="294" y="1434" type="qcurve" smooth="yes"/>
      <point x="303" y="1434"/>
      <point x="312" y="1431" type="qcurve" smooth="yes"/>
      <point x="332" y="1425"/>
      <point x="386" y="1369" type="qcurve" smooth="yes"/>
      <point x="433" y="1320"/>
    </contour>
  </outline>
</glyph>
<glyph name="plus" format="1">
  <advance width="1014"/>
  <unicode hex="002B"/>
  <outline>
    <contour>
      <point x="437" y="647" type="line"/>
      <point x="87" y="647" type="line"/>
      <point x="87" y="787" type="line"/>
      <point x="437" y="787" type="line"/>
      <point x="437" y="1156" type="line"/>
      <point x="438" y="1157" type="line"/>
      <point x="577" y="1157" type="line"/>
      <point x="577" y="787" type="line"/>
      <point x="926" y="787" type="line"/>
      <point x="927" y="786" type="line"/>
      <point x="927" y="647" type="line"/>
      <point x="577" y="647" type="line"/>
      <point x="577" y="277" type="line"/>
      <point x="437" y="277" type="line"/>
    </contour>
  </outline>
</glyph>
<glyph name="comma" format="1">
  <advance width="444"/>
  <unicode hex="002C"/>
  <outline>
    <contour>
      <point x="190" y="-216" type="qcurve" smooth="yes"/>
      <point x="137" y="-216" type="line"/>
      <point x="193" y="-25" type="line"/>
      <point x="152" y="-18"/>
      <point x="104" y="43"/>
      <point x="104" y="98" type="qcurve" smooth="yes"/>
      <point x="104" y="157"/>
      <point x="170" y="216"/>
      <point x="223" y="216" type="qcurve" smooth="yes"/>
      <point x="276" y="216"/>
      <point x="344" y="157"/>
      <point x="344" y="98" type="qcurve" smooth="yes"/>
      <point x="344" y="74"/>
      <point x="339" y="56" type="qcurve"/>
      <point x="327" y="-7"/>
      <point x="259" y="-146"/>
      <point x="225" y="-204" type="qcurve" smooth="yes"/>
      <point x="220" y="-214"/>
      <point x="202" y="-216"/>
    </contour>
  </outline>
</glyph>
<glyph name="hyphen" format="1">
  <advance width="670"/>
  <unicode hex="002D"/>
  <unicode hex="00AD"/>
  <outline>
    <contour>
      <point x="156" y="409" type="line" smooth="yes"/>
      <point x="116" y="409"/>
      <point x="116" y="437" type="qcurve" smooth="yes"/>
      <point x="116" y="520" type="line" smooth="yes"/>
      <point x="116" y="549"/>
      <point x="157" y="549" type="qcurve" smooth="yes"/>
      <point x="513" y="549" type="line" smooth="yes"/>
      <point x="554" y="549"/>
      <point x="554" y="520" type="qcurve" smooth="yes"/>
      <point x="554" y="437" type="line" smooth="yes"/>
      <point x="554" y="409"/>
      <point x="514" y="409" type="qcurve" smooth="yes"/>
    </contour>
  </outline>
</glyph>
<glyph name="period" format="1">
  <advance width="339"/>
  <unicode hex="002E"/>
  <outline>
    <contour>
      <point x="163" y="-20" type="qcurve" smooth="yes"/>
      <point x="216" y="-20"/>
      <point x="284" y="42"/>
      <point x="284" y="106" type="qcurve" smooth="yes"/>
      <point x="284" y="166"/>
      <point x="216" y="225"/>
      <point x="163" y="225" type="qcurve" smooth="yes"/>
      <point x="110" y="225"/>
      <point x="44" y="166"/>
      <point x="44" y="106" type="qcurve" smooth="yes"/>
      <point x="44" y="42"/>
      <point x="110" y="-20"/>
    </contour>
  </outline>
</glyph>
<glyph name="slash" format="1">
  <advance width="684"/>
  <unicode hex="002F"/>
  <outline>
    <contour>
      <point x="123" y="-50" type="line"/>
      <point x="-27" y="-50" type="line"/>
      <point x="514" y="1434" type="line"/>
      <point x="664" y="1434" type="line"/>
    </contour>
  </outline>
</glyph>
<glyph name="zero" format="1">
  <advance width="1307"/>
  <unicode hex="0030"/>
  <outline>
    <contour>
      <point x="651" y="118" type="qcurve" smooth="yes"/>
      <point x="532" y="118"/>
      <point x="388" y="263"/>
      <point x="324" y="537"/>
      <point x="324" y="732" type="qcurve" smooth="yes"/>
      <point x="324" y="1339"/>
      <point x="651" y="1339" type="qcurve" smooth="yes"/>
      <point x="761" y="1339"/>
      <point x="899" y="1198"/>
      <point x="963" y="927"/>
      <point x="963" y="732" type="qcurve" smooth="yes"/>
      <point x="963" y="541"/>
      <point x="906" y="266"/>
      <point x="770" y="118"/>
    </contour>
    <contour>
      <point x="651" y="-20" type="qcurve" smooth="yes"/>
      <point x="925" y="-20"/>
      <point x="1169" y="344"/>
      <point x="1169" y="732" type="qcurve" smooth="yes"/>
      <point x="1169" y="1116"/>
      <point x="925" y="1478"/>
      <point x="651" y="1478" type="qcurve" smooth="yes"/>
      <point x="375" y="1478"/>
      <point x="119" y="1116"/>
      <point x="119" y="732" type="qcurve" smooth="yes"/>
      <point x="119" y="344"/>
      <point x="375" y="-20"/>
    </contour>
  </outline>
</glyph>
<glyph name="one" format="1">
  <advance width="642"/>
  <unicode hex="0031"/>
  <outline>
    <contour>
      <point x="567" y="-17" type="line"/>
      <point x="440" y="-7"/>
      <point x="330" y="-6" type="qcurve"/>
      <point x="208" y="-7"/>
      <point x="84" y="-17" type="qcurve"/>
      <point x="95" y="95" type="line"/>
      <point x="95" y="107"/>
      <point x="108" y="108" type="qcurve" smooth="yes"/>
      <point x="223" y="121" type="line" smooth="yes"/>
      <point x="236" y="122"/>
      <point x="236" y="134" type="qcurve" smooth="yes"/>
      <point x="236" y="1199" type="line"/>
      <point x="60" y="1199" type="line"/>
      <point x="70" y="1303" type="line" smooth="yes"/>
      <point x="71" y="1318"/>
      <point x="88" y="1319" type="qcurve"/>
      <point x="203" y="1336" type="line" smooth="yes"/>
      <point x="212" y="1337"/>
      <point x="219" y="1346"/>
      <point x="221" y="1356" type="qcurve" smooth="yes"/>
      <point x="236" y="1449" type="line"/>
      <point x="420" y="1449" type="line"/>
      <point x="420" y="123" type="line"/>
      <point x="425" y="121"/>
      <point x="543" y="108" type="qcurve" smooth="yes"/>
      <point x="556" y="107"/>
      <point x="556" y="95" type="qcurve"/>
    </contour>
  </outline>
</glyph>
<glyph name="two" format="1">
  <advance width="1058"/>
  <unicode hex="0032"/>
  <outline>
    <contour>
      <point x="967" y="0" type="line"/>
      <point x="19" y="0" type="line"/>
      <point x="29" y="168" type="line"/>
      <point x="50" y="187" type="line" smooth="yes"/>
      <point x="290" y="407"/>
      <point x="492" y="649" type="qcurve"/>
      <point x="560" y="732"/>
      <point x="614" y="813" type="qcurve"/>
      <point x="729" y="990"/>
      <point x="729" y="1122" type="qcurve" smooth="yes"/>
      <point x="729" y="1214"/>
      <point x="590" y="1338"/>
      <point x="479" y="1338" type="qcurve" smooth="yes"/>
      <point x="398" y="1338"/>
      <point x="276" y="1274"/>
      <point x="207" y="1171"/>
      <point x="206" y="1108" type="qcurve"/>
      <point x="206" y="1096"/>
      <point x="191" y="1095" type="qcurve"/>
      <point x="86" y="1083" type="line"/>
      <point x="87" y="1083"/>
      <point x="96" y="1332" type="qcurve"/>
      <point x="122" y="1359"/>
      <point x="173" y="1393" type="qcurve" smooth="yes"/>
      <point x="302" y="1478"/>
      <point x="467" y="1478" type="qcurve" smooth="yes"/>
      <point x="604" y="1478"/>
      <point x="814" y="1403"/>
      <point x="932" y="1244"/>
      <point x="932" y="1116" type="qcurve" smooth="yes"/>
      <point x="932" y="1010"/>
      <point x="853" y="843"/>
      <point x="784" y="749" type="qcurve"/>
      <point x="689" y="616"/>
      <point x="473" y="379"/>
      <point x="357" y="261" type="qcurve" smooth="yes"/>
      <point x="263" y="165" type="line"/>
      <point x="263" y="142" type="line"/>
      <point x="742" y="155" type="line"/>
      <point x="753" y="158"/>
      <point x="762" y="165"/>
      <point x="764" y="173" type="qcurve" smooth="yes"/>
      <point x="834" y="398" type="line"/>
      <point x="836" y="413"/>
      <point x="853" y="415" type="qcurve" smooth="yes"/>
      <point x="967" y="428" type="line"/>
    </contour>
  </outline>
</glyph>
<glyph name="three" format="1">
  <advance width="1066"/>
  <unicode hex="0033"/>
  <outline>
    <contour>
      <point x="476" y="-20" type="qcurve" smooth="yes"/>
      <point x="402" y="-20"/>
      <point x="283" y="4"/>
      <point x="186" y="38"/>
      <point x="109" y="71"/>
      <point x="77" y="81" type="qcurve"/>
      <point x="77" y="437" type="line"/>
      <point x="203" y="424" type="line"/>
      <point x="221" y="424"/>
      <point x="221" y="409" type="qcurve" smooth="yes"/>
      <point x="221" y="385" type="line" smooth="yes"/>
      <point x="221" y="351"/>
      <point x="230" y="262"/>
      <point x="276" y="172"/>
      <point x="382" y="112"/>
      <point x="479" y="112" type="qcurve" smooth="yes"/>
      <point x="569" y="112"/>
      <point x="708" y="199"/>
      <point x="787" y="341"/>
      <point x="787" y="423" type="qcurve" smooth="yes"/>
      <point x="787" y="512"/>
      <point x="756" y="567" type="qcurve" smooth="yes"/>
      <point x="699" y="665"/>
      <point x="574" y="695" type="qcurve"/>
      <point x="511" y="709"/>
      <point x="432" y="709" type="qcurve" smooth="yes"/>
      <point x="414" y="709"/>
      <point x="401" y="708" type="qcurve"/>
      <point x="389" y="708" type="line"/>
      <point x="389" y="881" type="line"/>
      <point x="418" y="881" type="line" smooth="yes"/>
      <point x="437" y="881"/>
      <point x="502" y="884"/>
      <point x="591" y="904"/>
      <point x="672" y="953"/>
      <point x="724" y="1042"/>
      <point x="724" y="1113" type="qcurve" smooth="yes"/>
      <point x="724" y="1209"/>
      <point x="649" y="1311"/>
      <point x="526" y="1349"/>
      <point x="453" y="1349" type="qcurve" smooth="yes"/>
      <point x="388" y="1349"/>
      <point x="301" y="1294"/>
      <point x="248" y="1214"/>
      <point x="222" y="1135"/>
      <point x="218" y="1108" type="qcurve" smooth="yes"/>
      <point x="214" y="1080" type="line"/>
      <point x="212" y="1073"/>
      <point x="205" y="1066"/>
      <point x="196" y="1065" type="qcurve" smooth="yes"/>
      <point x="87" y="1055" type="line"/>
      <point x="87" y="1381" type="line"/>
      <point x="118" y="1392"/>
      <point x="154" y="1408" type="qcurve" smooth="yes"/>
      <point x="207" y="1433"/>
      <point x="351" y="1479"/>
      <point x="454" y="1479" type="qcurve" smooth="yes"/>
      <point x="601" y="1479"/>
      <point x="810" y="1404"/>
      <point x="921" y="1242"/>
      <point x="921" y="1111" type="qcurve" smooth="yes"/>
      <point x="921" y="1027"/>
      <point x="840" y="898"/>
      <point x="729" y="825"/>
      <point x="683" y="825" type="qcurve"/>
      <point x="683" y="803" type="line"/>
      <point x="749" y="803"/>
      <point x="888" y="703"/>
      <point x="983" y="537"/>
      <point x="983" y="441" type="qcurve" smooth="yes"/>
      <point x="983" y="241"/>
      <point x="874" y="120" type="qcurve" smooth="yes"/>
      <point x="749" y="-20"/>
    </contour>
  </outline>
</glyph>
<glyph name="four" format="1">
  <advance width="1108"/>
  <unicode hex="0034"/>
  <outline>
    <contour>
      <point x="960" y="-17" type="line"/>
      <point x="833" y="-7"/>
      <point x="723" y="-6" type="qcurve"/>
      <point x="613" y="-7"/>
      <point x="487" y="-17" type="qcurve"/>
      <point x="497" y="95" type="line" smooth="yes"/>
      <point x="498" y="107"/>
      <point x="511" y="108" type="qcurve" smooth="yes"/>
      <point x="626" y="121" type="line" smooth="yes"/>
      <point x="639" y="123"/>
      <point x="639" y="136" type="qcurve" smooth="yes"/>
      <point x="639" y="390" type="line"/>
      <point x="19" y="390" type="line"/>
      <point x="19" y="499" type="line"/>
      <point x="618" y="1495" type="line"/>
      <point x="753" y="1413" type="line"/>
      <point x="232" y="534" type="line"/>
      <point x="639" y="534" type="line"/>
      <point x="639" y="981" type="line"/>
      <point x="813" y="981" type="line"/>
      <point x="813" y="534" type="line"/>
      <point x="1015" y="534" type="line"/>
      <point x="1015" y="390" type="line"/>
      <point x="813" y="390" type="line"/>
      <point x="813" y="123" type="line"/>
      <point x="821" y="121"/>
      <point x="936" y="108" type="qcurve" smooth="yes"/>
      <point x="948" y="107"/>
      <point x="949" y="95" type="qcurve" smooth="yes"/>
    </contour>
  </outline>
</glyph>
<glyph name="five" format="1">
  <advance width="1055"/>
  <unicode hex="0035"/>
  <outline>
    <contour>
      <point x="461" y="-20" type="qcurve" smooth="yes"/>
      <point x="386" y="-20"/>
      <point x="267" y="4"/>
      <point x="171" y="37"/>
      <point x="93" y="71"/>
      <point x="59" y="82" type="qcurve"/>
      <point x="59" y="436" type="line"/>
      <point x="186" y="424" type="line"/>
      <point x="202" y="424"/>
      <point x="202" y="409" type="qcurve" smooth="yes"/>
      <point x="202" y="389" type="line" smooth="yes"/>
      <point x="202" y="349"/>
      <point x="208" y="302" type="qcurve" smooth="yes"/>
      <point x="230" y="112"/>
      <point x="464" y="112" type="qcurve" smooth="yes"/>
      <point x="775" y="112"/>
      <point x="775" y="471" type="qcurve" smooth="yes"/>
      <point x="775" y="582"/>
      <point x="685" y="726"/>
      <point x="535" y="796"/>
      <point x="444" y="796" type="qcurve" smooth="yes"/>
      <point x="319" y="796"/>
      <point x="220" y="757" type="qcurve"/>
      <point x="91" y="844" type="line"/>
      <point x="165" y="1449" type="line"/>
      <point x="871" y="1449" type="line"/>
      <point x="903" y="1099" type="line"/>
      <point x="770" y="1113" type="line"/>
      <point x="753" y="1116"/>
      <point x="751" y="1130" type="qcurve"/>
      <point x="711" y="1284" type="line"/>
      <point x="709" y="1300"/>
      <point x="686" y="1300" type="qcurve"/>
      <point x="616" y="1305"/>
      <point x="586" y="1305" type="qcurve" smooth="yes"/>
      <point x="321" y="1305" type="line"/>
      <point x="275" y="925" type="line"/>
      <point x="289" y="927"/>
      <point x="308" y="931" type="qcurve" smooth="yes"/>
      <point x="377" y="947"/>
      <point x="440" y="947" type="qcurve" smooth="yes"/>
      <point x="699" y="947"/>
      <point x="974" y="693"/>
      <point x="974" y="440" type="qcurve" smooth="yes"/>
      <point x="974" y="240"/>
      <point x="863" y="120" type="qcurve" smooth="yes"/>
      <point x="735" y="-20"/>
    </contour>
  </outline>
</glyph>
<glyph name="six" format="1">
  <advance width="1158"/>
  <unicode hex="0036"/>
  <outline>
    <contour>
      <point x="597" y="121" type="line" smooth="yes"/>
      <point x="733" y="121"/>
      <point x="808" y="215" type="qcurve"/>
      <point x="891" y="322"/>
      <point x="891" y="484" type="qcurve" smooth="yes"/>
      <point x="891" y="534"/>
      <point x="875" y="652"/>
      <point x="816" y="765"/>
      <point x="709" y="834"/>
      <point x="625" y="834" type="qcurve" smooth="yes"/>
      <point x="549" y="834"/>
      <point x="408" y="778"/>
      <point x="316" y="661"/>
      <point x="309" y="570" type="qcurve"/>
      <point x="308" y="530" type="line"/>
      <point x="308" y="363"/>
      <point x="454" y="132"/>
      <point x="586" y="121" type="qcurve"/>
    </contour>
    <contour>
      <point x="604" y="-19" type="qcurve"/>
      <point x="561" y="-18" type="line"/>
      <point x="404" y="-4"/>
      <point x="217" y="162"/>
      <point x="127" y="409"/>
      <point x="115" y="546" type="qcurve"/>
      <point x="109" y="625"/>
      <point x="109" y="700" type="qcurve" smooth="yes"/>
      <point x="109" y="1075"/>
      <point x="244" y="1278" type="qcurve" smooth="yes"/>
      <point x="381" y="1485"/>
      <point x="677" y="1485" type="qcurve" smooth="yes"/>
      <point x="780" y="1485"/>
      <point x="953" y="1405"/>
      <point x="992" y="1359" type="qcurve"/>
      <point x="1003" y="1099" type="line"/>
      <point x="885" y="1118" type="line" smooth="yes"/>
      <point x="870" y="1120"/>
      <point x="870" y="1133" type="qcurve"/>
      <point x="867" y="1155" type="line" smooth="yes"/>
      <point x="864" y="1177"/>
      <point x="853" y="1210" type="qcurve" smooth="yes"/>
      <point x="826" y="1291"/>
      <point x="757" y="1335" type="qcurve"/>
      <point x="710" y="1363"/>
      <point x="644" y="1363" type="qcurve" smooth="yes"/>
      <point x="533" y="1363"/>
      <point x="362" y="1143"/>
      <point x="329" y="945" type="qcurve" smooth="yes"/>
      <point x="320" y="892"/>
      <point x="317" y="820" type="qcurve"/>
      <point x="330" y="820" type="line"/>
      <point x="366" y="886"/>
      <point x="537" y="973"/>
      <point x="636" y="973" type="qcurve" smooth="yes"/>
      <point x="797" y="973"/>
      <point x="991" y="850"/>
      <point x="1077" y="627"/>
      <point x="1077" y="476" type="qcurve" smooth="yes"/>
      <point x="1077" y="249"/>
      <point x="941" y="109" type="qcurve" smooth="yes"/>
      <point x="816" y="-19"/>
    </contour>
  </outline>
</glyph>
<glyph name="seven" format="1">
  <advance width="1007"/>
  <unicode hex="0037"/>
  <outline>
    <contour>
      <point x="441" y="0" type="qcurve"/>
      <point x="226" y="0" type="line"/>
      <point x="226" y="174"/>
      <point x="322" y="487"/>
      <point x="472" y="781"/>
      <point x="557" y="925" type="qcurve" smooth="yes"/>
      <point x="663" y="1103"/>
      <point x="752" y="1290" type="qcurve"/>
      <point x="752" y="1304" type="line"/>
      <point x="444" y="1304" type="line" smooth="yes"/>
      <point x="387" y="1304"/>
      <point x="337" y="1300" type="qcurve"/>
      <point x="312" y="1299"/>
      <point x="270" y="1297"/>
      <point x="267" y="1281" type="qcurve"/>
      <point x="218" y="1117" type="line" smooth="yes"/>
      <point x="214" y="1102"/>
      <point x="197" y="1100" type="qcurve" smooth="yes"/>
      <point x="79" y="1088" type="line"/>
      <point x="80" y="1455" type="line"/>
      <point x="966" y="1455" type="line"/>
      <point x="966" y="1329" type="line"/>
      <point x="891" y="1176"/>
      <point x="808" y="1022" type="qcurve" smooth="yes"/>
      <point x="715" y="848"/>
      <point x="548" y="503"/>
      <point x="441" y="164"/>
    </contour>
  </outline>
</glyph>
<glyph name="eight" format="1">
  <advance width="1170"/>
  <unicode hex="0038"/>
  <outline>
    <contour>
      <point x="581" y="114" type="qcurve" smooth="yes"/>
      <point x="498" y="114"/>
      <point x="353" y="166"/>
      <point x="263" y="277"/>
      <point x="263" y="367" type="qcurve" smooth="yes"/>
      <point x="263" y="488"/>
      <point x="403" y="632"/>
      <point x="531" y="691" type="qcurve"/>
      <point x="552" y="681"/>
      <point x="574" y="672" type="qcurve" smooth="yes"/>
      <point x="645" y="643"/>
      <point x="778" y="572"/>
      <point x="870" y="466"/>
      <point x="878" y="384" type="qcurve"/>
      <point x="878" y="367" type="line" smooth="yes"/>
      <point x="878" y="246"/>
      <point x="712" y="114"/>
    </contour>
    <contour>
      <point x="581" y="-20" type="qcurve" smooth="yes"/>
      <point x="710" y="-20"/>
      <point x="932" y="76"/>
      <point x="1065" y="258"/>
      <point x="1067" y="389" type="qcurve"/>
      <point x="1064" y="534"/>
      <point x="896" y="743"/>
      <point x="764" y="810" type="qcurve"/>
      <point x="869" y="872"/>
      <point x="934" y="964" type="qcurve"/>
      <point x="992" y="1053"/>
      <point x="992" y="1148" type="qcurve" smooth="yes"/>
      <point x="992" y="1266"/>
      <point x="864" y="1418"/>
      <point x="658" y="1489"/>
      <point x="539" y="1489" type="qcurve" smooth="yes"/>
      <point x="376" y="1489"/>
      <point x="133" y="1305"/>
      <point x="126" y="1142" type="qcurve"/>
      <point x="126" y="1138" type="line"/>
      <point x="137" y="995"/>
      <point x="276" y="821"/>
      <point x="375" y="767" type="qcurve"/>
      <point x="89" y="613"/>
      <point x="82" y="353" type="qcurve"/>
      <point x="83" y="224"/>
      <point x="229" y="59"/>
      <point x="459" y="-20"/>
    </contour>
    <contour>
      <point x="606" y="883" type="qcurve"/>
      <point x="538" y="912"/>
      <point x="403" y="999"/>
      <point x="313" y="1110"/>
      <point x="313" y="1174" type="qcurve"/>
      <point x="319" y="1259"/>
      <point x="455" y="1360"/>
      <point x="539" y="1360" type="qcurve" smooth="yes"/>
      <point x="815" y="1360"/>
      <point x="815" y="1139" type="qcurve" smooth="yes"/>
      <point x="815" y="1126" type="line"/>
      <point x="807" y="1041"/>
      <point x="690" y="924"/>
    </contour>
  </outline>
</glyph>
<glyph name="nine" format="1">
  <advance width="1088"/>
  <unicode hex="0039"/>
  <outline>
    <contour>
      <point x="469" y="593" type="qcurve"/>
      <point x="556" y="593"/>
      <point x="695" y="681"/>
      <point x="776" y="829"/>
      <point x="778" y="921" type="qcurve"/>
      <point x="778" y="937" type="line" smooth="yes"/>
      <point x="778" y="1125"/>
      <point x="624" y="1355"/>
      <point x="494" y="1359" type="qcurve"/>
      <point x="423" y="1359"/>
      <point x="314" y="1288"/>
      <point x="241" y="1174"/>
      <point x="203" y="1038"/>
      <point x="203" y="970" type="qcurve" smooth="yes"/>
      <point x="203" y="878"/>
      <point x="259" y="707"/>
      <point x="317" y="652" type="qcurve" smooth="yes"/>
      <point x="378" y="594"/>
    </contour>
    <contour>
      <point x="436" y="-20" type="qcurve" smooth="yes"/>
      <point x="334" y="-20"/>
      <point x="120" y="58"/>
      <point x="77" y="102" type="qcurve"/>
      <point x="77" y="352" type="line"/>
      <point x="175" y="338" type="line"/>
      <point x="187" y="337"/>
      <point x="190" y="325" type="qcurve" smooth="yes"/>
      <point x="199" y="294" type="line" smooth="yes"/>
      <point x="209" y="263"/>
      <point x="260" y="183"/>
      <point x="308" y="152" type="qcurve" smooth="yes"/>
      <point x="359" y="119"/>
      <point x="439" y="118" type="qcurve"/>
      <point x="739" y="118"/>
      <point x="777" y="570" type="qcurve" smooth="yes"/>
      <point x="780" y="606"/>
      <point x="789" y="665" type="qcurve"/>
      <point x="777" y="675" type="line"/>
      <point x="758" y="618"/>
      <point x="667" y="508"/>
      <point x="532" y="434"/>
      <point x="447" y="434" type="qcurve" smooth="yes"/>
      <point x="329" y="434"/>
      <point x="160" y="522"/>
      <point x="52" y="672"/>
      <point x="0" y="862"/>
      <point x="0" y="964" type="qcurve" smooth="yes"/>
      <point x="0" y="1116"/>
      <point x="112" y="1353"/>
      <point x="331" y="1489"/>
      <point x="490" y="1489" type="qcurve" smooth="yes"/>
      <point x="735" y="1489"/>
      <point x="992" y="1151"/>
      <point x="992" y="834" type="qcurve" smooth="yes"/>
      <point x="992" y="722"/>
      <point x="981" y="515"/>
      <point x="959" y="411" type="qcurve" smooth="yes"/>
      <point x="915" y="200"/>
      <point x="669" y="-20"/>
    </contour>
  </outline>
</glyph>
<glyph name="colon" format="1">
  <advance width="557"/>
  <unicode hex="003A"/>
  <outline>
    <contour>
      <point x="253" y="673" type="qcurve" smooth="yes"/>
      <point x="303" y="673"/>
      <point x="368" y="732"/>
      <point x="368" y="793" type="qcurve" smooth="yes"/>
      <point x="368" y="850"/>
      <point x="303" y="905"/>
      <point x="253" y="905" type="qcurve" smooth="yes"/>
      <point x="202" y="905"/>
      <point x="140" y="850"/>
      <point x="140" y="793" type="qcurve" smooth="yes"/>
      <point x="140" y="732"/>
      <point x="202" y="673"/>
    </contour>
    <contour>
      <point x="253" y="-20" type="qcurve" smooth="yes"/>
      <point x="303" y="-20"/>
      <point x="368" y="39"/>
      <point x="368" y="100" type="qcurve" smooth="yes"/>
      <point x="368" y="157"/>
      <point x="303" y="213"/>
      <point x="253" y="213" type="qcurve" smooth="yes"/>
      <point x="202" y="213"/>
      <point x="140" y="157"/>
      <point x="140" y="100" type="qcurve" smooth="yes"/>
      <point x="140" y="39"/>
      <point x="202" y="-20"/>
    </contour>
  </outline>
</glyph>
<glyph name="semicolon" format="1">
  <advance width="557"/>
  <unicode hex="003B"/>
  <outline>
    <contour>
      <point x="253" y="673" type="qcurve" smooth="yes"/>
      <point x="303" y="673"/>
      <point x="368" y="732"/>
      <point x="368" y="793" type="qcurve" smooth="yes"/>
      <point x="368" y="850"/>
      <point x="303" y="905"/>
      <point x="253" y="905" type="qcurve" smooth="yes"/>
      <point x="202" y="905"/>
      <point x="140" y="850"/>
      <point x="140" y="793" type="qcurve" smooth="yes"/>
      <point x="140" y="732"/>
      <point x="202" y="673"/>
    </contour>
    <contour>
      <point x="220" y="-216" type="qcurve" smooth="yes"/>
      <point x="167" y="-216" type="line"/>
      <point x="223" y="-25" type="line"/>
      <point x="182" y="-18"/>
      <point x="134" y="43"/>
      <point x="134" y="98" type="qcurve" smooth="yes"/>
      <point x="134" y="157"/>
      <point x="200" y="216"/>
      <point x="253" y="216" type="qcurve" smooth="yes"/>
      <point x="306" y="216"/>
      <point x="374" y="157"/>
      <point x="374" y="98" type="qcurve" smooth="yes"/>
      <point x="374" y="74"/>
      <point x="369" y="56" type="qcurve"/>
      <point x="357" y="-7"/>
      <point x="289" y="-146"/>
      <point x="255" y="-204" type="qcurve" smooth="yes"/>
      <point x="250" y="-214"/>
      <point x="232" y="-216"/>
    </contour>
  </outline>
</glyph>
<glyph name="less" format="1">
  <advance width="1014"/>
  <unicode hex="003C"/>
  <outline>
    <contour>
      <point x="927" y="1074" type="line"/>
      <point x="302" y="715" type="line"/>
      <point x="927" y="360" type="line"/>
      <point x="927" y="193" type="line"/>
      <point x="87" y="674" type="line"/>
      <point x="87" y="757" type="line"/>
      <point x="927" y="1241" type="line"/>
    </contour>
  </outline>
</glyph>
<glyph name="equal" format="1">
  <advance width="1014"/>
  <unicode hex="003D"/>
  <outline>
    <contour>
      <point x="87" y="631" type="line"/>
      <point x="927" y="631" type="line"/>
      <point x="927" y="491" type="line"/>
      <point x="87" y="491" type="line"/>
    </contour>
    <contour>
      <point x="87" y="943" type="line"/>
      <point x="927" y="943" type="line"/>
      <point x="927" y="803" type="line"/>
      <point x="87" y="803" type="line"/>
    </contour>
  </outline>
</glyph>
<glyph name="greater" format="1">
  <advance width="1014"/>
  <unicode hex="003E"/>
  <outline>
    <contour>
      <point x="87" y="1241" type="line"/>
      <point x="927" y="757" type="line"/>
      <point x="927" y="674" type="line"/>
      <point x="87" y="193" type="line"/>
      <point x="87" y="360" type="line"/>
      <point x="712" y="715" type="line"/>
      <point x="87" y="1074" type="line"/>
    </contour>
  </outline>
</glyph>
<glyph name="question" format="1">
  <advance width="768"/>
  <unicode hex="003F"/>
  <outline>
    <contour>
      <point x="418" y="-138" type="qcurve"/>
      <point x="416" y="-138" type="line"/>
      <point x="290" y="-138"/>
      <point x="290" y="4" type="qcurve" smooth="yes"/>
      <point x="290" y="136"/>
      <point x="416" y="136" type="qcurve" smooth="yes"/>
      <point x="542" y="136"/>
      <point x="542" y="6" type="qcurve" smooth="yes"/>
      <point x="542" y="-138"/>
    </contour>
    <contour>
      <point x="501" y="365" type="qcurve"/>
      <point x="332" y="365" type="line"/>
      <point x="341" y="473"/>
      <point x="341" y="601" type="qcurve" smooth="yes"/>
      <point x="341" y="738" type="line"/>
      <point x="378" y="732"/>
      <point x="413" y="732" type="qcurve" smooth="yes"/>
      <point x="513" y="732"/>
      <point x="643" y="825"/>
      <point x="707" y="974"/>
      <point x="708" y="1060" type="qcurve"/>
      <point x="708" y="1201"/>
      <point x="647" y="1296" type="qcurve" smooth="yes"/>
      <point x="575" y="1406"/>
      <point x="430" y="1406" type="qcurve"/>
      <point x="313" y="1404"/>
      <point x="254" y="1339" type="qcurve" smooth="yes"/>
      <point x="211" y="1290"/>
      <point x="201" y="1235" type="qcurve" smooth="yes"/>
      <point x="198" y="1215" type="line"/>
      <point x="195" y="1204"/>
      <point x="181" y="1202" type="qcurve" smooth="yes"/>
      <point x="69" y="1188" type="line"/>
      <point x="75" y="1430" type="line"/>
      <point x="120" y="1473"/>
      <point x="307" y="1533"/>
      <point x="424" y="1535" type="qcurve"/>
      <point x="653" y="1535"/>
      <point x="900" y="1300"/>
      <point x="900" y="1086" type="qcurve"/>
      <point x="898" y="882"/>
      <point x="696" y="624"/>
      <point x="488" y="598" type="qcurve"/>
      <point x="490" y="471"/>
    </contour>
  </outline>
</glyph>
<glyph name="at" format="1">
  <advance width="2019"/>
  <unicode hex="0040"/>
  <outline>
    <contour>
      <point x="972" y="622" type="qcurve"/>
      <point x="889" y="612"/>
      <point x="753" y="472"/>
      <point x="753" y="343" type="qcurve" smooth="yes"/>
      <point x="753" y="236"/>
      <point x="881" y="62"/>
      <point x="1000" y="62" type="qcurve"/>
      <point x="1097" y="67"/>
      <point x="1126" y="229" type="qcurve"/>
      <point x="1126" y="705" type="line"/>
      <point x="1072" y="642"/>
    </contour>
    <contour>
      <point x="1360" y="29" type="qcurve"/>
      <point x="1297" y="30"/>
      <point x="1222" y="64"/>
      <point x="1198" y="101" type="qcurve"/>
      <point x="1169" y="64"/>
      <point x="1063" y="9"/>
      <point x="983" y="9" type="qcurve" smooth="yes"/>
      <point x="839" y="9"/>
      <point x="614" y="210"/>
      <point x="614" y="343" type="qcurve"/>
      <point x="615" y="430"/>
      <point x="719" y="589"/>
      <point x="880" y="660"/>
      <point x="973" y="674" type="qcurve"/>
      <point x="1040" y="690"/>
      <point x="1126" y="743"/>
      <point x="1126" y="791" type="qcurve"/>
      <point x="1124" y="860"/>
      <point x="1046" y="972"/>
      <point x="956" y="972" type="qcurve" smooth="yes"/>
      <point x="884" y="972"/>
      <point x="785" y="854"/>
      <point x="784" y="788" type="qcurve"/>
      <point x="739" y="788" type="line"/>
      <point x="739" y="947" type="line" smooth="yes"/>
      <point x="739" y="967"/>
      <point x="811" y="987" type="qcurve" smooth="yes"/>
      <point x="884" y="1007"/>
      <point x="989" y="1007" type="qcurve"/>
      <point x="1098" y="1005"/>
      <point x="1267" y="880"/>
      <point x="1267" y="785" type="qcurve" smooth="yes"/>
      <point x="1267" y="196" type="line" smooth="yes"/>
      <point x="1267" y="79"/>
      <point x="1361" y="79" type="qcurve"/>
      <point x="1546" y="114"/>
      <point x="1710" y="427"/>
      <point x="1710" y="653" type="qcurve"/>
      <point x="1690" y="988"/>
      <point x="1478" y="1193" type="qcurve"/>
      <point x="1281" y="1381"/>
      <point x="998" y="1381" type="qcurve" smooth="yes"/>
      <point x="793" y="1381"/>
      <point x="418" y="1106"/>
      <point x="336" y="888" type="qcurve" smooth="yes"/>
      <point x="269" y="710"/>
      <point x="269" y="527" type="qcurve" smooth="yes"/>
      <point x="269" y="214"/>
      <point x="528" y="-183"/>
      <point x="879" y="-367"/>
      <point x="1022" y="-367" type="qcurve" smooth="yes"/>
      <point x="1296" y="-367"/>
      <point x="1597" y="-159" type="qcurve"/>
      <point x="1597" y="-234" type="line"/>
      <point x="1334" y="-418"/>
      <point x="1026" y="-418" type="qcurve" smooth="yes"/>
      <point x="786" y="-418"/>
      <point x="344" y="-173"/>
      <point x="100" y="266"/>
      <point x="100" y="508" type="qcurve" smooth="yes"/>
      <point x="100" y="750"/>
      <point x="348" y="1195"/>
      <point x="791" y="1434"/>
      <point x="1026" y="1434" type="qcurve" smooth="yes"/>
      <point x="1388" y="1434"/>
      <point x="1882" y="974"/>
      <point x="1882" y="638" type="qcurve" smooth="yes"/>
      <point x="1882" y="368"/>
      <point x="1706" y="199" type="qcurve" smooth="yes"/>
      <point x="1531" y="31"/>
    </contour>
  </outline>
</glyph>
<glyph name="A" format="1">
  <advance width="1400"/>
  <unicode hex="0041"/>
  <outline>
    <contour>
      <point x="1380" y="-17" type="line"/>
      <point x="1239" y="-6"/>
      <point x="1111" y="-6" type="qcurve" smooth="yes"/>
      <point x="984" y="-6"/>
      <point x="842" y="-17" type="qcurve"/>
      <point x="853" y="104" type="line" smooth="yes"/>
      <point x="854" y="117"/>
      <point x="868" y="118" type="qcurve" smooth="yes"/>
      <point x="992" y="132" type="line"/>
      <point x="1006" y="137"/>
      <point x="1006" y="148" type="qcurve"/>
      <point x="1005" y="154"/>
      <point x="907" y="428" type="qcurve"/>
      <point x="406" y="428" type="line"/>
      <point x="311" y="146" type="line"/>
      <point x="312" y="135"/>
      <point x="324" y="132" type="qcurve"/>
      <point x="449" y="118" type="line" smooth="yes"/>
      <point x="462" y="117"/>
      <point x="463" y="104" type="qcurve" smooth="yes"/>
      <point x="475" y="-17" type="line"/>
      <point x="318" y="-8"/>
      <point x="232" y="-6" type="qcurve"/>
      <point x="144" y="-8"/>
      <point x="-10" y="-17" type="qcurve"/>
      <point x="1" y="104" type="line" smooth="yes"/>
      <point x="2" y="117"/>
      <point x="16" y="118" type="qcurve" smooth="yes"/>
      <point x="138" y="132" type="line" smooth="yes"/>
      <point x="146" y="133"/>
      <point x="153" y="140"/>
      <point x="271" y="455" type="qcurve"/>
      <point x="535" y="1240" type="line"/>
      <point x="550" y="1292"/>
      <point x="550" y="1295" type="qcurve" smooth="yes"/>
      <point x="550" y="1306"/>
      <point x="537" y="1308" type="qcurve" smooth="yes"/>
      <point x="407" y="1324" type="line" smooth="yes"/>
      <point x="394" y="1325"/>
      <point x="393" y="1337" type="qcurve" smooth="yes"/>
      <point x="381" y="1449" type="line"/>
      <point x="734" y="1449" type="line"/>
      <point x="1214" y="148" type="line" smooth="yes"/>
      <point x="1220" y="133"/>
      <point x="1232" y="132" type="qcurve" smooth="yes"/>
      <point x="1354" y="118" type="line" smooth="yes"/>
      <point x="1368" y="117"/>
      <point x="1369" y="104" type="qcurve" smooth="yes"/>
    </contour>
    <contour>
      <point x="861" y="556" type="line"/>
      <point x="649" y="1152" type="line"/>
      <point x="449" y="556" type="line"/>
    </contour>
  </outline>
</glyph>
<glyph name="B" format="1">
  <advance width="1285"/>
  <unicode hex="0042"/>
  <outline>
    <contour>
      <point x="44" y="-17" type="qcurve"/>
      <point x="56" y="105" type="line" smooth="yes"/>
      <point x="57" y="117"/>
      <point x="70" y="118" type="qcurve" smooth="yes"/>
      <point x="195" y="133" type="line" smooth="yes"/>
      <point x="203" y="134"/>
      <point x="209" y="141"/>
      <point x="209" y="149" type="qcurve" smooth="yes"/>
      <point x="209" y="1288" type="line" smooth="yes"/>
      <point x="209" y="1303"/>
      <point x="195" y="1304" type="qcurve"/>
      <point x="70" y="1323" type="line"/>
      <point x="57" y="1324"/>
      <point x="56" y="1337" type="qcurve" smooth="yes"/>
      <point x="44" y="1449" type="line"/>
      <point x="644" y="1449" type="line" smooth="yes"/>
      <point x="783" y="1449"/>
      <point x="974" y="1376"/>
      <point x="1072" y="1216"/>
      <point x="1072" y="1086" type="qcurve" smooth="yes"/>
      <point x="1072" y="878"/>
      <point x="901" y="800" type="qcurve"/>
      <point x="1188" y="716"/>
      <point x="1188" y="409" type="qcurve" smooth="yes"/>
      <point x="1188" y="249"/>
      <point x="1065" y="69"/>
      <point x="822" y="-5"/>
      <point x="642" y="-5" type="qcurve" smooth="yes"/>
      <point x="320" y="-5" type="line" smooth="yes"/>
      <point x="184" y="-5"/>
    </contour>
    <contour>
      <point x="671" y="833" type="line" smooth="yes"/>
      <point x="786" y="833"/>
      <point x="838" y="921" type="qcurve" smooth="yes"/>
      <point x="879" y="990"/>
      <point x="879" y="1085" type="qcurve"/>
      <point x="877" y="1322"/>
      <point x="661" y="1322" type="qcurve"/>
      <point x="602" y="1323"/>
      <point x="395" y="1323" type="qcurve"/>
      <point x="395" y="833" type="line"/>
    </contour>
    <contour>
      <point x="669" y="128" type="line" smooth="yes"/>
      <point x="847" y="128"/>
      <point x="991" y="264"/>
      <point x="991" y="412" type="qcurve" smooth="yes"/>
      <point x="991" y="548"/>
      <point x="841" y="696"/>
      <point x="683" y="696" type="qcurve" smooth="yes"/>
      <point x="395" y="696" type="line"/>
      <point x="395" y="128" type="line"/>
    </contour>
  </outline>
</glyph>
<glyph name="C" format="1">
  <advance width="1257"/>
  <unicode hex="0043"/>
  <outline>
    <contour>
      <point x="703" y="-20" type="qcurve" smooth="yes"/>
      <point x="506" y="-20"/>
      <point x="227" y="140"/>
      <point x="79" y="474"/>
      <point x="79" y="733" type="qcurve" smooth="yes"/>
      <point x="79" y="1116"/>
      <point x="390" y="1478"/>
      <point x="686" y="1478" type="qcurve" smooth="yes"/>
      <point x="768" y="1478"/>
      <point x="936" y="1454"/>
      <point x="1087" y="1393"/>
      <point x="1146" y="1338" type="qcurve"/>
      <point x="1146" y="988" type="line"/>
      <point x="1036" y="1001" type="line" smooth="yes"/>
      <point x="1023" y="1003"/>
      <point x="1019" y="1016" type="qcurve"/>
      <point x="1014" y="1038" type="line" smooth="yes"/>
      <point x="999" y="1100"/>
      <point x="986" y="1148" type="qcurve" smooth="yes"/>
      <point x="967" y="1215"/>
      <point x="944" y="1248" type="qcurve" smooth="yes"/>
      <point x="928" y="1272"/>
      <point x="897" y="1288" type="qcurve"/>
      <point x="796" y="1335"/>
      <point x="686" y="1335" type="qcurve" smooth="yes"/>
      <point x="494" y="1335"/>
      <point x="285" y="1033"/>
      <point x="285" y="733" type="qcurve" smooth="yes"/>
      <point x="285" y="435"/>
      <point x="502" y="121"/>
      <point x="703" y="121" type="qcurve" smooth="yes"/>
      <point x="766" y="121"/>
      <point x="898" y="137"/>
      <point x="953" y="175" type="qcurve" smooth="yes"/>
      <point x="969" y="186"/>
      <point x="976" y="193" type="qcurve" smooth="yes"/>
      <point x="995" y="214"/>
      <point x="1025" y="345" type="qcurve" smooth="yes"/>
      <point x="1029" y="362" type="line" smooth="yes"/>
      <point x="1031" y="375"/>
      <point x="1047" y="377" type="qcurve" smooth="yes"/>
      <point x="1157" y="389" type="line"/>
      <point x="1157" y="130" type="line"/>
      <point x="1107" y="74"/>
      <point x="959" y="8"/>
      <point x="786" y="-20"/>
    </contour>
  </outline>
</glyph>
<glyph name="D" format="1">
  <advance width="1422"/>
  <unicode hex="0044"/>
  <outline>
    <contour>
      <point x="99" y="-18" type="qcurve"/>
      <point x="111" y="104" type="line"/>
      <point x="111" y="116"/>
      <point x="125" y="117" type="qcurve"/>
      <point x="250" y="132" type="line"/>
      <point x="264" y="133"/>
      <point x="264" y="148" type="qcurve" smooth="yes"/>
      <point x="264" y="1287" type="line" smooth="yes"/>
      <point x="264" y="1301"/>
      <point x="250" y="1303" type="qcurve" smooth="yes"/>
      <point x="125" y="1322" type="line"/>
      <point x="111" y="1323"/>
      <point x="111" y="1336" type="qcurve"/>
      <point x="99" y="1448" type="line"/>
      <point x="667" y="1448" type="line" smooth="yes"/>
      <point x="874" y="1448"/>
      <point x="1176" y="1300"/>
      <point x="1341" y="982"/>
      <point x="1341" y="727" type="qcurve" smooth="yes"/>
      <point x="1341" y="466"/>
      <point x="1176" y="143"/>
      <point x="874" y="-7"/>
      <point x="667" y="-7" type="qcurve"/>
      <point x="365" y="-6" type="line"/>
      <point x="241" y="-7"/>
    </contour>
    <contour>
      <point x="725" y="127" type="line" smooth="yes"/>
      <point x="928" y="127"/>
      <point x="1133" y="422"/>
      <point x="1133" y="727" type="qcurve" smooth="yes"/>
      <point x="1133" y="933"/>
      <point x="1035" y="1196"/>
      <point x="852" y="1323"/>
      <point x="725" y="1323" type="qcurve" smooth="yes"/>
      <point x="458" y="1323" type="line"/>
      <point x="458" y="127" type="line"/>
    </contour>
  </outline>
</glyph>
<glyph name="F" format="1">
  <advance width="1139"/>
  <unicode hex="0046"/>
  <outline>
    <contour>
      <point x="607" y="-17" type="line"/>
      <point x="507" y="-9"/>
      <point x="402" y="-5"/>
      <point x="316" y="-5" type="qcurve"/>
      <point x="211" y="-8"/>
      <point x="89" y="-17" type="qcurve"/>
      <point x="101" y="105" type="line" smooth="yes"/>
      <point x="102" y="118"/>
      <point x="116" y="119" type="qcurve" smooth="yes"/>
      <point x="240" y="133" type="line" smooth="yes"/>
      <point x="254" y="134"/>
      <point x="254" y="148" type="qcurve" smooth="yes"/>
      <point x="254" y="1289" type="line" smooth="yes"/>
      <point x="254" y="1302"/>
      <point x="240" y="1304" type="qcurve" smooth="yes"/>
      <point x="116" y="1323" type="line"/>
      <point x="102" y="1324"/>
      <point x="101" y="1336" type="qcurve" smooth="yes"/>
      <point x="89" y="1448" type="line"/>
      <point x="1047" y="1448" type="line"/>
      <point x="1047" y="1101" type="line"/>
      <point x="938" y="1113" type="line" smooth="yes"/>
      <point x="929" y="1114"/>
      <point x="923" y="1120"/>
      <point x="874" y="1280" type="qcurve"/>
      <point x="871" y="1294"/>
      <point x="852" y="1295" type="qcurve" smooth="yes"/>
      <point x="803" y="1297" type="line"/>
      <point x="609" y="1309"/>
      <point x="443" y="1309" type="qcurve"/>
      <point x="443" y="817" type="line"/>
      <point x="911" y="817" type="line"/>
      <point x="911" y="675" type="line"/>
      <point x="443" y="675" type="line"/>
      <point x="443" y="148" type="line" smooth="yes"/>
      <point x="443" y="134"/>
      <point x="457" y="133" type="qcurve" smooth="yes"/>
      <point x="581" y="119" type="line" smooth="yes"/>
      <point x="595" y="118"/>
      <point x="596" y="105" type="qcurve" smooth="yes"/>
    </contour>
  </outline>
</glyph>
<glyph name="G" format="1">
  <advance width="1290"/>
  <unicode hex="0047"/>
  <outline>
    <contour>
      <point x="718" y="-20" type="qcurve" smooth="yes"/>
      <point x="521" y="-20"/>
      <point x="242" y="141"/>
      <point x="94" y="474"/>
      <point x="94" y="733" type="qcurve" smooth="yes"/>
      <point x="94" y="1116"/>
      <point x="405" y="1477"/>
      <point x="701" y="1477" type="qcurve" smooth="yes"/>
      <point x="783" y="1477"/>
      <point x="951" y="1453"/>
      <point x="1102" y="1392"/>
      <point x="1161" y="1338" type="qcurve"/>
      <point x="1161" y="988" type="line"/>
      <point x="1051" y="1001" type="line" smooth="yes"/>
      <point x="1038" y="1003"/>
      <point x="1034" y="1016" type="qcurve" smooth="yes"/>
      <point x="1029" y="1037" type="line" smooth="yes"/>
      <point x="1014" y="1099"/>
      <point x="1000" y="1147" type="qcurve" smooth="yes"/>
      <point x="981" y="1214"/>
      <point x="959" y="1248" type="qcurve" smooth="yes"/>
      <point x="943" y="1272"/>
      <point x="912" y="1288" type="qcurve"/>
      <point x="811" y="1334"/>
      <point x="701" y="1334" type="qcurve" smooth="yes"/>
      <point x="509" y="1334"/>
      <point x="300" y="1033"/>
      <point x="300" y="733" type="qcurve" smooth="yes"/>
      <point x="300" y="435"/>
      <point x="517" y="122"/>
      <point x="718" y="122" type="qcurve" smooth="yes"/>
      <point x="781" y="122"/>
      <point x="912" y="138"/>
      <point x="968" y="175" type="qcurve" smooth="yes"/>
      <point x="984" y="186"/>
      <point x="999" y="206"/>
      <point x="1006" y="224" type="qcurve"/>
      <point x="1006" y="515" type="line" smooth="yes"/>
      <point x="1006" y="520"/>
      <point x="999" y="528"/>
      <point x="995" y="529" type="qcurve"/>
      <point x="809" y="542" type="line"/>
      <point x="800" y="544"/>
      <point x="798" y="553" type="qcurve"/>
      <point x="789" y="673" type="line"/>
      <point x="1196" y="673" type="line"/>
      <point x="1196" y="135" type="line"/>
      <point x="1161" y="134"/>
      <point x="1122" y="119"/>
      <point x="1100" y="101" type="qcurve" smooth="yes"/>
      <point x="953" y="-20"/>
    </contour>
  </outline>
</glyph>
<glyph name="H" format="1">
  <advance width="1551"/>
  <unicode hex="0048"/>
  <outline>
    <contour>
      <point x="1442" y="-18" type="line"/>
      <point x="1341" y="-11"/>
      <point x="1239" y="-6"/>
      <point x="1150" y="-6" type="qcurve"/>
      <point x="1046" y="-9"/>
      <point x="924" y="-18" type="qcurve"/>
      <point x="935" y="104" type="line" smooth="yes"/>
      <point x="936" y="117"/>
      <point x="950" y="118" type="qcurve" smooth="yes"/>
      <point x="1074" y="132" type="line"/>
      <point x="1089" y="133"/>
      <point x="1089" y="148" type="qcurve" smooth="yes"/>
      <point x="1089" y="672" type="line"/>
      <point x="479" y="672" type="line"/>
      <point x="479" y="148" type="line" smooth="yes"/>
      <point x="479" y="133"/>
      <point x="494" y="132" type="qcurve"/>
      <point x="618" y="118" type="line" smooth="yes"/>
      <point x="632" y="117"/>
      <point x="633" y="104" type="qcurve" smooth="yes"/>
      <point x="644" y="-18" type="line"/>
      <point x="543" y="-11"/>
      <point x="439" y="-6"/>
      <point x="353" y="-6" type="qcurve"/>
      <point x="248" y="-9"/>
      <point x="126" y="-18" type="qcurve"/>
      <point x="138" y="104" type="line" smooth="yes"/>
      <point x="139" y="117"/>
      <point x="152" y="118" type="qcurve" smooth="yes"/>
      <point x="277" y="132" type="line" smooth="yes"/>
      <point x="286" y="133"/>
      <point x="291" y="143"/>
      <point x="291" y="152" type="qcurve" smooth="yes"/>
      <point x="291" y="1288" type="line" smooth="yes"/>
      <point x="291" y="1301"/>
      <point x="277" y="1303" type="qcurve" smooth="yes"/>
      <point x="152" y="1322" type="line"/>
      <point x="139" y="1323"/>
      <point x="138" y="1335" type="qcurve" smooth="yes"/>
      <point x="126" y="1448" type="line"/>
      <point x="644" y="1448" type="line"/>
      <point x="633" y="1335" type="line" smooth="yes"/>
      <point x="632" y="1323"/>
      <point x="618" y="1322" type="qcurve"/>
      <point x="494" y="1303" type="line" smooth="yes"/>
      <point x="479" y="1301"/>
      <point x="479" y="1286" type="qcurve" smooth="yes"/>
      <point x="479" y="794" type="line"/>
      <point x="1089" y="794" type="line"/>
      <point x="1089" y="1286" type="line" smooth="yes"/>
      <point x="1089" y="1301"/>
      <point x="1074" y="1303" type="qcurve" smooth="yes"/>
      <point x="950" y="1322" type="line"/>
      <point x="936" y="1323"/>
      <point x="935" y="1335" type="qcurve" smooth="yes"/>
      <point x="924" y="1448" type="line"/>
      <point x="1442" y="1448" type="line"/>
      <point x="1430" y="1335" type="line"/>
      <point x="1430" y="1323"/>
      <point x="1416" y="1322" type="qcurve"/>
      <point x="1291" y="1303" type="line" smooth="yes"/>
      <point x="1277" y="1301"/>
      <point x="1277" y="1288" type="qcurve" smooth="yes"/>
      <point x="1277" y="147" type="line" smooth="yes"/>
      <point x="1277" y="133"/>
      <point x="1291" y="132" type="qcurve" smooth="yes"/>
      <point x="1416" y="118" type="line" smooth="yes"/>
      <point x="1430" y="117"/>
      <point x="1430" y="104" type="qcurve"/>
    </contour>
  </outline>
</glyph>
<glyph name="J" format="1">
  <advance width="1048"/>
  <unicode hex="004A"/>
  <outline>
    <contour>
      <point x="427" y="-21" type="qcurve" smooth="yes"/>
      <point x="297" y="-21"/>
      <point x="122" y="45"/>
      <point x="83" y="98" type="qcurve"/>
      <point x="83" y="359" type="line"/>
      <point x="190" y="348" type="line" smooth="yes"/>
      <point x="198" y="347"/>
      <point x="205" y="341"/>
      <point x="258" y="179" type="qcurve"/>
      <point x="260" y="168"/>
      <point x="276" y="155" type="qcurve"/>
      <point x="315" y="120"/>
      <point x="421" y="120" type="qcurve" smooth="yes"/>
      <point x="474" y="120"/>
      <point x="568" y="156"/>
      <point x="626" y="234"/>
      <point x="626" y="296" type="qcurve"/>
      <point x="627" y="1286" type="line"/>
      <point x="627" y="1302"/>
      <point x="613" y="1303" type="qcurve"/>
      <point x="488" y="1322" type="line"/>
      <point x="475" y="1323"/>
      <point x="474" y="1336" type="qcurve" smooth="yes"/>
      <point x="462" y="1448" type="line"/>
      <point x="980" y="1448" type="line"/>
      <point x="969" y="1336" type="line" smooth="yes"/>
      <point x="968" y="1323"/>
      <point x="954" y="1322" type="qcurve"/>
      <point x="830" y="1303" type="line"/>
      <point x="816" y="1302"/>
      <point x="816" y="1289" type="qcurve" smooth="yes"/>
      <point x="816" y="312" type="line" smooth="yes"/>
      <point x="816" y="151"/>
      <point x="610" y="-21"/>
    </contour>
  </outline>
</glyph>
<glyph name="K" format="1">
  <advance width="1454"/>
  <unicode hex="004B"/>
  <outline>
    <contour>
      <point x="1414" y="-17" type="line"/>
      <point x="1259" y="-5"/>
      <point x="1119" y="-5" type="qcurve"/>
      <point x="674" y="748" type="line"/>
      <point x="440" y="498" type="line"/>
      <point x="441" y="148" type="line"/>
      <point x="441" y="135"/>
      <point x="455" y="133" type="qcurve" smooth="yes"/>
      <point x="580" y="119" type="line" smooth="yes"/>
      <point x="593" y="118"/>
      <point x="594" y="105" type="qcurve" smooth="yes"/>
      <point x="606" y="-17" type="line"/>
      <point x="484" y="-8"/>
      <point x="379" y="-5" type="qcurve"/>
      <point x="289" y="-5"/>
      <point x="187" y="-10"/>
      <point x="88" y="-17" type="qcurve"/>
      <point x="99" y="105" type="line" smooth="yes"/>
      <point x="100" y="118"/>
      <point x="114" y="119" type="qcurve" smooth="yes"/>
      <point x="238" y="133" type="line" smooth="yes"/>
      <point x="246" y="134"/>
      <point x="252" y="142"/>
      <point x="252" y="150" type="qcurve" smooth="yes"/>
      <point x="252" y="1288" type="line" smooth="yes"/>
      <point x="252" y="1303"/>
      <point x="238" y="1304" type="qcurve"/>
      <point x="114" y="1323" type="line"/>
      <point x="100" y="1324"/>
      <point x="99" y="1337" type="qcurve" smooth="yes"/>
      <point x="88" y="1449" type="line"/>
      <point x="606" y="1449" type="line"/>
      <point x="594" y="1337" type="line" smooth="yes"/>
      <point x="593" y="1324"/>
      <point x="580" y="1323" type="qcurve"/>
      <point x="455" y="1304" type="line"/>
      <point x="441" y="1303"/>
      <point x="441" y="1288" type="qcurve"/>
      <point x="440" y="680" type="line"/>
      <point x="599" y="858"/>
      <point x="821" y="1123"/>
      <point x="944" y="1284" type="qcurve" smooth="yes"/>
      <point x="947" y="1288"/>
      <point x="947" y="1293" type="qcurve" smooth="yes"/>
      <point x="947" y="1303"/>
      <point x="936" y="1304" type="qcurve"/>
      <point x="831" y="1323" type="line"/>
      <point x="818" y="1324"/>
      <point x="817" y="1337" type="qcurve" smooth="yes"/>
      <point x="805" y="1449" type="line"/>
      <point x="1278" y="1449" type="line"/>
      <point x="1266" y="1337" type="line" smooth="yes"/>
      <point x="1265" y="1324"/>
      <point x="1252" y="1323" type="qcurve"/>
      <point x="1145" y="1307" type="line"/>
      <point x="1127" y="1303"/>
      <point x="1114" y="1288" type="qcurve" smooth="yes"/>
      <point x="801" y="899" type="line"/>
      <point x="1248" y="149" type="line"/>
      <point x="1255" y="134"/>
      <point x="1269" y="132" type="qcurve" smooth="yes"/>
      <point x="1388" y="118" type="line"/>
      <point x="1402" y="117"/>
      <point x="1403" y="105" type="qcurve" smooth="yes"/>
    </contour>
  </outline>
</glyph>
<glyph name="L" format="1">
  <advance width="1242"/>
  <unicode hex="004C"/>
  <outline>
    <contour>
      <point x="90" y="-17" type="qcurve"/>
      <point x="101" y="105" type="line" smooth="yes"/>
      <point x="102" y="118"/>
      <point x="116" y="119" type="qcurve" smooth="yes"/>
      <point x="240" y="133" type="line" smooth="yes"/>
      <point x="254" y="134"/>
      <point x="254" y="147" type="qcurve" smooth="yes"/>
      <point x="254" y="1289" type="line" smooth="yes"/>
      <point x="254" y="1302"/>
      <point x="240" y="1304" type="qcurve" smooth="yes"/>
      <point x="116" y="1323" type="line"/>
      <point x="102" y="1324"/>
      <point x="101" y="1336" type="qcurve" smooth="yes"/>
      <point x="90" y="1449" type="line"/>
      <point x="607" y="1449" type="line"/>
      <point x="596" y="1336" type="line" smooth="yes"/>
      <point x="595" y="1324"/>
      <point x="581" y="1323" type="qcurve"/>
      <point x="457" y="1304" type="line" smooth="yes"/>
      <point x="444" y="1302"/>
      <point x="443" y="1292" type="qcurve"/>
      <point x="443" y="134" type="line"/>
      <point x="566" y="134"/>
      <point x="754" y="140"/>
      <point x="910" y="148" type="qcurve"/>
      <point x="929" y="148"/>
      <point x="932" y="163" type="qcurve" smooth="yes"/>
      <point x="989" y="443" type="line"/>
      <point x="991" y="458"/>
      <point x="1007" y="458" type="qcurve"/>
      <point x="1128" y="472" type="line"/>
      <point x="1128" y="465" type="line"/>
      <point x="1105" y="146"/>
      <point x="1105" y="-5" type="qcurve"/>
      <point x="316" y="-5" type="line"/>
      <point x="212" y="-8"/>
    </contour>
  </outline>
</glyph>
<glyph name="M" format="1">
  <advance width="1783"/>
  <unicode hex="004D"/>
  <outline>
    <contour>
      <point x="1695" y="-17" type="line"/>
      <point x="1573" y="-9"/>
      <point x="1531" y="-7" type="qcurve"/>
      <point x="1531" y="-8" type="line"/>
      <point x="1481" y="-6"/>
      <point x="1436" y="-6" type="qcurve" smooth="yes"/>
      <point x="1311" y="-6"/>
      <point x="1178" y="-17" type="qcurve"/>
      <point x="1190" y="105" type="line" smooth="yes"/>
      <point x="1191" y="118"/>
      <point x="1204" y="119" type="qcurve" smooth="yes"/>
      <point x="1329" y="133" type="line" smooth="yes"/>
      <point x="1340" y="134"/>
      <point x="1342" y="142" type="qcurve"/>
      <point x="1342" y="1102" type="line"/>
      <point x="919" y="69" type="line"/>
      <point x="911" y="68" type="line" smooth="yes"/>
      <point x="903" y="66"/>
      <point x="890" y="66" type="qcurve" smooth="yes"/>
      <point x="868" y="66"/>
      <point x="825" y="86"/>
      <point x="810" y="117" type="qcurve" smooth="yes"/>
      <point x="380" y="1052" type="line"/>
      <point x="380" y="149" type="line" smooth="yes"/>
      <point x="380" y="134"/>
      <point x="394" y="133" type="qcurve" smooth="yes"/>
      <point x="519" y="119" type="line" smooth="yes"/>
      <point x="532" y="118"/>
      <point x="533" y="105" type="qcurve" smooth="yes"/>
      <point x="545" y="-17" type="line"/>
      <point x="419" y="-8"/>
      <point x="312" y="-5" type="qcurve"/>
      <point x="204" y="-8"/>
      <point x="79" y="-17" type="qcurve"/>
      <point x="90" y="105" type="line" smooth="yes"/>
      <point x="91" y="118"/>
      <point x="105" y="119" type="qcurve" smooth="yes"/>
      <point x="229" y="133" type="line"/>
      <point x="241" y="135"/>
      <point x="243" y="142" type="qcurve"/>
      <point x="243" y="1294" type="line"/>
      <point x="241" y="1303"/>
      <point x="229" y="1304" type="qcurve"/>
      <point x="105" y="1323" type="line"/>
      <point x="91" y="1324"/>
      <point x="90" y="1336" type="qcurve" smooth="yes"/>
      <point x="79" y="1449" type="line"/>
      <point x="301" y="1449" type="line"/>
      <point x="322" y="1448"/>
      <point x="353" y="1445" type="qcurve"/>
      <point x="392" y="1439"/>
      <point x="430" y="1398"/>
      <point x="449" y="1359" type="qcurve" smooth="yes"/>
      <point x="453" y="1352"/>
      <point x="893" y="362" type="qcurve"/>
      <point x="1295" y="1359" type="line" smooth="yes"/>
      <point x="1314" y="1407"/>
      <point x="1374" y="1449"/>
      <point x="1405" y="1449" type="qcurve" smooth="yes"/>
      <point x="1695" y="1449" type="line"/>
      <point x="1684" y="1336" type="line" smooth="yes"/>
      <point x="1683" y="1324"/>
      <point x="1669" y="1323" type="qcurve"/>
      <point x="1545" y="1304" type="line" smooth="yes"/>
      <point x="1537" y="1303"/>
      <point x="1531" y="1295"/>
      <point x="1531" y="1287" type="qcurve" smooth="yes"/>
      <point x="1531" y="149" type="line" smooth="yes"/>
      <point x="1531" y="134"/>
      <point x="1545" y="133" type="qcurve" smooth="yes"/>
      <point x="1669" y="119" type="line" smooth="yes"/>
      <point x="1683" y="118"/>
      <point x="1684" y="105" type="qcurve" smooth="yes"/>
    </contour>
  </outline>
</glyph>
<glyph name="N" format="1">
  <advance width="1560"/>
  <unicode hex="004E"/>
  <outline>
    <contour>
      <point x="586" y="-18" type="line"/>
      <point x="460" y="-8"/>
      <point x="353" y="-6" type="qcurve"/>
      <point x="245" y="-8"/>
      <point x="119" y="-18" type="qcurve"/>
      <point x="131" y="104" type="line" smooth="yes"/>
      <point x="132" y="117"/>
      <point x="145" y="118" type="qcurve" smooth="yes"/>
      <point x="270" y="132" type="line" smooth="yes"/>
      <point x="282" y="133"/>
      <point x="284" y="142" type="qcurve"/>
      <point x="284" y="1295" type="line"/>
      <point x="282" y="1303"/>
      <point x="270" y="1305" type="qcurve" smooth="yes"/>
      <point x="145" y="1324" type="line"/>
      <point x="132" y="1325"/>
      <point x="131" y="1337" type="qcurve" smooth="yes"/>
      <point x="119" y="1450" type="line"/>
      <point x="332" y="1450"/>
      <point x="385" y="1449" type="qcurve" smooth="yes"/>
      <point x="443" y="1447"/>
      <point x="509" y="1383"/>
      <point x="544" y="1323" type="qcurve"/>
      <point x="556" y="1305"/>
      <point x="1166" y="284" type="qcurve"/>
      <point x="1166" y="1290" type="line" smooth="yes"/>
      <point x="1166" y="1303"/>
      <point x="1152" y="1305" type="qcurve" smooth="yes"/>
      <point x="1027" y="1324" type="line"/>
      <point x="1014" y="1325"/>
      <point x="1013" y="1337" type="qcurve" smooth="yes"/>
      <point x="1001" y="1450" type="line"/>
      <point x="1469" y="1450" type="line"/>
      <point x="1457" y="1337" type="line" smooth="yes"/>
      <point x="1456" y="1325"/>
      <point x="1443" y="1324" type="qcurve"/>
      <point x="1318" y="1305" type="line" smooth="yes"/>
      <point x="1304" y="1303"/>
      <point x="1304" y="1290" type="qcurve" smooth="yes"/>
      <point x="1304" y="-6" type="line"/>
      <point x="1173" y="-6" type="line" smooth="yes"/>
      <point x="1142" y="-6"/>
      <point x="1092" y="42"/>
      <point x="1062" y="97" type="qcurve"/>
      <point x="421" y="1170" type="line"/>
      <point x="421" y="147" type="line" smooth="yes"/>
      <point x="421" y="134"/>
      <point x="435" y="132" type="qcurve" smooth="yes"/>
      <point x="560" y="118" type="line" smooth="yes"/>
      <point x="574" y="117"/>
      <point x="574" y="104" type="qcurve"/>
    </contour>
  </outline>
</glyph>
<glyph name="P" format="1">
  <advance width="1233"/>
  <unicode hex="0050"/>
  <outline>
    <contour>
      <point x="597" y="-18" type="line"/>
      <point x="465" y="-6"/>
      <point x="339" y="-6" type="qcurve" smooth="yes"/>
      <point x="213" y="-6"/>
      <point x="81" y="-18" type="qcurve"/>
      <point x="93" y="104" type="line"/>
      <point x="93" y="118"/>
      <point x="107" y="118" type="qcurve"/>
      <point x="232" y="132" type="line" smooth="yes"/>
      <point x="240" y="133"/>
      <point x="246" y="141"/>
      <point x="246" y="149" type="qcurve" smooth="yes"/>
      <point x="246" y="1288" type="line" smooth="yes"/>
      <point x="246" y="1296"/>
      <point x="240" y="1304"/>
      <point x="232" y="1305" type="qcurve" smooth="yes"/>
      <point x="107" y="1324" type="line"/>
      <point x="93" y="1324"/>
      <point x="93" y="1337" type="qcurve"/>
      <point x="81" y="1450" type="line"/>
      <point x="602" y="1450" type="line" smooth="yes"/>
      <point x="783" y="1450"/>
      <point x="1026" y="1367"/>
      <point x="1149" y="1177"/>
      <point x="1149" y="1017" type="qcurve" smooth="yes"/>
      <point x="1149" y="800"/>
      <point x="869" y="586"/>
      <point x="606" y="586" type="qcurve" smooth="yes"/>
      <point x="432" y="586" type="line"/>
      <point x="432" y="149" type="line" smooth="yes"/>
      <point x="432" y="135"/>
      <point x="446" y="132" type="qcurve"/>
      <point x="571" y="118" type="line" smooth="yes"/>
      <point x="585" y="117"/>
      <point x="586" y="104" type="qcurve" smooth="yes"/>
    </contour>
    <contour>
      <point x="644" y="706" type="line" smooth="yes"/>
      <point x="749" y="706"/>
      <point x="886" y="784"/>
      <point x="952" y="923"/>
      <point x="952" y="1014" type="qcurve" smooth="yes"/>
      <point x="952" y="1113"/>
      <point x="890" y="1247"/>
      <point x="749" y="1316"/>
      <point x="630" y="1316" type="qcurve" smooth="yes"/>
      <point x="432" y="1316" type="line"/>
      <point x="432" y="706" type="line"/>
    </contour>
  </outline>
</glyph>
<glyph name="Q" format="1">
  <advance width="1364"/>
  <unicode hex="0051"/>
  <outline>
    <contour>
      <point x="1150" y="-274" type="line" smooth="yes"/>
      <point x="1160" y="-274"/>
      <point x="1163" y="-265" type="qcurve" smooth="yes"/>
      <point x="1213" y="-126" type="line"/>
      <point x="1021" y="-79"/>
      <point x="824" y="-8" type="qcurve"/>
      <point x="1048" y="33"/>
      <point x="1279" y="395"/>
      <point x="1279" y="731" type="qcurve" smooth="yes"/>
      <point x="1279" y="1113"/>
      <point x="970" y="1475"/>
      <point x="674" y="1475" type="qcurve" smooth="yes"/>
      <point x="69" y="1475"/>
      <point x="69" y="731" type="qcurve" smooth="yes"/>
      <point x="69" y="472"/>
      <point x="208" y="139"/>
      <point x="478" y="-21"/>
      <point x="674" y="-21" type="qcurve" smooth="yes"/>
      <point x="696" y="-21" type="line"/>
      <point x="681" y="-114" type="line"/>
      <point x="681" y="-123"/>
      <point x="689" y="-128" type="qcurve"/>
      <point x="810" y="-182"/>
      <point x="1016" y="-248"/>
      <point x="1146" y="-274" type="qcurve"/>
    </contour>
    <contour>
      <point x="672" y="121" type="qcurve" smooth="yes"/>
      <point x="521" y="121"/>
      <point x="346" y="265"/>
      <point x="271" y="538"/>
      <point x="271" y="732" type="qcurve" smooth="yes"/>
      <point x="271" y="1025"/>
      <point x="465" y="1332"/>
      <point x="672" y="1332" type="qcurve" smooth="yes"/>
      <point x="878" y="1332"/>
      <point x="1077" y="1025"/>
      <point x="1077" y="732" type="qcurve" smooth="yes"/>
      <point x="1077" y="541"/>
      <point x="999" y="267"/>
      <point x="821" y="121"/>
    </contour>
  </outline>
</glyph>
<glyph name="R" format="1">
  <advance width="1358"/>
  <unicode hex="0052"/>
  <outline>
    <contour>
      <point x="1266" y="-17" type="line"/>
      <point x="1158" y="-10"/>
      <point x="1101" y="-8" type="qcurve" smooth="yes"/>
      <point x="1016" y="-5"/>
      <point x="943" y="-5" type="qcurve"/>
      <point x="622" y="587" type="line"/>
      <point x="583" y="586"/>
      <point x="391" y="586" type="qcurve"/>
      <point x="391" y="149" type="line" smooth="yes"/>
      <point x="391" y="134"/>
      <point x="405" y="133" type="qcurve"/>
      <point x="530" y="118" type="line" smooth="yes"/>
      <point x="537" y="117"/>
      <point x="543" y="112"/>
      <point x="544" y="105" type="qcurve" smooth="yes"/>
      <point x="556" y="-17" type="line"/>
      <point x="418" y="-6"/>
      <point x="298" y="-5" type="qcurve"/>
      <point x="178" y="-6"/>
      <point x="40" y="-17" type="qcurve"/>
      <point x="51" y="105" type="line" smooth="yes"/>
      <point x="52" y="112"/>
      <point x="59" y="117"/>
      <point x="66" y="118" type="qcurve" smooth="yes"/>
      <point x="191" y="133" type="line"/>
      <point x="205" y="134"/>
      <point x="205" y="149" type="qcurve" smooth="yes"/>
      <point x="205" y="1288" type="line" smooth="yes"/>
      <point x="205" y="1304"/>
      <point x="193" y="1304" type="qcurve"/>
      <point x="129" y="1314" type="line" smooth="yes"/>
      <point x="59" y="1325"/>
      <point x="52" y="1330"/>
      <point x="51" y="1337" type="qcurve" smooth="yes"/>
      <point x="40" y="1449" type="line"/>
      <point x="583" y="1449" type="line" smooth="yes"/>
      <point x="762" y="1449"/>
      <point x="1003" y="1366"/>
      <point x="1125" y="1176"/>
      <point x="1125" y="1017" type="qcurve" smooth="yes"/>
      <point x="1125" y="852"/>
      <point x="963" y="650"/>
      <point x="808" y="611" type="qcurve"/>
      <point x="1082" y="153" type="line"/>
      <point x="1083" y="153" type="line"/>
      <point x="1098" y="123"/>
      <point x="1124" y="118" type="qcurve"/>
      <point x="1240" y="104" type="line"/>
      <point x="1254" y="103"/>
      <point x="1255" y="91" type="qcurve" smooth="yes"/>
    </contour>
    <contour>
      <point x="621" y="707" type="line" smooth="yes"/>
      <point x="726" y="707"/>
      <point x="862" y="785"/>
      <point x="929" y="923"/>
      <point x="929" y="1014" type="qcurve" smooth="yes"/>
      <point x="929" y="1113"/>
      <point x="866" y="1247"/>
      <point x="725" y="1316"/>
      <point x="607" y="1316" type="qcurve" smooth="yes"/>
      <point x="391" y="1316" type="line"/>
      <point x="391" y="707" type="line"/>
    </contour>
  </outline>
</glyph>
<glyph name="S" format="1">
  <advance width="1103"/>
  <unicode hex="0053"/>
  <outline>
    <contour>
      <point x="489" y="-20" type="qcurve" smooth="yes"/>
      <point x="370" y="-20"/>
      <point x="137" y="31"/>
      <point x="74" y="70" type="qcurve"/>
      <point x="74" y="367" type="line"/>
      <point x="190" y="355" type="line" smooth="yes"/>
      <point x="205" y="353"/>
      <point x="209" y="339" type="qcurve" smooth="yes"/>
      <point x="255" y="180" type="line" smooth="yes"/>
      <point x="261" y="160"/>
      <point x="279" y="157" type="qcurve"/>
      <point x="394" y="130"/>
      <point x="498" y="130" type="qcurve" smooth="yes"/>
      <point x="594" y="130"/>
      <point x="726" y="205"/>
      <point x="794" y="330"/>
      <point x="794" y="403" type="qcurve" smooth="yes"/>
      <point x="794" y="506"/>
      <point x="679" y="647"/>
      <point x="535" y="700" type="qcurve" smooth="yes"/>
      <point x="446" y="732"/>
      <point x="290" y="804"/>
      <point x="170" y="897"/>
      <point x="101" y="1026"/>
      <point x="101" y="1116" type="qcurve" smooth="yes"/>
      <point x="101" y="1247"/>
      <point x="221" y="1409"/>
      <point x="435" y="1483"/>
      <point x="578" y="1483" type="qcurve" smooth="yes"/>
      <point x="721" y="1483"/>
      <point x="910" y="1461" type="qcurve"/>
      <point x="910" y="1380"/>
      <point x="915" y="1288" type="qcurve"/>
      <point x="930" y="1053" type="line"/>
      <point x="805" y="1067" type="line" smooth="yes"/>
      <point x="789" y="1069"/>
      <point x="787" y="1082" type="qcurve"/>
      <point x="733" y="1312" type="line"/>
      <point x="731" y="1325"/>
      <point x="711" y="1327" type="qcurve" smooth="yes"/>
      <point x="637" y="1334"/>
      <point x="548" y="1334" type="qcurve" smooth="yes"/>
      <point x="452" y="1334"/>
      <point x="344" y="1269"/>
      <point x="300" y="1171"/>
      <point x="300" y="1122" type="qcurve" smooth="yes"/>
      <point x="300" y="1056"/>
      <point x="377" y="971"/>
      <point x="517" y="904"/>
      <point x="612" y="869" type="qcurve"/>
      <point x="628" y="862" type="line"/>
      <point x="813" y="792"/>
      <point x="1005" y="579"/>
      <point x="1005" y="419" type="qcurve" smooth="yes"/>
      <point x="1005" y="294"/>
      <point x="889" y="96"/>
      <point x="659" y="-20"/>
    </contour>
  </outline>
</glyph>
<glyph name="T" format="1">
  <advance width="1354"/>
  <unicode hex="0054"/>
  <outline>
    <contour>
      <point x="944" y="-17" type="line"/>
      <point x="852" y="-11"/>
      <point x="741" y="-6"/>
      <point x="651" y="-6" type="qcurve" smooth="yes"/>
      <point x="548" y="-6"/>
      <point x="439" y="-16" type="qcurve"/>
      <point x="418" y="-17" type="line"/>
      <point x="429" y="105" type="line" smooth="yes"/>
      <point x="430" y="117"/>
      <point x="444" y="118" type="qcurve"/>
      <point x="568" y="133" type="line"/>
      <point x="583" y="134"/>
      <point x="583" y="149" type="qcurve" smooth="yes"/>
      <point x="583" y="1310" type="line"/>
      <point x="477" y="1310"/>
      <point x="372" y="1302" type="qcurve"/>
      <point x="295" y="1298" type="line" smooth="yes"/>
      <point x="277" y="1297"/>
      <point x="274" y="1283" type="qcurve" smooth="yes"/>
      <point x="217" y="1000" type="line"/>
      <point x="213" y="987"/>
      <point x="199" y="985" type="qcurve" smooth="yes"/>
      <point x="99" y="974" type="line"/>
      <point x="99" y="1449" type="line"/>
      <point x="1263" y="1449" type="line"/>
      <point x="1263" y="974" type="line"/>
      <point x="1163" y="985" type="line" smooth="yes"/>
      <point x="1148" y="987"/>
      <point x="1146" y="1000" type="qcurve"/>
      <point x="1088" y="1283" type="line" smooth="yes"/>
      <point x="1085" y="1297"/>
      <point x="1067" y="1298" type="qcurve" smooth="yes"/>
      <point x="988" y="1302" type="line"/>
      <point x="885" y="1310"/>
      <point x="780" y="1310" type="qcurve"/>
      <point x="780" y="147" type="line" smooth="yes"/>
      <point x="780" y="134"/>
      <point x="794" y="133" type="qcurve"/>
      <point x="918" y="118" type="line"/>
      <point x="932" y="117"/>
      <point x="933" y="105" type="qcurve" smooth="yes"/>
    </contour>
  </outline>
</glyph>
<glyph name="U" format="1">
  <advance width="1457"/>
  <unicode hex="0055"/>
  <outline>
    <contour>
      <point x="731" y="-23" type="qcurve" smooth="yes"/>
      <point x="576" y="-23"/>
      <point x="460" y="26" type="qcurve" smooth="yes"/>
      <point x="206" y="134"/>
      <point x="206" y="526" type="qcurve"/>
      <point x="205" y="526" type="line"/>
      <point x="205" y="1292" type="line"/>
      <point x="204" y="1302"/>
      <point x="191" y="1304" type="qcurve" smooth="yes"/>
      <point x="67" y="1323" type="line"/>
      <point x="53" y="1324"/>
      <point x="52" y="1336" type="qcurve" smooth="yes"/>
      <point x="40" y="1449" type="line"/>
      <point x="567" y="1449" type="line"/>
      <point x="555" y="1336" type="line" smooth="yes"/>
      <point x="554" y="1324"/>
      <point x="541" y="1323" type="qcurve"/>
      <point x="416" y="1304" type="line"/>
      <point x="403" y="1301"/>
      <point x="402" y="1291" type="qcurve"/>
      <point x="402" y="433" type="line" smooth="yes"/>
      <point x="402" y="335"/>
      <point x="496" y="191"/>
      <point x="651" y="114"/>
      <point x="741" y="114" type="qcurve" smooth="yes"/>
      <point x="833" y="114"/>
      <point x="987" y="188"/>
      <point x="1080" y="331"/>
      <point x="1080" y="434" type="qcurve" smooth="yes"/>
      <point x="1080" y="1287" type="line"/>
      <point x="1079" y="1295"/>
      <point x="1073" y="1303"/>
      <point x="1065" y="1304" type="qcurve" smooth="yes"/>
      <point x="941" y="1323" type="line"/>
      <point x="927" y="1324"/>
      <point x="926" y="1336" type="qcurve" smooth="yes"/>
      <point x="915" y="1449" type="line"/>
      <point x="1382" y="1449" type="line"/>
      <point x="1370" y="1336" type="line" smooth="yes"/>
      <point x="1369" y="1324"/>
      <point x="1355" y="1323" type="qcurve"/>
      <point x="1231" y="1304" type="line" smooth="yes"/>
      <point x="1223" y="1303"/>
      <point x="1217" y="1295"/>
      <point x="1217" y="1287" type="qcurve" smooth="yes"/>
      <point x="1217" y="496" type="line" smooth="yes"/>
      <point x="1217" y="314"/>
      <point x="1102" y="85"/>
      <point x="885" y="-23"/>
    </contour>
  </outline>
</glyph>
<glyph name="V" format="1">
  <advance width="1585"/>
  <unicode hex="0056"/>
  <outline>
    <contour>
      <point x="873" y="0" type="line"/>
      <point x="719" y="0" type="line"/>
      <point x="720" y="4" type="line"/>
      <point x="520" y="520" type="line"/>
      <point x="218" y="1292" type="line" smooth="yes"/>
      <point x="212" y="1308"/>
      <point x="197" y="1310" type="qcurve" smooth="yes"/>
      <point x="72" y="1328" type="line"/>
      <point x="59" y="1329"/>
      <point x="55" y="1342" type="qcurve" smooth="yes"/>
      <point x="25" y="1454" type="line"/>
      <point x="603" y="1454" type="line"/>
      <point x="592" y="1342" type="line" smooth="yes"/>
      <point x="591" y="1329"/>
      <point x="577" y="1328" type="qcurve"/>
      <point x="453" y="1309" type="line" smooth="yes"/>
      <point x="439" y="1307"/>
      <point x="439" y="1297" type="qcurve"/>
      <point x="441" y="1290" type="line"/>
      <point x="823" y="274" type="line"/>
      <point x="1211" y="1290"/>
      <point x="1212" y="1295" type="qcurve"/>
      <point x="1212" y="1306"/>
      <point x="1198" y="1309" type="qcurve"/>
      <point x="1074" y="1328" type="line"/>
      <point x="1060" y="1329"/>
      <point x="1059" y="1342" type="qcurve" smooth="yes"/>
      <point x="1047" y="1454" type="line"/>
      <point x="1575" y="1454" type="line"/>
      <point x="1532" y="1342" type="line"/>
      <point x="1528" y="1329"/>
      <point x="1514" y="1328" type="qcurve"/>
      <point x="1384" y="1309" type="line" smooth="yes"/>
      <point x="1375" y="1308"/>
      <point x="1370" y="1303" type="qcurve"/>
    </contour>
  </outline>
</glyph>
<glyph name="W" format="1">
  <advance width="1958"/>
  <unicode hex="0057"/>
  <outline>
    <contour>
      <point x="1417" y="0" type="qcurve"/>
      <point x="1277" y="0" type="line"/>
      <point x="1000" y="918" type="line"/>
      <point x="740" y="0" type="line"/>
      <point x="599" y="0" type="line"/>
      <point x="235" y="1204" type="line"/>
      <point x="206" y="1288" type="line"/>
      <point x="200" y="1303"/>
      <point x="185" y="1305" type="qcurve" smooth="yes"/>
      <point x="61" y="1323" type="line"/>
      <point x="47" y="1324"/>
      <point x="45" y="1337" type="qcurve"/>
      <point x="19" y="1449" type="line"/>
      <point x="597" y="1449" type="line"/>
      <point x="581" y="1337" type="line"/>
      <point x="580" y="1324"/>
      <point x="566" y="1323" type="qcurve"/>
      <point x="441" y="1304" type="line"/>
      <point x="427" y="1303"/>
      <point x="427" y="1292" type="qcurve"/>
      <point x="438" y="1247"/>
      <point x="690" y="317" type="qcurve"/>
      <point x="927" y="1157" type="line"/>
      <point x="908" y="1220"/>
      <point x="900" y="1243" type="qcurve" smooth="yes"/>
      <point x="884" y="1288" type="line"/>
      <point x="880" y="1296"/>
      <point x="871" y="1304"/>
      <point x="863" y="1305" type="qcurve" smooth="yes"/>
      <point x="774" y="1323" type="line"/>
      <point x="760" y="1324"/>
      <point x="758" y="1337" type="qcurve"/>
      <point x="732" y="1449" type="line"/>
      <point x="1275" y="1449" type="line"/>
      <point x="1259" y="1337" type="line"/>
      <point x="1258" y="1324"/>
      <point x="1244" y="1323" type="qcurve"/>
      <point x="1119" y="1304" type="line"/>
      <point x="1105" y="1303"/>
      <point x="1105" y="1292" type="qcurve"/>
      <point x="1116" y="1245"/>
      <point x="1366" y="323" type="qcurve"/>
      <point x="1603" y="1190" type="line"/>
      <point x="1628" y="1289" type="line"/>
      <point x="1628" y="1302"/>
      <point x="1613" y="1304" type="qcurve" smooth="yes"/>
      <point x="1486" y="1323" type="line"/>
      <point x="1473" y="1324"/>
      <point x="1471" y="1337" type="qcurve" smooth="yes"/>
      <point x="1448" y="1449" type="line"/>
      <point x="1977" y="1449" type="line"/>
      <point x="1945" y="1337" type="line" smooth="yes"/>
      <point x="1941" y="1325"/>
      <point x="1928" y="1323" type="qcurve" smooth="yes"/>
      <point x="1800" y="1304" type="line"/>
      <point x="1785" y="1303"/>
      <point x="1783" y="1289" type="qcurve"/>
      <point x="1778" y="1275"/>
    </contour>
  </outline>
</glyph>
<glyph name="X" format="1">
  <advance width="1386"/>
  <unicode hex="0058"/>
  <outline>
    <contour>
      <point x="1386" y="-17" type="line"/>
      <point x="1233" y="-5"/>
      <point x="1098" y="-5" type="qcurve" smooth="yes"/>
      <point x="965" y="-5"/>
      <point x="811" y="-17" type="qcurve"/>
      <point x="821" y="105" type="line" smooth="yes"/>
      <point x="822" y="117"/>
      <point x="836" y="118" type="qcurve" smooth="yes"/>
      <point x="960" y="132" type="line" smooth="yes"/>
      <point x="966" y="133"/>
      <point x="975" y="142"/>
      <point x="975" y="147" type="qcurve" smooth="yes"/>
      <point x="975" y="150"/>
      <point x="973" y="154" type="qcurve" smooth="yes"/>
      <point x="653" y="644" type="line"/>
      <point x="325" y="154" type="line"/>
      <point x="324" y="149" type="line"/>
      <point x="324" y="143"/>
      <point x="331" y="133"/>
      <point x="338" y="132" type="qcurve" smooth="yes"/>
      <point x="462" y="118" type="line" smooth="yes"/>
      <point x="476" y="117"/>
      <point x="477" y="105" type="qcurve" smooth="yes"/>
      <point x="490" y="-17" type="line"/>
      <point x="362" y="-8"/>
      <point x="245" y="-6" type="qcurve"/>
      <point x="129" y="-8"/>
      <point x="0" y="-17" type="qcurve"/>
      <point x="11" y="105" type="line"/>
      <point x="11" y="117"/>
      <point x="25" y="118" type="qcurve"/>
      <point x="143" y="132" type="line" smooth="yes"/>
      <point x="157" y="134"/>
      <point x="167" y="148" type="qcurve" smooth="yes"/>
      <point x="577" y="759" type="line"/>
      <point x="247" y="1264"/>
      <point x="226" y="1292"/>
      <point x="213" y="1304"/>
      <point x="201" y="1305" type="qcurve"/>
      <point x="81" y="1323" type="line"/>
      <point x="68" y="1324"/>
      <point x="65" y="1337" type="qcurve" smooth="yes"/>
      <point x="33" y="1449" type="line"/>
      <point x="626" y="1449" type="line"/>
      <point x="615" y="1337" type="line"/>
      <point x="615" y="1324"/>
      <point x="601" y="1323" type="qcurve"/>
      <point x="473" y="1303" type="line" smooth="yes"/>
      <point x="461" y="1301"/>
      <point x="461" y="1293" type="qcurve" smooth="yes"/>
      <point x="461" y="1288"/>
      <point x="474" y="1270" type="qcurve" smooth="yes"/>
      <point x="479" y="1264"/>
      <point x="488" y="1247" type="qcurve" smooth="yes"/>
      <point x="490" y="1243"/>
      <point x="720" y="895" type="qcurve"/>
      <point x="977" y="1263"/>
      <point x="982" y="1269" type="qcurve" smooth="yes"/>
      <point x="985" y="1272"/>
      <point x="986" y="1276"/>
      <point x="992" y="1286"/>
      <point x="992" y="1290" type="qcurve" smooth="yes"/>
      <point x="992" y="1296"/>
      <point x="985" y="1303"/>
      <point x="979" y="1304" type="qcurve" smooth="yes"/>
      <point x="853" y="1323" type="line"/>
      <point x="839" y="1324"/>
      <point x="838" y="1337" type="qcurve" smooth="yes"/>
      <point x="825" y="1449" type="line"/>
      <point x="1359" y="1449" type="line"/>
      <point x="1315" y="1337" type="line"/>
      <point x="1311" y="1324"/>
      <point x="1297" y="1323" type="qcurve"/>
      <point x="1175" y="1305" type="line" smooth="yes"/>
      <point x="1161" y="1303"/>
      <point x="1151" y="1292" type="qcurve"/>
      <point x="795" y="782" type="line"/>
      <point x="1219" y="140"/>
      <point x="1225" y="134"/>
      <point x="1236" y="132" type="qcurve"/>
      <point x="1358" y="118" type="line" smooth="yes"/>
      <point x="1372" y="117"/>
      <point x="1373" y="105" type="qcurve" smooth="yes"/>
    </contour>
  </outline>
</glyph>
<glyph name="Z" format="1">
  <advance width="1147"/>
  <unicode hex="005A"/>
  <outline>
    <contour>
      <point x="1096" y="0" type="line"/>
      <point x="27" y="0" type="line"/>
      <point x="27" y="8" type="line"/>
      <point x="26" y="20"/>
      <point x="26" y="70" type="qcurve" smooth="yes"/>
      <point x="26" y="120" type="line"/>
      <point x="804" y="1307" type="line"/>
      <point x="621" y="1307" type="line" smooth="yes"/>
      <point x="528" y="1307"/>
      <point x="373" y="1297" type="qcurve" smooth="yes"/>
      <point x="283" y="1292" type="line" smooth="yes"/>
      <point x="264" y="1291"/>
      <point x="260" y="1276" type="qcurve" smooth="yes"/>
      <point x="212" y="1089" type="line" smooth="yes"/>
      <point x="208" y="1075"/>
      <point x="195" y="1074" type="qcurve"/>
      <point x="95" y="1061" type="line"/>
      <point x="95" y="1452" type="line"/>
      <point x="1075" y="1452" type="line"/>
      <point x="1075" y="1348" type="line"/>
      <point x="296" y="150" type="line"/>
      <point x="543" y="150" type="line"/>
      <point x="862" y="156" type="line"/>
      <point x="883" y="157"/>
      <point x="886" y="173" type="qcurve"/>
      <point x="963" y="433" type="line"/>
      <point x="964" y="440"/>
      <point x="973" y="447"/>
      <point x="983" y="449" type="qcurve"/>
      <point x="1096" y="463" type="line"/>
    </contour>
  </outline>
</glyph>
<glyph name="bracketleft" format="1">
  <advance width="618"/>
  <unicode hex="005B"/>
  <outline>
    <contour>
      <point x="468" y="-335" type="line"/>
      <point x="90" y="-335" type="line"/>
      <point x="90" y="1690" type="line"/>
      <point x="468" y="1690" type="line"/>
      <point x="460" y="1604" type="line" smooth="yes"/>
      <point x="459" y="1591"/>
      <point x="445" y="1590" type="qcurve" smooth="yes"/>
      <point x="278" y="1576" type="line" smooth="yes"/>
      <point x="264" y="1575"/>
      <point x="264" y="1561" type="qcurve" smooth="yes"/>
      <point x="264" y="-207" type="line" smooth="yes"/>
      <point x="264" y="-220"/>
      <point x="278" y="-221" type="qcurve" smooth="yes"/>
      <point x="445" y="-235" type="line" smooth="yes"/>
      <point x="459" y="-236"/>
      <point x="460" y="-249" type="qcurve" smooth="yes"/>
    </contour>
  </outline>
</glyph>
<glyph name="bracketright" format="1">
  <advance width="658"/>
  <unicode hex="005D"/>
  <outline>
    <contour>
      <point x="468" y="-335" type="line"/>
      <point x="90" y="-335" type="line"/>
      <point x="99" y="-249" type="line"/>
      <point x="99" y="-236"/>
      <point x="113" y="-235" type="qcurve" smooth="yes"/>
      <point x="280" y="-221" type="line" smooth="yes"/>
      <point x="294" y="-220"/>
      <point x="294" y="-207" type="qcurve" smooth="yes"/>
      <point x="294" y="1561" type="line" smooth="yes"/>
      <point x="294" y="1575"/>
      <point x="280" y="1576" type="qcurve" smooth="yes"/>
      <point x="113" y="1590" type="line" smooth="yes"/>
      <point x="99" y="1591"/>
      <point x="99" y="1604" type="qcurve"/>
      <point x="90" y="1690" type="line"/>
      <point x="468" y="1690" type="line"/>
    </contour>
  </outline>
</glyph>
<glyph name="underscore" format="1">
  <advance width="1024"/>
  <unicode hex="005F"/>
  <outline>
    <contour>
      <point x="0" y="-100" type="line"/>
      <point x="1024" y="-100" type="line"/>
      <point x="1024" y="-200" type="line"/>
      <point x="0" y="-200" type="line"/>
    </contour>
  </outline>
</glyph>
<glyph name="grave" format="1">
  <advance width="1024"/>
  <unicode hex="0060"/>
  <outline>
    <contour>
      <point x="549" y="1245" type="qcurve" smooth="yes"/>
      <point x="536" y="1245"/>
      <point x="525" y="1256" type="qcurve"/>
      <point x="243" y="1493" type="line"/>
      <point x="448" y="1571"/>
      <point x="452" y="1571" type="qcurve" smooth="yes"/>
      <point x="463" y="1571"/>
      <point x="471" y="1558" type="qcurve" smooth="yes"/>
      <point x="656" y="1284" type="line"/>
      <point x="566" y="1249" type="line" smooth="yes"/>
      <point x="556" y="1245"/>
    </contour>
  </outline>
</glyph>
<glyph name="b" format="1">
  <advance width="1249"/>
  <unicode hex="0062"/>
  <outline>
    <contour>
      <point x="736" y="-20" type="qcurve" smooth="yes"/>
      <point x="646" y="-20"/>
      <point x="507" y="46"/>
      <point x="419" y="157"/>
      <point x="405" y="227" type="qcurve"/>
      <point x="390" y="227" type="line"/>
      <point x="390" y="1" type="line"/>
      <point x="317" y="1" type="line" smooth="yes"/>
      <point x="192" y="1"/>
      <point x="64" y="-10" type="qcurve"/>
      <point x="74" y="103" type="line" smooth="yes"/>
      <point x="75" y="114"/>
      <point x="88" y="115" type="qcurve" smooth="yes"/>
      <point x="203" y="128" type="line" smooth="yes"/>
      <point x="216" y="129"/>
      <point x="216" y="143" type="qcurve" smooth="yes"/>
      <point x="216" y="1409" type="line" smooth="yes"/>
      <point x="216" y="1423"/>
      <point x="202" y="1424" type="qcurve"/>
      <point x="92" y="1438" type="line"/>
      <point x="78" y="1439"/>
      <point x="78" y="1452" type="qcurve"/>
      <point x="69" y="1538" type="line"/>
      <point x="390" y="1538" type="line"/>
      <point x="390" y="868" type="line"/>
      <point x="404" y="868" type="line"/>
      <point x="425" y="932"/>
      <point x="469" y="983" type="qcurve" smooth="yes"/>
      <point x="562" y="1093"/>
      <point x="731" y="1093" type="qcurve" smooth="yes"/>
      <point x="864" y="1093"/>
      <point x="1061" y="973"/>
      <point x="1168" y="725"/>
      <point x="1168" y="532" type="qcurve" smooth="yes"/>
      <point x="1168" y="367"/>
      <point x="1075" y="119"/>
      <point x="884" y="-20"/>
    </contour>
    <contour>
      <point x="691" y="115" type="qcurve" smooth="yes"/>
      <point x="837" y="115"/>
      <point x="970" y="321"/>
      <point x="970" y="533" type="qcurve" smooth="yes"/>
      <point x="970" y="740"/>
      <point x="839" y="956"/>
      <point x="687" y="956" type="qcurve" smooth="yes"/>
      <point x="553" y="956"/>
      <point x="408" y="734"/>
      <point x="408" y="533" type="qcurve" smooth="yes"/>
      <point x="408" y="340"/>
      <point x="560" y="115"/>
    </contour>
  </outline>
</glyph>
<glyph name="c" format="1">
  <advance width="1056"/>
  <unicode hex="0063"/>
  <outline>
    <contour>
      <point x="582" y="-20" type="qcurve" smooth="yes"/>
      <point x="79" y="-20"/>
      <point x="79" y="538" type="qcurve" smooth="yes"/>
      <point x="79" y="1088"/>
      <point x="577" y="1088" type="qcurve" smooth="yes"/>
      <point x="690" y="1088"/>
      <point x="893" y="1022"/>
      <point x="932" y="960" type="qcurve"/>
      <point x="933" y="951" type="line"/>
      <point x="933" y="707" type="line"/>
      <point x="827" y="726" type="line" smooth="yes"/>
      <point x="819" y="728"/>
      <point x="813" y="733"/>
      <point x="760" y="890" type="qcurve" smooth="yes"/>
      <point x="758" y="896"/>
      <point x="745" y="912"/>
      <point x="737" y="917" type="qcurve" smooth="yes"/>
      <point x="735" y="918" type="line" smooth="yes"/>
      <point x="668" y="959"/>
      <point x="577" y="959" type="qcurve" smooth="yes"/>
      <point x="436" y="959"/>
      <point x="274" y="751"/>
      <point x="274" y="538" type="qcurve" smooth="yes"/>
      <point x="274" y="325"/>
      <point x="445" y="104"/>
      <point x="594" y="104" type="qcurve" smooth="yes"/>
      <point x="750" y="104"/>
      <point x="825" y="216" type="qcurve" smooth="yes"/>
      <point x="876" y="292"/>
      <point x="886" y="382" type="qcurve"/>
      <point x="975" y="360" type="line"/>
      <point x="962" y="248"/>
      <point x="860" y="77"/>
      <point x="693" y="-20"/>
    </contour>
  </outline>
</glyph>
<glyph name="d" format="1">
  <advance width="1240"/>
  <unicode hex="0064"/>
  <outline>
    <contour>
      <point x="511" y="-20" type="qcurve" smooth="yes"/>
      <point x="364" y="-20"/>
      <point x="173" y="119"/>
      <point x="79" y="367"/>
      <point x="79" y="532" type="qcurve" smooth="yes"/>
      <point x="79" y="725"/>
      <point x="187" y="973"/>
      <point x="383" y="1093"/>
      <point x="516" y="1093" type="qcurve" smooth="yes"/>
      <point x="604" y="1093"/>
      <point x="735" y="1034"/>
      <point x="822" y="932"/>
      <point x="844" y="868" type="qcurve"/>
      <point x="858" y="868" type="line"/>
      <point x="858" y="1407" type="line" smooth="yes"/>
      <point x="858" y="1424"/>
      <point x="844" y="1424" type="qcurve"/>
      <point x="734" y="1438" type="line"/>
      <point x="721" y="1439"/>
      <point x="720" y="1452" type="qcurve" smooth="yes"/>
      <point x="711" y="1538" type="line"/>
      <point x="1032" y="1538" type="line"/>
      <point x="1032" y="131" type="line"/>
      <point x="1035" y="129"/>
      <point x="1155" y="115" type="qcurve" smooth="yes"/>
      <point x="1167" y="114"/>
      <point x="1168" y="103" type="qcurve" smooth="yes"/>
      <point x="1179" y="-10" type="line"/>
      <point x="1051" y="1"/>
      <point x="925" y="1" type="qcurve" smooth="yes"/>
      <point x="858" y="1" type="line"/>
      <point x="858" y="227" type="line"/>
      <point x="843" y="227" type="line"/>
      <point x="829" y="157"/>
      <point x="741" y="46"/>
      <point x="601" y="-20"/>
    </contour>
    <contour>
      <point x="557" y="115" type="qcurve" smooth="yes"/>
      <point x="687" y="115"/>
      <point x="840" y="340"/>
      <point x="840" y="533" type="qcurve" smooth="yes"/>
      <point x="840" y="734"/>
      <point x="694" y="956"/>
      <point x="560" y="956" type="qcurve" smooth="yes"/>
      <point x="409" y="956"/>
      <point x="278" y="740"/>
      <point x="278" y="533" type="qcurve" smooth="yes"/>
      <point x="278" y="321"/>
      <point x="411" y="115"/>
    </contour>
  </outline>
</glyph>
<glyph name="e" format="1">
  <advance width="1094"/>
  <unicode hex="0065"/>
  <outline>
    <contour>
      <point x="594" y="-20" type="qcurve" smooth="yes"/>
      <point x="433" y="-20"/>
      <point x="202" y="99"/>
      <point x="79" y="346"/>
      <point x="79" y="538" type="qcurve" smooth="yes"/>
      <point x="79" y="704"/>
      <point x="178" y="951"/>
      <point x="393" y="1087"/>
      <point x="565" y="1088" type="qcurve"/>
      <point x="1013" y="1085"/>
      <point x="1013" y="523" type="qcurve"/>
      <point x="274" y="523" type="line"/>
      <point x="278" y="317"/>
      <point x="447" y="104"/>
      <point x="593" y="104" type="qcurve" smooth="yes"/>
      <point x="745" y="104"/>
      <point x="826" y="178" type="qcurve" smooth="yes"/>
      <point x="887" y="234"/>
      <point x="910" y="319" type="qcurve"/>
      <point x="1006" y="319" type="line"/>
      <point x="987" y="218"/>
      <point x="882" y="66"/>
      <point x="712" y="-20"/>
    </contour>
    <contour>
      <point x="814" y="629" type="line"/>
      <point x="810" y="708"/>
      <point x="772" y="859"/>
      <point x="660" y="957"/>
      <point x="544" y="958" type="qcurve"/>
      <point x="444" y="955"/>
      <point x="335" y="856"/>
      <point x="289" y="708"/>
      <point x="281" y="629" type="qcurve"/>
    </contour>
  </outline>
</glyph>
<glyph name="f" format="1">
  <advance width="783"/>
  <unicode hex="0066"/>
  <outline>
    <contour>
      <point x="569" y="-16" type="line"/>
      <point x="450" y="-5"/>
      <point x="318" y="-5" type="qcurve" smooth="yes"/>
      <point x="200" y="-5"/>
      <point x="76" y="-16" type="qcurve"/>
      <point x="87" y="96" type="line" smooth="yes"/>
      <point x="88" y="108"/>
      <point x="100" y="109" type="qcurve" smooth="yes"/>
      <point x="215" y="122" type="line"/>
      <point x="228" y="122"/>
      <point x="228" y="137" type="qcurve" smooth="yes"/>
      <point x="228" y="944" type="line"/>
      <point x="77" y="944" type="line"/>
      <point x="77" y="1061" type="line"/>
      <point x="228" y="1061" type="line"/>
      <point x="228" y="1279" type="line" smooth="yes"/>
      <point x="228" y="1427"/>
      <point x="369" y="1571"/>
      <point x="523" y="1571" type="qcurve" smooth="yes"/>
      <point x="568" y="1571"/>
      <point x="675" y="1548"/>
      <point x="712" y="1525" type="qcurve"/>
      <point x="657" y="1391" type="line"/>
      <point x="644" y="1398"/>
      <point x="633" y="1405" type="qcurve" smooth="yes"/>
      <point x="613" y="1418"/>
      <point x="567" y="1437"/>
      <point x="532" y="1437" type="qcurve"/>
      <point x="479" y="1435"/>
      <point x="417" y="1364"/>
      <point x="417" y="1300" type="qcurve" smooth="yes"/>
      <point x="417" y="1061" type="line"/>
      <point x="622" y="1061" type="line"/>
      <point x="622" y="944" type="line"/>
      <point x="417" y="944" type="line"/>
      <point x="417" y="137" type="line"/>
      <point x="418" y="130"/>
      <point x="423" y="123"/>
      <point x="430" y="122" type="qcurve" smooth="yes"/>
      <point x="545" y="109" type="line" smooth="yes"/>
      <point x="558" y="108"/>
      <point x="558" y="96" type="qcurve"/>
    </contour>
  </outline>
</glyph>
<glyph name="g" format="1">
  <advance width="1083"/>
  <unicode hex="0067"/>
  <outline>
    <contour>
      <point x="480" y="-486" type="qcurve" smooth="yes"/>
      <point x="276" y="-486"/>
      <point x="28" y="-338"/>
      <point x="28" y="-205" type="qcurve" smooth="yes"/>
      <point x="28" y="-151"/>
      <point x="71" y="-63"/>
      <point x="133" y="4"/>
      <point x="165" y="25" type="qcurve"/>
      <point x="110" y="32"/>
      <point x="35" y="110"/>
      <point x="35" y="173" type="qcurve"/>
      <point x="41" y="244"/>
      <point x="154" y="383"/>
      <point x="215" y="425" type="qcurve"/>
      <point x="156" y="471"/>
      <point x="84" y="617"/>
      <point x="84" y="719" type="qcurve" smooth="yes"/>
      <point x="84" y="846"/>
      <point x="186" y="1010"/>
      <point x="373" y="1090"/>
      <point x="499" y="1090" type="qcurve" smooth="yes"/>
      <point x="974" y="1090" type="line"/>
      <point x="966" y="1014" type="line"/>
      <point x="966" y="1006"/>
      <point x="957" y="1005" type="qcurve" smooth="yes"/>
      <point x="836" y="991" type="line"/>
      <point x="774" y="1015" type="line"/>
      <point x="769" y="1004" type="line"/>
      <point x="775" y="1001" type="line" smooth="yes"/>
      <point x="795" y="994"/>
      <point x="830" y="971"/>
      <point x="849" y="945" type="qcurve" smooth="yes"/>
      <point x="920" y="845"/>
      <point x="920" y="719" type="qcurve" smooth="yes"/>
      <point x="920" y="590"/>
      <point x="815" y="425"/>
      <point x="626" y="345"/>
      <point x="499" y="345" type="qcurve" smooth="yes"/>
      <point x="433" y="345"/>
      <point x="344" y="358"/>
      <point x="303" y="376" type="qcurve"/>
      <point x="261" y="352"/>
      <point x="188" y="275"/>
      <point x="186" y="229" type="qcurve"/>
      <point x="186" y="196"/>
      <point x="233" y="165"/>
      <point x="270" y="165" type="qcurve" smooth="yes"/>
      <point x="673" y="165" type="line" smooth="yes"/>
      <point x="841" y="165"/>
      <point x="935" y="110" type="qcurve"/>
      <point x="1052" y="44"/>
      <point x="1052" y="-119" type="qcurve" smooth="yes"/>
      <point x="1052" y="-183"/>
      <point x="972" y="-314"/>
      <point x="822" y="-421"/>
      <point x="611" y="-486"/>
    </contour>
    <contour>
      <point x="499" y="433" type="qcurve" smooth="yes"/>
      <point x="607" y="433"/>
      <point x="721" y="579"/>
      <point x="721" y="719" type="qcurve" smooth="yes"/>
      <point x="721" y="863"/>
      <point x="600" y="1002"/>
      <point x="499" y="1002" type="qcurve" smooth="yes"/>
      <point x="397" y="1002"/>
      <point x="279" y="863"/>
      <point x="279" y="719" type="qcurve" smooth="yes"/>
      <point x="279" y="433"/>
    </contour>
    <contour>
      <point x="518" y="-366" type="qcurve" smooth="yes"/>
      <point x="640" y="-366"/>
      <point x="821" y="-309"/>
      <point x="922" y="-219"/>
      <point x="922" y="-169" type="qcurve" smooth="yes"/>
      <point x="922" y="-110"/>
      <point x="846" y="-40"/>
      <point x="738" y="-9"/>
      <point x="692" y="-9" type="qcurve" smooth="yes"/>
      <point x="295" y="-9" type="line"/>
      <point x="284" y="-16" type="line" smooth="yes"/>
      <point x="266" y="-27"/>
      <point x="215" y="-66"/>
      <point x="176" y="-131"/>
      <point x="176" y="-179" type="qcurve" smooth="yes"/>
      <point x="176" y="-246"/>
      <point x="274" y="-328"/>
      <point x="430" y="-366"/>
    </contour>
  </outline>
</glyph>
<glyph name="h" format="1">
  <advance width="1338"/>
  <unicode hex="0068"/>
  <outline>
    <contour>
      <point x="1277" y="-16" type="line"/>
      <point x="1149" y="-7"/>
      <point x="1038" y="-6" type="qcurve"/>
      <point x="927" y="-7"/>
      <point x="798" y="-16" type="qcurve"/>
      <point x="809" y="96" type="line" smooth="yes"/>
      <point x="810" y="108"/>
      <point x="823" y="108" type="qcurve"/>
      <point x="938" y="122" type="line" smooth="yes"/>
      <point x="951" y="123"/>
      <point x="951" y="137" type="qcurve" smooth="yes"/>
      <point x="951" y="729" type="line" smooth="yes"/>
      <point x="951" y="816"/>
      <point x="844" y="927"/>
      <point x="732" y="927" type="qcurve" smooth="yes"/>
      <point x="660" y="927"/>
      <point x="541" y="875"/>
      <point x="497" y="832" type="qcurve" smooth="yes"/>
      <point x="406" y="741"/>
      <point x="406" y="606" type="qcurve" smooth="yes"/>
      <point x="406" y="135" type="line" smooth="yes"/>
      <point x="406" y="123"/>
      <point x="419" y="122" type="qcurve" smooth="yes"/>
      <point x="534" y="108" type="line"/>
      <point x="546" y="108"/>
      <point x="547" y="96" type="qcurve" smooth="yes"/>
      <point x="558" y="-16" type="line"/>
      <point x="430" y="-7"/>
      <point x="318" y="-6" type="qcurve"/>
      <point x="207" y="-7"/>
      <point x="79" y="-16" type="qcurve"/>
      <point x="90" y="96" type="line" smooth="yes"/>
      <point x="91" y="108"/>
      <point x="103" y="108" type="qcurve"/>
      <point x="218" y="122" type="line"/>
      <point x="231" y="122"/>
      <point x="231" y="137" type="qcurve" smooth="yes"/>
      <point x="231" y="1402" type="line" smooth="yes"/>
      <point x="231" y="1418"/>
      <point x="217" y="1418" type="qcurve"/>
      <point x="108" y="1432" type="line"/>
      <point x="94" y="1433"/>
      <point x="93" y="1446" type="qcurve" smooth="yes"/>
      <point x="85" y="1532" type="line"/>
      <point x="406" y="1532" type="line"/>
      <point x="406" y="862" type="line"/>
      <point x="420" y="862" type="line"/>
      <point x="432" y="915"/>
      <point x="519" y="1018"/>
      <point x="663" y="1088"/>
      <point x="761" y="1088" type="qcurve" smooth="yes"/>
      <point x="949" y="1088"/>
      <point x="1125" y="918"/>
      <point x="1125" y="742" type="qcurve" smooth="yes"/>
      <point x="1125" y="135" type="line" smooth="yes"/>
      <point x="1125" y="123"/>
      <point x="1138" y="122" type="qcurve" smooth="yes"/>
      <point x="1253" y="108" type="line"/>
      <point x="1266" y="108"/>
      <point x="1266" y="96" type="qcurve"/>
    </contour>
  </outline>
</glyph>
<glyph name="i" format="1">
  <advance width="613"/>
  <unicode hex="0069"/>
  <outline>
    <contour>
      <point x="557" y="-17" type="line"/>
      <point x="429" y="-8"/>
      <point x="318" y="-7" type="qcurve"/>
      <point x="207" y="-8"/>
      <point x="79" y="-17" type="qcurve"/>
      <point x="89" y="95" type="line" smooth="yes"/>
      <point x="90" y="107"/>
      <point x="103" y="107" type="qcurve"/>
      <point x="218" y="121" type="line"/>
      <point x="231" y="121"/>
      <point x="231" y="136" type="qcurve" smooth="yes"/>
      <point x="231" y="929" type="line" smooth="yes"/>
      <point x="231" y="945"/>
      <point x="217" y="946" type="qcurve"/>
      <point x="107" y="960" type="line"/>
      <point x="93" y="961"/>
      <point x="93" y="973" type="qcurve"/>
      <point x="84" y="1059" type="line"/>
      <point x="405" y="1059" type="line"/>
      <point x="405" y="132" type="line"/>
      <point x="406" y="122"/>
      <point x="418" y="121" type="qcurve" smooth="yes"/>
      <point x="533" y="107" type="line"/>
      <point x="546" y="107"/>
      <point x="547" y="95" type="qcurve" smooth="yes"/>
    </contour>
    <contour>
      <point x="304" y="1272" type="line" smooth="yes"/>
      <point x="419" y="1272"/>
      <point x="419" y="1406" type="qcurve" smooth="yes"/>
      <point x="419" y="1531"/>
      <point x="304" y="1531" type="qcurve" smooth="yes"/>
      <point x="192" y="1531"/>
      <point x="192" y="1410" type="qcurve" smooth="yes"/>
      <point x="192" y="1406" type="line" smooth="yes"/>
      <point x="192" y="1272"/>
      <point x="301" y="1272" type="qcurve" smooth="yes"/>
    </contour>
  </outline>
</glyph>
<glyph name="j" format="1">
  <advance width="640"/>
  <unicode hex="006A"/>
  <outline>
    <contour>
      <point x="338" y="1275" type="qcurve" smooth="yes"/>
      <point x="229" y="1275"/>
      <point x="229" y="1403" type="qcurve" smooth="yes"/>
      <point x="229" y="1527"/>
      <point x="331" y="1527" type="qcurve" smooth="yes"/>
      <point x="338" y="1527" type="line" smooth="yes"/>
      <point x="450" y="1527"/>
      <point x="450" y="1405" type="qcurve" smooth="yes"/>
      <point x="450" y="1275"/>
    </contour>
    <contour>
      <point x="-30" y="-405" type="qcurve"/>
      <point x="-30" y="-280" type="line"/>
      <point x="139" y="-280"/>
      <point x="203" y="-184" type="qcurve" smooth="yes"/>
      <point x="258" y="-101"/>
      <point x="258" y="61" type="qcurve"/>
      <point x="257" y="113" type="line"/>
      <point x="257" y="934" type="line" smooth="yes"/>
      <point x="257" y="947"/>
      <point x="243" y="948" type="qcurve"/>
      <point x="136" y="962" type="line"/>
      <point x="123" y="963"/>
      <point x="122" y="975" type="qcurve" smooth="yes"/>
      <point x="114" y="1059" type="line"/>
      <point x="436" y="1059" type="line"/>
      <point x="436" y="91" type="line" smooth="yes"/>
      <point x="436" y="-63"/>
      <point x="389" y="-173" type="qcurve" smooth="yes"/>
      <point x="291" y="-401"/>
    </contour>
  </outline>
</glyph>
<glyph name="k" format="1">
  <advance width="1169"/>
  <unicode hex="006B"/>
  <outline>
    <contour>
      <point x="1132" y="-16" type="line"/>
      <point x="964" y="-5"/>
      <point x="861" y="-5" type="qcurve"/>
      <point x="482" y="527" type="line"/>
      <point x="391" y="432" type="line"/>
      <point x="391" y="132" type="line"/>
      <point x="392" y="123"/>
      <point x="403" y="122" type="qcurve" smooth="yes"/>
      <point x="518" y="109" type="line" smooth="yes"/>
      <point x="531" y="108"/>
      <point x="532" y="96" type="qcurve" smooth="yes"/>
      <point x="542" y="-16" type="line"/>
      <point x="416" y="-5"/>
      <point x="303" y="-5" type="qcurve"/>
      <point x="192" y="-7"/>
      <point x="64" y="-16" type="qcurve"/>
      <point x="75" y="96" type="line" smooth="yes"/>
      <point x="76" y="108"/>
      <point x="88" y="109" type="qcurve" smooth="yes"/>
      <point x="203" y="122" type="line"/>
      <point x="216" y="122"/>
      <point x="216" y="137" type="qcurve" smooth="yes"/>
      <point x="216" y="1402" type="line" smooth="yes"/>
      <point x="216" y="1417"/>
      <point x="202" y="1418" type="qcurve"/>
      <point x="93" y="1432" type="line"/>
      <point x="79" y="1433"/>
      <point x="78" y="1446" type="qcurve" smooth="yes"/>
      <point x="70" y="1532" type="line"/>
      <point x="390" y="1532" type="line"/>
      <point x="390" y="583" type="line"/>
      <point x="553" y="748" type="line"/>
      <point x="732" y="927" type="line" smooth="yes"/>
      <point x="735" y="931"/>
      <point x="735" y="935" type="qcurve" smooth="yes"/>
      <point x="735" y="945"/>
      <point x="722" y="948" type="qcurve"/>
      <point x="623" y="961" type="line"/>
      <point x="609" y="961"/>
      <point x="609" y="974" type="qcurve"/>
      <point x="600" y="1060" type="line"/>
      <point x="1043" y="1060" type="line"/>
      <point x="1034" y="974" type="line" smooth="yes"/>
      <point x="1033" y="962"/>
      <point x="1020" y="961" type="qcurve"/>
      <point x="903" y="945"/>
      <point x="893" y="939"/>
      <point x="617" y="660" type="qcurve" smooth="yes"/>
      <point x="611" y="654"/>
      <point x="611" y="648" type="qcurve" smooth="yes"/>
      <point x="611" y="643"/>
      <point x="615" y="637" type="qcurve" smooth="yes"/>
      <point x="974" y="138" type="line"/>
      <point x="974" y="136"/>
      <point x="976" y="135" type="qcurve"/>
      <point x="984" y="123"/>
      <point x="994" y="122" type="qcurve" smooth="yes"/>
      <point x="1108" y="109" type="line" smooth="yes"/>
      <point x="1121" y="108"/>
      <point x="1121" y="96" type="qcurve"/>
    </contour>
  </outline>
</glyph>
<glyph name="l" format="1">
  <advance width="603"/>
  <unicode hex="006C"/>
  <outline>
    <contour>
      <point x="552" y="-17" type="line"/>
      <point x="424" y="-7"/>
      <point x="313" y="-6" type="qcurve"/>
      <point x="189" y="-7"/>
      <point x="64" y="-17" type="qcurve"/>
      <point x="75" y="95" type="line"/>
      <point x="75" y="107"/>
      <point x="88" y="108" type="qcurve" smooth="yes"/>
      <point x="203" y="121" type="line" smooth="yes"/>
      <point x="216" y="122"/>
      <point x="216" y="134" type="qcurve" smooth="yes"/>
      <point x="216" y="1403" type="line" smooth="yes"/>
      <point x="216" y="1416"/>
      <point x="202" y="1417" type="qcurve"/>
      <point x="92" y="1431" type="line"/>
      <point x="78" y="1432"/>
      <point x="78" y="1445" type="qcurve"/>
      <point x="69" y="1531" type="line"/>
      <point x="400" y="1531" type="line"/>
      <point x="400" y="136" type="line" smooth="yes"/>
      <point x="400" y="121"/>
      <point x="413" y="121" type="qcurve"/>
      <point x="528" y="108" type="line" smooth="yes"/>
      <point x="541" y="107"/>
      <point x="541" y="95" type="qcurve"/>
    </contour>
  </outline>
</glyph>
<glyph name="m" format="1">
  <advance width="1918"/>
  <unicode hex="006D"/>
  <outline>
    <contour>
      <point x="1857" y="-17" type="line"/>
      <point x="1729" y="-7"/>
      <point x="1618" y="-6" type="qcurve"/>
      <point x="1507" y="-7"/>
      <point x="1379" y="-17" type="qcurve"/>
      <point x="1389" y="95" type="line" smooth="yes"/>
      <point x="1390" y="107"/>
      <point x="1403" y="108" type="qcurve" smooth="yes"/>
      <point x="1518" y="121" type="line" smooth="yes"/>
      <point x="1531" y="122"/>
      <point x="1531" y="134" type="qcurve" smooth="yes"/>
      <point x="1531" y="728" type="line" smooth="yes"/>
      <point x="1531" y="815"/>
      <point x="1433" y="926"/>
      <point x="1335" y="926" type="qcurve" smooth="yes"/>
      <point x="1274" y="926"/>
      <point x="1173" y="879"/>
      <point x="1100" y="801"/>
      <point x="1054" y="660"/>
      <point x="1054" y="563" type="qcurve" smooth="yes"/>
      <point x="1054" y="136" type="line" smooth="yes"/>
      <point x="1054" y="123"/>
      <point x="1067" y="121" type="qcurve" smooth="yes"/>
      <point x="1182" y="108" type="line" smooth="yes"/>
      <point x="1195" y="107"/>
      <point x="1195" y="95" type="qcurve"/>
      <point x="1206" y="-17" type="line"/>
      <point x="1078" y="-7"/>
      <point x="967" y="-6" type="qcurve"/>
      <point x="856" y="-7"/>
      <point x="728" y="-17" type="qcurve"/>
      <point x="739" y="95" type="line"/>
      <point x="739" y="107"/>
      <point x="752" y="108" type="qcurve" smooth="yes"/>
      <point x="867" y="121" type="line" smooth="yes"/>
      <point x="880" y="122"/>
      <point x="880" y="134" type="qcurve" smooth="yes"/>
      <point x="880" y="728" type="line" smooth="yes"/>
      <point x="880" y="815"/>
      <point x="791" y="926"/>
      <point x="693" y="926" type="qcurve" smooth="yes"/>
      <point x="632" y="926"/>
      <point x="531" y="879"/>
      <point x="457" y="801"/>
      <point x="405" y="660"/>
      <point x="405" y="563" type="qcurve" smooth="yes"/>
      <point x="405" y="136" type="line" smooth="yes"/>
      <point x="405" y="122"/>
      <point x="418" y="121" type="qcurve" smooth="yes"/>
      <point x="533" y="108" type="line" smooth="yes"/>
      <point x="546" y="107"/>
      <point x="547" y="95" type="qcurve" smooth="yes"/>
      <point x="557" y="-17" type="line"/>
      <point x="429" y="-7"/>
      <point x="318" y="-6" type="qcurve"/>
      <point x="207" y="-7"/>
      <point x="79" y="-17" type="qcurve"/>
      <point x="90" y="95" type="line"/>
      <point x="90" y="107"/>
      <point x="103" y="108" type="qcurve" smooth="yes"/>
      <point x="218" y="121" type="line" smooth="yes"/>
      <point x="231" y="122"/>
      <point x="231" y="134" type="qcurve" smooth="yes"/>
      <point x="231" y="946" type="line"/>
      <point x="128" y="960" type="line"/>
      <point x="115" y="961"/>
      <point x="114" y="973" type="qcurve" smooth="yes"/>
      <point x="105" y="1059" type="line"/>
      <point x="405" y="1059" type="line"/>
      <point x="405" y="861" type="line"/>
      <point x="418" y="861" type="line"/>
      <point x="429" y="914"/>
      <point x="505" y="1017"/>
      <point x="632" y="1087"/>
      <point x="718" y="1087" type="qcurve" smooth="yes"/>
      <point x="988" y="1087"/>
      <point x="1042" y="861" type="qcurve"/>
      <point x="1055" y="861" type="line"/>
      <point x="1066" y="914"/>
      <point x="1144" y="1017"/>
      <point x="1274" y="1087"/>
      <point x="1360" y="1087" type="qcurve" smooth="yes"/>
      <point x="1525" y="1087"/>
      <point x="1705" y="917"/>
      <point x="1705" y="741" type="qcurve" smooth="yes"/>
      <point x="1705" y="134" type="line" smooth="yes"/>
      <point x="1705" y="122"/>
      <point x="1718" y="121" type="qcurve" smooth="yes"/>
      <point x="1833" y="108" type="line" smooth="yes"/>
      <point x="1846" y="107"/>
      <point x="1846" y="95" type="qcurve"/>
    </contour>
  </outline>
</glyph>
<glyph name="n" format="1">
  <advance width="1332"/>
  <unicode hex="006E"/>
  <outline>
    <contour>
      <point x="1277" y="-17" type="line"/>
      <point x="1149" y="-7"/>
      <point x="1037" y="-6" type="qcurve"/>
      <point x="926" y="-7"/>
      <point x="798" y="-17" type="qcurve"/>
      <point x="809" y="95" type="line" smooth="yes"/>
      <point x="810" y="107"/>
      <point x="823" y="108" type="qcurve" smooth="yes"/>
      <point x="937" y="121" type="line" smooth="yes"/>
      <point x="945" y="122"/>
      <point x="950" y="129"/>
      <point x="950" y="136" type="qcurve"/>
      <point x="951" y="728" type="line"/>
      <point x="951" y="815"/>
      <point x="844" y="926"/>
      <point x="732" y="926" type="qcurve" smooth="yes"/>
      <point x="643" y="926"/>
      <point x="494" y="827"/>
      <point x="406" y="679"/>
      <point x="406" y="605" type="qcurve" smooth="yes"/>
      <point x="406" y="136" type="line" smooth="yes"/>
      <point x="406" y="122"/>
      <point x="419" y="121" type="qcurve" smooth="yes"/>
      <point x="534" y="108" type="line" smooth="yes"/>
      <point x="546" y="107"/>
      <point x="547" y="95" type="qcurve" smooth="yes"/>
      <point x="558" y="-17" type="line"/>
      <point x="430" y="-7"/>
      <point x="319" y="-6" type="qcurve"/>
      <point x="207" y="-7"/>
      <point x="79" y="-17" type="qcurve"/>
      <point x="90" y="95" type="line" smooth="yes"/>
      <point x="91" y="107"/>
      <point x="104" y="108" type="qcurve" smooth="yes"/>
      <point x="219" y="121" type="line" smooth="yes"/>
      <point x="232" y="122"/>
      <point x="232" y="136" type="qcurve" smooth="yes"/>
      <point x="232" y="929" type="line" smooth="yes"/>
      <point x="232" y="944"/>
      <point x="217" y="946" type="qcurve" smooth="yes"/>
      <point x="108" y="960" type="line"/>
      <point x="94" y="961"/>
      <point x="93" y="973" type="qcurve" smooth="yes"/>
      <point x="85" y="1059" type="line"/>
      <point x="406" y="1059" type="line"/>
      <point x="406" y="861" type="line"/>
      <point x="420" y="861" type="line"/>
      <point x="432" y="914"/>
      <point x="519" y="1017"/>
      <point x="663" y="1087"/>
      <point x="761" y="1087" type="qcurve" smooth="yes"/>
      <point x="949" y="1087"/>
      <point x="1125" y="917"/>
      <point x="1125" y="741" type="qcurve" smooth="yes"/>
      <point x="1125" y="134" type="line" smooth="yes"/>
      <point x="1125" y="122"/>
      <point x="1138" y="121" type="qcurve" smooth="yes"/>
      <point x="1253" y="108" type="line" smooth="yes"/>
      <point x="1265" y="107"/>
      <point x="1266" y="95" type="qcurve" smooth="yes"/>
    </contour>
  </outline>
</glyph>
<glyph name="o" format="1">
  <advance width="1142"/>
  <unicode hex="006F"/>
  <outline>
    <contour>
      <point x="570" y="-20" type="qcurve" smooth="yes"/>
      <point x="816" y="-20"/>
      <point x="1061" y="250"/>
      <point x="1061" y="538" type="qcurve" smooth="yes"/>
      <point x="1061" y="821"/>
      <point x="816" y="1090"/>
      <point x="570" y="1090" type="qcurve" smooth="yes"/>
      <point x="326" y="1090"/>
      <point x="79" y="821"/>
      <point x="79" y="538" type="qcurve" smooth="yes"/>
      <point x="79" y="250"/>
      <point x="326" y="-20"/>
    </contour>
    <contour>
      <point x="570" y="113" type="qcurve" smooth="yes"/>
      <point x="414" y="113"/>
      <point x="265" y="325"/>
      <point x="265" y="538" type="qcurve" smooth="yes"/>
      <point x="265" y="752"/>
      <point x="421" y="962"/>
      <point x="570" y="962" type="qcurve" smooth="yes"/>
      <point x="717" y="962"/>
      <point x="880" y="752"/>
      <point x="880" y="538" type="qcurve" smooth="yes"/>
      <point x="880" y="113"/>
    </contour>
  </outline>
</glyph>
<glyph name="p" format="1">
  <advance width="1223"/>
  <unicode hex="0070"/>
  <outline>
    <contour>
      <point x="541" y="-461" type="line"/>
      <point x="414" y="-451"/>
      <point x="303" y="-450" type="qcurve"/>
      <point x="192" y="-451"/>
      <point x="64" y="-461" type="qcurve"/>
      <point x="74" y="-349" type="line" smooth="yes"/>
      <point x="75" y="-338"/>
      <point x="88" y="-337" type="qcurve" smooth="yes"/>
      <point x="202" y="-324" type="line" smooth="yes"/>
      <point x="215" y="-323"/>
      <point x="215" y="-309" type="qcurve" smooth="yes"/>
      <point x="215" y="105"/>
      <point x="211" y="532" type="qcurve"/>
      <point x="214" y="931" type="line"/>
      <point x="214" y="944"/>
      <point x="200" y="945" type="qcurve"/>
      <point x="92" y="959" type="line"/>
      <point x="78" y="960"/>
      <point x="77" y="973" type="qcurve" smooth="yes"/>
      <point x="69" y="1058" type="line"/>
      <point x="385" y="1058" type="line"/>
      <point x="385" y="861" type="line"/>
      <point x="405" y="861" type="line"/>
      <point x="432" y="958"/>
      <point x="601" y="1085"/>
      <point x="729" y="1085" type="qcurve" smooth="yes"/>
      <point x="875" y="1085"/>
      <point x="1065" y="947"/>
      <point x="1158" y="701"/>
      <point x="1158" y="538" type="qcurve" smooth="yes"/>
      <point x="1158" y="346"/>
      <point x="1051" y="99"/>
      <point x="856" y="-19"/>
      <point x="724" y="-19" type="qcurve" smooth="yes"/>
      <point x="637" y="-19"/>
      <point x="573" y="11" type="qcurve" smooth="yes"/>
      <point x="450" y="67"/>
      <point x="405" y="204" type="qcurve"/>
      <point x="391" y="204" type="line"/>
      <point x="391" y="-309" type="line" smooth="yes"/>
      <point x="391" y="-322"/>
      <point x="403" y="-324" type="qcurve"/>
      <point x="517" y="-337" type="line" smooth="yes"/>
      <point x="530" y="-338"/>
      <point x="531" y="-349" type="qcurve" smooth="yes"/>
    </contour>
    <contour>
      <point x="680" y="109" type="qcurve" smooth="yes"/>
      <point x="816" y="109"/>
      <point x="960" y="331"/>
      <point x="960" y="536" type="qcurve" smooth="yes"/>
      <point x="960" y="747"/>
      <point x="811" y="946"/>
      <point x="684" y="946" type="qcurve" smooth="yes"/>
      <point x="554" y="946"/>
      <point x="403" y="727"/>
      <point x="403" y="536" type="qcurve" smooth="yes"/>
      <point x="403" y="336"/>
      <point x="547" y="109"/>
    </contour>
  </outline>
</glyph>
<glyph name="q" format="1">
  <advance width="1228"/>
  <unicode hex="0071"/>
  <outline>
    <contour>
      <point x="1175" y="-462" type="line"/>
      <point x="1051" y="-453"/>
      <point x="945" y="-451" type="qcurve"/>
      <point x="848" y="-451" type="line"/>
      <point x="848" y="204" type="line"/>
      <point x="833" y="204" type="line"/>
      <point x="812" y="140"/>
      <point x="728" y="39"/>
      <point x="601" y="-20"/>
      <point x="514" y="-20" type="qcurve" smooth="yes"/>
      <point x="381" y="-20"/>
      <point x="186" y="99"/>
      <point x="79" y="346"/>
      <point x="79" y="539" type="qcurve" smooth="yes"/>
      <point x="79" y="702"/>
      <point x="172" y="949"/>
      <point x="362" y="1087"/>
      <point x="508" y="1087" type="qcurve" smooth="yes"/>
      <point x="636" y="1087"/>
      <point x="806" y="960"/>
      <point x="833" y="863" type="qcurve"/>
      <point x="853" y="863" type="line"/>
      <point x="853" y="1060" type="line"/>
      <point x="1170" y="1060" type="line"/>
      <point x="1161" y="974" type="line"/>
      <point x="1161" y="962"/>
      <point x="1147" y="961" type="qcurve"/>
      <point x="1038" y="947" type="line"/>
      <point x="1024" y="946"/>
      <point x="1024" y="933" type="qcurve"/>
      <point x="1027" y="533" type="line"/>
      <point x="1024" y="195"/>
      <point x="1024" y="-141" type="qcurve" smooth="yes"/>
      <point x="1024" y="-311" type="line" smooth="yes"/>
      <point x="1024" y="-323"/>
      <point x="1037" y="-325" type="qcurve" smooth="yes"/>
      <point x="1151" y="-338" type="line" smooth="yes"/>
      <point x="1163" y="-339"/>
      <point x="1164" y="-350" type="qcurve" smooth="yes"/>
    </contour>
    <contour>
      <point x="557" y="109" type="qcurve" smooth="yes"/>
      <point x="690" y="109"/>
      <point x="835" y="337"/>
      <point x="835" y="537" type="qcurve" smooth="yes"/>
      <point x="835" y="729"/>
      <point x="683" y="948"/>
      <point x="554" y="948" type="qcurve" smooth="yes"/>
      <point x="426" y="948"/>
      <point x="277" y="748"/>
      <point x="277" y="537" type="qcurve" smooth="yes"/>
      <point x="277" y="332"/>
      <point x="422" y="109"/>
    </contour>
  </outline>
</glyph>
<glyph name="r" format="1">
  <advance width="909"/>
  <unicode hex="0072"/>
  <outline>
    <contour>
      <point x="542" y="-17" type="line"/>
      <point x="414" y="-8"/>
      <point x="303" y="-7" type="qcurve"/>
      <point x="192" y="-8"/>
      <point x="64" y="-17" type="qcurve"/>
      <point x="74" y="95" type="line" smooth="yes"/>
      <point x="75" y="106"/>
      <point x="88" y="107" type="qcurve" smooth="yes"/>
      <point x="203" y="121" type="line"/>
      <point x="216" y="121"/>
      <point x="216" y="136" type="qcurve" smooth="yes"/>
      <point x="216" y="928" type="line" smooth="yes"/>
      <point x="216" y="944"/>
      <point x="202" y="945" type="qcurve"/>
      <point x="92" y="959" type="line"/>
      <point x="78" y="960"/>
      <point x="78" y="972" type="qcurve"/>
      <point x="69" y="1059" type="line"/>
      <point x="390" y="1059" type="line"/>
      <point x="390" y="860" type="line"/>
      <point x="407" y="860" type="line"/>
      <point x="426" y="926"/>
      <point x="493" y="1027"/>
      <point x="600" y="1085"/>
      <point x="679" y="1085" type="qcurve" smooth="yes"/>
      <point x="789" y="1085"/>
      <point x="848" y="1049" type="qcurve"/>
      <point x="848" y="724" type="line"/>
      <point x="749" y="736" type="line"/>
      <point x="735" y="737"/>
      <point x="733" y="749" type="qcurve"/>
      <point x="685" y="888" type="line"/>
      <point x="680" y="908"/>
      <point x="654" y="918"/>
      <point x="638" y="918" type="qcurve" smooth="yes"/>
      <point x="567" y="918"/>
      <point x="472" y="844"/>
      <point x="415" y="727"/>
      <point x="389" y="594"/>
      <point x="389" y="533" type="qcurve"/>
      <point x="390" y="136" type="line"/>
      <point x="390" y="122"/>
      <point x="403" y="121" type="qcurve" smooth="yes"/>
      <point x="518" y="107" type="line" smooth="yes"/>
      <point x="531" y="106"/>
      <point x="531" y="95" type="qcurve"/>
    </contour>
  </outline>
</glyph>
<glyph name="s" format="1">
  <advance width="961"/>
  <unicode hex="0073"/>
  <outline>
    <contour>
      <point x="452" y="-20" type="qcurve" smooth="yes"/>
      <point x="660" y="-20"/>
      <point x="873" y="155"/>
      <point x="873" y="307" type="qcurve" smooth="yes"/>
      <point x="873" y="438"/>
      <point x="715" y="594"/>
      <point x="569" y="645" type="qcurve" smooth="yes"/>
      <point x="504" y="667" type="line" smooth="yes"/>
      <point x="442" y="687"/>
      <point x="344" y="729"/>
      <point x="285" y="789"/>
      <point x="285" y="837" type="qcurve" smooth="yes"/>
      <point x="285" y="912"/>
      <point x="403" y="983"/>
      <point x="493" y="983" type="qcurve" smooth="yes"/>
      <point x="532" y="983"/>
      <point x="592" y="957"/>
      <point x="610" y="944" type="qcurve" smooth="yes"/>
      <point x="627" y="931" type="line" smooth="yes"/>
      <point x="635" y="926"/>
      <point x="649" y="910"/>
      <point x="651" y="904" type="qcurve" smooth="yes"/>
      <point x="692" y="790" type="line" smooth="yes"/>
      <point x="694" y="784"/>
      <point x="701" y="778"/>
      <point x="710" y="777" type="qcurve" smooth="yes"/>
      <point x="810" y="765" type="line"/>
      <point x="810" y="968" type="line"/>
      <point x="764" y="1031"/>
      <point x="591" y="1092"/>
      <point x="506" y="1092" type="qcurve" smooth="yes"/>
      <point x="377" y="1092"/>
      <point x="201" y="1035"/>
      <point x="111" y="908"/>
      <point x="111" y="802" type="qcurve" smooth="yes"/>
      <point x="111" y="724"/>
      <point x="193" y="614"/>
      <point x="347" y="530"/>
      <point x="571" y="455"/>
      <point x="697" y="358"/>
      <point x="697" y="289" type="qcurve" smooth="yes"/>
      <point x="697" y="206"/>
      <point x="558" y="95"/>
      <point x="446" y="95" type="qcurve" smooth="yes"/>
      <point x="424" y="95"/>
      <point x="384" y="102" type="qcurve" smooth="yes"/>
      <point x="282" y="118"/>
      <point x="257" y="165" type="qcurve"/>
      <point x="204" y="273"/>
      <point x="199" y="277"/>
      <point x="99" y="296" type="qcurve"/>
      <point x="99" y="95" type="line"/>
      <point x="100" y="95" type="line"/>
      <point x="131" y="68"/>
      <point x="223" y="16"/>
      <point x="358" y="-20"/>
    </contour>
  </outline>
</glyph>
<glyph name="t" format="1">
  <advance width="812"/>
  <unicode hex="0074"/>
  <outline>
    <contour>
      <point x="468" y="-20" type="qcurve" smooth="yes"/>
      <point x="186" y="-20"/>
      <point x="182" y="305" type="qcurve"/>
      <point x="182" y="945" type="line"/>
      <point x="14" y="945" type="line"/>
      <point x="14" y="1059" type="line"/>
      <point x="182" y="1059" type="line"/>
      <point x="182" y="1376" type="line"/>
      <point x="357" y="1440" type="line"/>
      <point x="357" y="1059" type="line"/>
      <point x="680" y="1059" type="line"/>
      <point x="680" y="945" type="line"/>
      <point x="357" y="945" type="line"/>
      <point x="359" y="278" type="line"/>
      <point x="359" y="201"/>
      <point x="470" y="121"/>
      <point x="564" y="121" type="qcurve" smooth="yes"/>
      <point x="595" y="121"/>
      <point x="687" y="146"/>
      <point x="723" y="162" type="qcurve"/>
      <point x="756" y="45" type="line"/>
      <point x="650" y="-20"/>
    </contour>
  </outline>
</glyph>
<glyph name="v" format="1">
  <advance width="1215"/>
  <unicode hex="0076"/>
  <outline>
    <contour>
      <point x="664" y="0" type="qcurve"/>
      <point x="522" y="0" type="line"/>
      <point x="132" y="930" type="line" smooth="yes"/>
      <point x="128" y="940"/>
      <point x="119" y="947"/>
      <point x="111" y="947" type="qcurve"/>
      <point x="8" y="960" type="line"/>
      <point x="-6" y="961"/>
      <point x="-6" y="974" type="qcurve"/>
      <point x="-15" y="1059" type="line"/>
      <point x="468" y="1059" type="line"/>
      <point x="460" y="974" type="line" smooth="yes"/>
      <point x="459" y="961"/>
      <point x="445" y="960" type="qcurve"/>
      <point x="335" y="946" type="line" smooth="yes"/>
      <point x="329" y="945"/>
      <point x="322" y="936"/>
      <point x="322" y="931" type="qcurve"/>
      <point x="323" y="926"/>
      <point x="617" y="224" type="qcurve"/>
      <point x="905" y="930"/>
      <point x="906" y="935" type="qcurve"/>
      <point x="906" y="945"/>
      <point x="892" y="946" type="qcurve"/>
      <point x="782" y="960" type="line"/>
      <point x="769" y="961"/>
      <point x="768" y="974" type="qcurve" smooth="yes"/>
      <point x="759" y="1059" type="line"/>
      <point x="1190" y="1059" type="line"/>
      <point x="1181" y="974" type="line"/>
      <point x="1181" y="961"/>
      <point x="1167" y="960" type="qcurve"/>
      <point x="1061" y="947" type="line"/>
      <point x="1054" y="945"/>
      <point x="1046" y="938"/>
    </contour>
  </outline>
</glyph>
<glyph name="w" format="1">
  <advance width="1777"/>
  <unicode hex="0077"/>
  <outline>
    <contour>
      <point x="1318" y="0" type="line"/>
      <point x="1140" y="0" type="line"/>
      <point x="882" y="725" type="line"/>
      <point x="653" y="0" type="line"/>
      <point x="475" y="0" type="line"/>
      <point x="143" y="930" type="line" smooth="yes"/>
      <point x="140" y="939"/>
      <point x="131" y="946"/>
      <point x="15" y="961"/>
      <point x="9" y="967"/>
      <point x="8" y="974" type="qcurve"/>
      <point x="5" y="1059" type="line"/>
      <point x="488" y="1059" type="line"/>
      <point x="474" y="974" type="line"/>
      <point x="473" y="962"/>
      <point x="459" y="961" type="qcurve"/>
      <point x="348" y="946" type="line" smooth="yes"/>
      <point x="334" y="944"/>
      <point x="334" y="930" type="qcurve" smooth="yes"/>
      <point x="334" y="926"/>
      <point x="585" y="222" type="qcurve"/>
      <point x="809" y="930" type="line"/>
      <point x="806" y="939"/>
      <point x="797" y="946"/>
      <point x="680" y="961"/>
      <point x="674" y="967"/>
      <point x="673" y="974" type="qcurve"/>
      <point x="670" y="1059" type="line"/>
      <point x="1153" y="1059" type="line"/>
      <point x="1139" y="974" type="line"/>
      <point x="1138" y="962"/>
      <point x="1124" y="961" type="qcurve"/>
      <point x="1014" y="946" type="line" smooth="yes"/>
      <point x="1000" y="944"/>
      <point x="1000" y="930" type="qcurve" smooth="yes"/>
      <point x="1000" y="926"/>
      <point x="1251" y="222" type="qcurve"/>
      <point x="1364" y="580" type="line"/>
      <point x="1363" y="579" type="line"/>
      <point x="1474" y="930" type="line"/>
      <point x="1474" y="933" type="line" smooth="yes"/>
      <point x="1474" y="945"/>
      <point x="1459" y="946" type="qcurve"/>
      <point x="1348" y="961" type="line"/>
      <point x="1335" y="961"/>
      <point x="1333" y="974" type="qcurve" smooth="yes"/>
      <point x="1316" y="1059" type="line"/>
      <point x="1747" y="1059" type="line"/>
      <point x="1746" y="974" type="line"/>
      <point x="1746" y="967"/>
      <point x="1740" y="961"/>
      <point x="1733" y="961" type="qcurve"/>
      <point x="1628" y="947" type="line" smooth="yes"/>
      <point x="1616" y="945"/>
      <point x="1612" y="930" type="qcurve"/>
    </contour>
  </outline>
</glyph>
<glyph name="x" format="1">
  <advance width="1227"/>
  <unicode hex="0078"/>
  <outline>
    <contour>
      <point x="1186" y="-17" type="line"/>
      <point x="1054" y="-8"/>
      <point x="938" y="-8" type="qcurve" smooth="yes"/>
      <point x="823" y="-8"/>
      <point x="686" y="-17" type="qcurve"/>
      <point x="695" y="76" type="line" smooth="yes"/>
      <point x="696" y="87"/>
      <point x="708" y="87" type="qcurve"/>
      <point x="799" y="100" type="line"/>
      <point x="807" y="100"/>
      <point x="807" y="111" type="qcurve" smooth="yes"/>
      <point x="807" y="120"/>
      <point x="797" y="141" type="qcurve"/>
      <point x="753" y="211" type="line"/>
      <point x="589" y="446" type="line"/>
      <point x="469" y="275" type="line" smooth="yes"/>
      <point x="434" y="224"/>
      <point x="382" y="142" type="qcurve" smooth="yes"/>
      <point x="369" y="123" type="line"/>
      <point x="366" y="115"/>
      <point x="366" y="110" type="qcurve" smooth="yes"/>
      <point x="366" y="100"/>
      <point x="379" y="98" type="qcurve"/>
      <point x="487" y="87" type="line"/>
      <point x="499" y="87"/>
      <point x="500" y="76" type="qcurve" smooth="yes"/>
      <point x="510" y="-17" type="line"/>
      <point x="387" y="-9"/>
      <point x="274" y="-8" type="qcurve"/>
      <point x="175" y="-9"/>
      <point x="64" y="-17" type="qcurve"/>
      <point x="75" y="76" type="line"/>
      <point x="75" y="81"/>
      <point x="80" y="86"/>
      <point x="187" y="100" type="qcurve" smooth="yes"/>
      <point x="194" y="101"/>
      <point x="207" y="108"/>
      <point x="216" y="120" type="qcurve" smooth="yes"/>
      <point x="450" y="428" type="line"/>
      <point x="527" y="537" type="line"/>
      <point x="253" y="917" type="line"/>
      <point x="240" y="933"/>
      <point x="222" y="943"/>
      <point x="209" y="944" type="qcurve" smooth="yes"/>
      <point x="126" y="954" type="line" smooth="yes"/>
      <point x="119" y="955"/>
      <point x="114" y="959"/>
      <point x="103" y="1059" type="qcurve"/>
      <point x="597" y="1059" type="line"/>
      <point x="586" y="959"/>
      <point x="581" y="955"/>
      <point x="575" y="954" type="qcurve" smooth="yes"/>
      <point x="479" y="941"/>
      <point x="475" y="938"/>
      <point x="475" y="936" type="qcurve"/>
      <point x="475" y="933"/>
      <point x="660" y="644" type="qcurve"/>
      <point x="848" y="919" type="line" smooth="yes"/>
      <point x="852" y="926"/>
      <point x="852" y="931" type="qcurve" smooth="yes"/>
      <point x="852" y="943"/>
      <point x="839" y="943" type="qcurve"/>
      <point x="729" y="954" type="line"/>
      <point x="718" y="954"/>
      <point x="717" y="966" type="qcurve" smooth="yes"/>
      <point x="707" y="1059" type="line"/>
      <point x="1144" y="1059" type="line"/>
      <point x="1135" y="966" type="line"/>
      <point x="1135" y="956"/>
      <point x="1122" y="954" type="qcurve" smooth="yes"/>
      <point x="1020" y="941" type="line"/>
      <point x="1008" y="941"/>
      <point x="993" y="921" type="qcurve" smooth="yes"/>
      <point x="722" y="553" type="line"/>
      <point x="822" y="411" type="line"/>
      <point x="842" y="386" type="line" smooth="yes"/>
      <point x="861" y="360"/>
      <point x="918" y="285"/>
      <point x="977" y="205"/>
      <point x="1023" y="141"/>
      <point x="1049" y="110"/>
      <point x="1067" y="99"/>
      <point x="1079" y="97" type="qcurve" smooth="yes"/>
      <point x="1163" y="87" type="line"/>
      <point x="1174" y="87"/>
      <point x="1175" y="76" type="qcurve" smooth="yes"/>
    </contour>
  </outline>
</glyph>
<glyph name="y" format="1">
  <advance width="1251"/>
  <unicode hex="0079"/>
  <outline>
    <contour>
      <point x="287" y="-453" type="qcurve" smooth="yes"/>
      <point x="215" y="-453"/>
      <point x="136" y="-430" type="qcurve"/>
      <point x="189" y="-292" type="line"/>
      <point x="213" y="-303"/>
      <point x="292" y="-314"/>
      <point x="314" y="-314" type="qcurve" smooth="yes"/>
      <point x="368" y="-314"/>
      <point x="452" y="-250"/>
      <point x="471" y="-204" type="qcurve" smooth="yes"/>
      <point x="552" y="-7" type="line"/>
      <point x="533" y="-7" type="line"/>
      <point x="137" y="929" type="line" smooth="yes"/>
      <point x="133" y="938"/>
      <point x="124" y="946"/>
      <point x="116" y="947" type="qcurve" smooth="yes"/>
      <point x="13" y="960" type="line"/>
      <point x="-1" y="961"/>
      <point x="-1" y="973" type="qcurve"/>
      <point x="-10" y="1060" type="line"/>
      <point x="494" y="1060" type="line"/>
      <point x="485" y="973" type="line" smooth="yes"/>
      <point x="484" y="961"/>
      <point x="471" y="960" type="qcurve"/>
      <point x="361" y="946" type="line" smooth="yes"/>
      <point x="348" y="944"/>
      <point x="348" y="931" type="qcurve"/>
      <point x="349" y="926"/>
      <point x="643" y="226" type="qcurve"/>
      <point x="918" y="929"/>
      <point x="919" y="935" type="qcurve"/>
      <point x="919" y="945"/>
      <point x="905" y="946" type="qcurve"/>
      <point x="795" y="960" type="line"/>
      <point x="782" y="961"/>
      <point x="781" y="973" type="qcurve" smooth="yes"/>
      <point x="772" y="1060" type="line"/>
      <point x="1216" y="1060" type="line"/>
      <point x="1207" y="973" type="line" smooth="yes"/>
      <point x="1206" y="961"/>
      <point x="1193" y="960" type="qcurve"/>
      <point x="1087" y="946" type="line" smooth="yes"/>
      <point x="1075" y="944"/>
      <point x="1069" y="931" type="qcurve"/>
      <point x="689" y="-7" type="line"/>
      <point x="690" y="-7" type="line"/>
      <point x="599" y="-229" type="line"/>
      <point x="546" y="-344"/>
      <point x="409" y="-453"/>
    </contour>
  </outline>
</glyph>
<glyph name="z" format="1">
  <advance width="1040"/>
  <unicode hex="007A"/>
  <outline>
    <contour>
      <point x="959" y="0" type="line"/>
      <point x="79" y="0" type="line"/>
      <point x="79" y="96" type="line"/>
      <point x="658" y="943" type="line"/>
      <point x="563" y="943" type="line" smooth="yes"/>
      <point x="396" y="943"/>
      <point x="263" y="933" type="qcurve" smooth="yes"/>
      <point x="249" y="932"/>
      <point x="247" y="921" type="qcurve"/>
      <point x="212" y="789" type="line" smooth="yes"/>
      <point x="210" y="780"/>
      <point x="200" y="779" type="qcurve" smooth="yes"/>
      <point x="118" y="768" type="line"/>
      <point x="118" y="1060" type="line"/>
      <point x="913" y="1060" type="line"/>
      <point x="913" y="986" type="line"/>
      <point x="314" y="123" type="line"/>
      <point x="547" y="123" type="line" smooth="yes"/>
      <point x="604" y="123"/>
      <point x="699" y="129" type="qcurve" smooth="yes"/>
      <point x="794" y="134" type="line" smooth="yes"/>
      <point x="809" y="135"/>
      <point x="813" y="146" type="qcurve"/>
      <point x="867" y="342" type="line"/>
      <point x="869" y="352"/>
      <point x="881" y="353" type="qcurve"/>
      <point x="959" y="364" type="line"/>
    </contour>
  </outline>
</glyph>
<glyph name="braceleft" format="1">
  <advance width="778"/>
  <unicode hex="007B"/>
  <outline>
    <contour>
      <point x="624" y="-335" type="line"/>
      <point x="600" y="-331" type="line" smooth="yes"/>
      <point x="491" y="-313"/>
      <point x="385" y="-272"/>
      <point x="364" y="-218" type="qcurve" smooth="yes"/>
      <point x="349" y="-178"/>
      <point x="349" y="8" type="qcurve" smooth="yes"/>
      <point x="349" y="84"/>
      <point x="352" y="255"/>
      <point x="352" y="333" type="qcurve" smooth="yes"/>
      <point x="352" y="530"/>
      <point x="336" y="573" type="qcurve"/>
      <point x="313" y="630"/>
      <point x="197" y="656" type="qcurve"/>
      <point x="203" y="687" type="line"/>
      <point x="197" y="718" type="line"/>
      <point x="313" y="744"/>
      <point x="336" y="802" type="qcurve" smooth="yes"/>
      <point x="352" y="845"/>
      <point x="352" y="1042" type="qcurve" smooth="yes"/>
      <point x="352" y="1120"/>
      <point x="349" y="1291"/>
      <point x="349" y="1367" type="qcurve" smooth="yes"/>
      <point x="349" y="1553"/>
      <point x="364" y="1593" type="qcurve" smooth="yes"/>
      <point x="386" y="1648"/>
      <point x="492" y="1688"/>
      <point x="602" y="1705" type="qcurve" smooth="yes"/>
      <point x="624" y="1709" type="line"/>
      <point x="650" y="1636" type="line"/>
      <point x="590" y="1623"/>
      <point x="534" y="1587"/>
      <point x="517" y="1542"/>
      <point x="512" y="1431"/>
      <point x="512" y="1357" type="qcurve" smooth="yes"/>
      <point x="512" y="1279"/>
      <point x="515" y="1099"/>
      <point x="515" y="1019" type="qcurve" smooth="yes"/>
      <point x="515" y="838"/>
      <point x="500" y="799" type="qcurve"/>
      <point x="477" y="744"/>
      <point x="379" y="697"/>
      <point x="302" y="687" type="qcurve"/>
      <point x="379" y="677"/>
      <point x="477" y="630"/>
      <point x="500" y="576" type="qcurve"/>
      <point x="515" y="537"/>
      <point x="515" y="356" type="qcurve" smooth="yes"/>
      <point x="515" y="275"/>
      <point x="512" y="95"/>
      <point x="512" y="17" type="qcurve" smooth="yes"/>
      <point x="512" y="-57"/>
      <point x="517" y="-167"/>
      <point x="534" y="-212"/>
      <point x="590" y="-248"/>
      <point x="650" y="-262" type="qcurve"/>
    </contour>
  </outline>
</glyph>
<glyph name="bar" format="1">
  <advance width="1014"/>
  <unicode hex="007C"/>
  <outline>
    <contour>
      <point x="427" y="1577" type="line"/>
      <point x="587" y="1577" type="line"/>
      <point x="587" y="-418" type="line"/>
      <point x="427" y="-418" type="line"/>
    </contour>
  </outline>
</glyph>
<glyph name="braceright" format="1">
  <advance width="778"/>
  <unicode hex="007D"/>
  <outline>
    <contour>
      <point x="223" y="-335" type="line"/>
      <point x="197" y="-262" type="line"/>
      <point x="257" y="-248"/>
      <point x="313" y="-212"/>
      <point x="330" y="-167"/>
      <point x="335" y="-57"/>
      <point x="335" y="17" type="qcurve" smooth="yes"/>
      <point x="335" y="95"/>
      <point x="332" y="275"/>
      <point x="332" y="356" type="qcurve" smooth="yes"/>
      <point x="332" y="537"/>
      <point x="347" y="576" type="qcurve"/>
      <point x="370" y="630"/>
      <point x="468" y="677"/>
      <point x="545" y="687" type="qcurve"/>
      <point x="468" y="697"/>
      <point x="370" y="744"/>
      <point x="347" y="799" type="qcurve"/>
      <point x="332" y="838"/>
      <point x="332" y="1019" type="qcurve" smooth="yes"/>
      <point x="332" y="1099"/>
      <point x="335" y="1279"/>
      <point x="335" y="1357" type="qcurve" smooth="yes"/>
      <point x="335" y="1431"/>
      <point x="330" y="1542"/>
      <point x="313" y="1587"/>
      <point x="257" y="1623"/>
      <point x="197" y="1636" type="qcurve"/>
      <point x="223" y="1709" type="line"/>
      <point x="245" y="1705" type="line" smooth="yes"/>
      <point x="355" y="1688"/>
      <point x="461" y="1648"/>
      <point x="483" y="1593" type="qcurve" smooth="yes"/>
      <point x="498" y="1553"/>
      <point x="498" y="1367" type="qcurve" smooth="yes"/>
      <point x="498" y="1291"/>
      <point x="495" y="1120"/>
      <point x="495" y="1042" type="qcurve" smooth="yes"/>
      <point x="495" y="845"/>
      <point x="511" y="802" type="qcurve" smooth="yes"/>
      <point x="534" y="744"/>
      <point x="650" y="718" type="qcurve"/>
      <point x="644" y="687" type="line"/>
      <point x="650" y="656" type="line"/>
      <point x="534" y="630"/>
      <point x="511" y="573" type="qcurve"/>
      <point x="495" y="530"/>
      <point x="495" y="333" type="qcurve" smooth="yes"/>
      <point x="495" y="255"/>
      <point x="498" y="84"/>
      <point x="498" y="8" type="qcurve" smooth="yes"/>
      <point x="498" y="-178"/>
      <point x="483" y="-218" type="qcurve" smooth="yes"/>
      <point x="462" y="-272"/>
      <point x="356" y="-313"/>
      <point x="247" y="-331" type="qcurve" smooth="yes"/>
    </contour>
  </outline>
</glyph>
<glyph name="asciitilde" format="1">
  <advance width="1014"/>
  <unicode hex="007E"/>
  <outline>
    <contour>
      <point x="923" y="878" type="qcurve"/>
      <point x="923" y="722" type="line"/>
      <point x="860" y="650"/>
      <point x="742" y="599"/>
      <point x="685" y="599" type="qcurve" smooth="yes"/>
      <point x="625" y="599"/>
      <point x="390" y="696"/>
      <point x="331" y="696" type="qcurve" smooth="yes"/>
      <point x="280" y="696"/>
      <point x="167" y="640"/>
      <point x="94" y="556" type="qcurve"/>
      <point x="94" y="712" type="line"/>
      <point x="158" y="785"/>
      <point x="276" y="837"/>
      <point x="331" y="837" type="qcurve" smooth="yes"/>
      <point x="395" y="837"/>
      <point x="630" y="738"/>
      <point x="685" y="738" type="qcurve" smooth="yes"/>
      <point x="737" y="738"/>
      <point x="850" y="794"/>
    </contour>
  </outline>
</glyph>
<glyph name="exclamdown" format="1">
  <advance width="676"/>
  <unicode hex="00A1"/>
  <outline>
    <contour>
      <point x="286" y="941" type="qcurve" smooth="yes"/>
      <point x="410" y="941"/>
      <point x="410" y="1082" type="qcurve" smooth="yes"/>
      <point x="410" y="1087" type="line" smooth="yes"/>
      <point x="410" y="1225"/>
      <point x="293" y="1225" type="qcurve" smooth="yes"/>
      <point x="286" y="1225" type="line" smooth="yes"/>
      <point x="161" y="1225"/>
      <point x="161" y="1087" type="qcurve" smooth="yes"/>
      <point x="161" y="1014"/>
      <point x="226" y="941"/>
    </contour>
    <contour>
      <point x="414" y="-422" type="qcurve"/>
      <point x="165" y="-422" type="line"/>
      <point x="195" y="-166"/>
      <point x="209" y="144" type="qcurve" smooth="yes"/>
      <point x="215" y="284"/>
      <point x="215" y="411" type="qcurve" smooth="yes"/>
      <point x="215" y="565"/>
      <point x="206" y="701" type="qcurve"/>
      <point x="372" y="701" type="line"/>
      <point x="359" y="560"/>
      <point x="359" y="396" type="qcurve" smooth="yes"/>
      <point x="359" y="277"/>
      <point x="383" y="-168"/>
    </contour>
  </outline>
</glyph>
<glyph name="currency" format="1">
  <advance width="1014"/>
  <unicode hex="00A4"/>
  <outline>
    <contour>
      <point x="350" y="560" type="qcurve" smooth="yes"/>
      <point x="391" y="520"/>
      <point x="449" y="503" type="qcurve" smooth="yes"/>
      <point x="478" y="495"/>
      <point x="507" y="495" type="qcurve" smooth="yes"/>
      <point x="536" y="495"/>
      <point x="565" y="503" type="qcurve" smooth="yes"/>
      <point x="623" y="520"/>
      <point x="664" y="560" type="qcurve" smooth="yes"/>
      <point x="704" y="601"/>
      <point x="721" y="659" type="qcurve" smooth="yes"/>
      <point x="730" y="688"/>
      <point x="730" y="717" type="qcurve" smooth="yes"/>
      <point x="730" y="746"/>
      <point x="721" y="775" type="qcurve" smooth="yes"/>
      <point x="704" y="833"/>
      <point x="664" y="874" type="qcurve" smooth="yes"/>
      <point x="623" y="914"/>
      <point x="564" y="931" type="qcurve" smooth="yes"/>
      <point x="535" y="939"/>
      <point x="506" y="939" type="qcurve" smooth="yes"/>
      <point x="477" y="939"/>
      <point x="448" y="930" type="qcurve" smooth="yes"/>
      <point x="390" y="913"/>
      <point x="350" y="874" type="qcurve" smooth="yes"/>
      <point x="311" y="834"/>
      <point x="294" y="776" type="qcurve"/>
      <point x="284" y="746"/>
      <point x="284" y="716" type="qcurve" smooth="yes"/>
      <point x="284" y="688"/>
      <point x="293" y="660" type="qcurve"/>
      <point x="309" y="601"/>
    </contour>
    <contour>
      <point x="240" y="903" type="qcurve"/>
      <point x="122" y="1021" type="line"/>
      <point x="202" y="1102" type="line"/>
      <point x="320" y="984" type="line"/>
      <point x="364" y="1014"/>
      <point x="419" y="1030" type="qcurve"/>
      <point x="463" y="1044"/>
      <point x="508" y="1044" type="qcurve" smooth="yes"/>
      <point x="549" y="1044"/>
      <point x="591" y="1032" type="qcurve" smooth="yes"/>
      <point x="648" y="1015"/>
      <point x="693" y="984" type="qcurve"/>
      <point x="811" y="1102" type="line"/>
      <point x="891" y="1021" type="line"/>
      <point x="774" y="904" type="line"/>
      <point x="805" y="858"/>
      <point x="822" y="802" type="qcurve" smooth="yes"/>
      <point x="834" y="760"/>
      <point x="834" y="717" type="qcurve" smooth="yes"/>
      <point x="834" y="675"/>
      <point x="822" y="632" type="qcurve" smooth="yes"/>
      <point x="805" y="576"/>
      <point x="774" y="530" type="qcurve"/>
      <point x="891" y="413" type="line"/>
      <point x="811" y="332" type="line"/>
      <point x="693" y="450" type="line"/>
      <point x="648" y="418"/>
      <point x="592" y="402" type="qcurve" smooth="yes"/>
      <point x="550" y="390"/>
      <point x="507" y="390" type="qcurve" smooth="yes"/>
      <point x="465" y="390"/>
      <point x="422" y="402" type="qcurve" smooth="yes"/>
      <point x="365" y="418"/>
      <point x="320" y="450" type="qcurve"/>
      <point x="202" y="332" type="line"/>
      <point x="122" y="413" type="line"/>
      <point x="240" y="530" type="line"/>
      <point x="208" y="576"/>
      <point x="192" y="633" type="qcurve" smooth="yes"/>
      <point x="180" y="675"/>
      <point x="180" y="717" type="qcurve" smooth="yes"/>
      <point x="180" y="761"/>
      <point x="193" y="804" type="qcurve" smooth="yes"/>
      <point x="209" y="859"/>
    </contour>
  </outline>
</glyph>
<glyph name="section" format="1">
  <advance width="1014"/>
  <unicode hex="00A7"/>
  <outline>
    <contour>
      <point x="545" y="321" type="qcurve"/>
      <point x="601" y="337"/>
      <point x="642" y="374" type="qcurve" smooth="yes"/>
      <point x="715" y="439"/>
      <point x="715" y="540" type="qcurve" smooth="yes"/>
      <point x="715" y="545"/>
      <point x="714" y="550" type="qcurve"/>
      <point x="712" y="550" type="line"/>
      <point x="711" y="564"/>
      <point x="708" y="577" type="qcurve"/>
      <point x="686" y="638"/>
      <point x="595" y="704" type="qcurve"/>
      <point x="536" y="733"/>
      <point x="469" y="733" type="qcurve" smooth="yes"/>
      <point x="391" y="733"/>
      <point x="297" y="644"/>
      <point x="297" y="571" type="qcurve" smooth="yes"/>
      <point x="297" y="448"/>
    </contour>
    <contour>
      <point x="466" y="-346" type="qcurve"/>
      <point x="579" y="-340"/>
      <point x="651" y="-277" type="qcurve" smooth="yes"/>
      <point x="723" y="-213"/>
      <point x="723" y="-112" type="qcurve" smooth="yes"/>
      <point x="723" y="13"/>
      <point x="407" y="164" type="qcurve"/>
      <point x="284" y="228"/>
      <point x="179" y="374"/>
      <point x="179" y="478" type="qcurve" smooth="yes"/>
      <point x="179" y="626"/>
      <point x="268" y="715" type="qcurve"/>
      <point x="335" y="780"/>
      <point x="438" y="797" type="qcurve"/>
      <point x="398" y="816" type="line"/>
      <point x="275" y="880"/>
      <point x="170" y="1026"/>
      <point x="170" y="1130" type="qcurve" smooth="yes"/>
      <point x="170" y="1278"/>
      <point x="259" y="1367" type="qcurve"/>
      <point x="341" y="1446"/>
      <point x="475" y="1453" type="qcurve"/>
      <point x="483" y="1454"/>
      <point x="492" y="1454" type="qcurve" smooth="yes"/>
      <point x="495" y="1454" type="line" smooth="yes"/>
      <point x="561" y="1454"/>
      <point x="755" y="1421"/>
      <point x="755" y="1396" type="qcurve" smooth="yes"/>
      <point x="755" y="1202" type="line"/>
      <point x="704" y="1202" type="line"/>
      <point x="699" y="1283"/>
      <point x="624" y="1334" type="qcurve" smooth="yes"/>
      <point x="554" y="1381"/>
      <point x="475" y="1385" type="qcurve"/>
      <point x="460" y="1385" type="line" smooth="yes"/>
      <point x="382" y="1385"/>
      <point x="288" y="1296"/>
      <point x="288" y="1223" type="qcurve" smooth="yes"/>
      <point x="288" y="1091"/>
      <point x="575" y="954" type="qcurve"/>
      <point x="724" y="887"/>
      <point x="835" y="734"/>
      <point x="835" y="623" type="qcurve" smooth="yes"/>
      <point x="835" y="452"/>
      <point x="734" y="341" type="qcurve"/>
      <point x="687" y="302"/>
      <point x="635" y="277" type="qcurve"/>
      <point x="743" y="221"/>
      <point x="789" y="159" type="qcurve"/>
      <point x="844" y="82"/>
      <point x="844" y="-28" type="qcurve" smooth="yes"/>
      <point x="844" y="-199"/>
      <point x="743" y="-311" type="qcurve"/>
      <point x="619" y="-413"/>
      <point x="466" y="-416" type="qcurve"/>
      <point x="466" y="-415" type="line"/>
      <point x="460" y="-416"/>
      <point x="453" y="-416" type="qcurve" smooth="yes"/>
      <point x="450" y="-416" type="line" smooth="yes"/>
      <point x="384" y="-416"/>
      <point x="190" y="-383"/>
      <point x="190" y="-358" type="qcurve" smooth="yes"/>
      <point x="190" y="-164" type="line"/>
      <point x="241" y="-164" type="line"/>
      <point x="246" y="-245"/>
      <point x="321" y="-296" type="qcurve" smooth="yes"/>
      <point x="389" y="-341"/>
    </contour>
  </outline>
</glyph>
<glyph name="dieresis" format="1">
  <advance width="1182"/>
  <unicode hex="00A8"/>
  <outline>
    <contour>
      <point x="342" y="1323" type="qcurve" smooth="yes"/>
      <point x="452" y="1323"/>
      <point x="452" y="1450" type="qcurve" smooth="yes"/>
      <point x="452" y="1573"/>
      <point x="349" y="1573" type="qcurve" smooth="yes"/>
      <point x="342" y="1573" type="line" smooth="yes"/>
      <point x="230" y="1573"/>
      <point x="230" y="1452" type="qcurve" smooth="yes"/>
      <point x="230" y="1387"/>
      <point x="288" y="1323"/>
    </contour>
    <contour>
      <point x="778" y="1323" type="line"/>
      <point x="832" y="1323"/>
      <point x="890" y="1387"/>
      <point x="890" y="1452" type="qcurve" smooth="yes"/>
      <point x="890" y="1573"/>
      <point x="778" y="1573" type="qcurve" smooth="yes"/>
      <point x="668" y="1573"/>
      <point x="668" y="1454" type="qcurve" smooth="yes"/>
      <point x="668" y="1323"/>
      <point x="776" y="1323" type="qcurve"/>
    </contour>
  </outline>
</glyph>
<glyph name="copyright" format="1">
  <advance width="1674"/>
  <unicode hex="00A9"/>
  <outline>
    <contour>
      <point x="837" y="42" type="qcurve" smooth="yes"/>
      <point x="1117" y="42"/>
      <point x="1514" y="439"/>
      <point x="1514" y="719" type="qcurve" smooth="yes"/>
      <point x="1514" y="999"/>
      <point x="1117" y="1396"/>
      <point x="837" y="1396" type="qcurve" smooth="yes"/>
      <point x="557" y="1396"/>
      <point x="160" y="999"/>
      <point x="160" y="719" type="qcurve" smooth="yes"/>
      <point x="160" y="439"/>
      <point x="557" y="42"/>
    </contour>
    <contour>
      <point x="837" y="-18" type="qcurve" smooth="yes"/>
      <point x="532" y="-18"/>
      <point x="100" y="414"/>
      <point x="100" y="719" type="qcurve" smooth="yes"/>
      <point x="100" y="1024"/>
      <point x="532" y="1456"/>
      <point x="837" y="1456" type="qcurve" smooth="yes"/>
      <point x="1142" y="1456"/>
      <point x="1574" y="1024"/>
      <point x="1574" y="719" type="qcurve" smooth="yes"/>
      <point x="1574" y="414"/>
      <point x="1142" y="-18"/>
    </contour>
    <contour>
      <point x="864" y="258" type="qcurve" smooth="yes"/>
      <point x="681" y="258"/>
      <point x="477" y="484"/>
      <point x="477" y="726" type="qcurve" smooth="yes"/>
      <point x="477" y="1188"/>
      <point x="854" y="1188" type="qcurve" smooth="yes"/>
      <point x="1043" y="1188"/>
      <point x="1139" y="1101" type="qcurve"/>
      <point x="1139" y="884" type="line"/>
      <point x="1071" y="892" type="line" smooth="yes"/>
      <point x="1063" y="893"/>
      <point x="1061" y="901" type="qcurve" smooth="yes"/>
      <point x="1040" y="983" type="line"/>
      <point x="1028" y="1024"/>
      <point x="1014" y="1046" type="qcurve" smooth="yes"/>
      <point x="1004" y="1060"/>
      <point x="985" y="1070" type="qcurve"/>
      <point x="922" y="1099"/>
      <point x="854" y="1099" type="qcurve" smooth="yes"/>
      <point x="734" y="1099"/>
      <point x="605" y="912"/>
      <point x="605" y="726" type="qcurve" smooth="yes"/>
      <point x="605" y="540"/>
      <point x="739" y="346"/>
      <point x="864" y="346" type="qcurve" smooth="yes"/>
      <point x="904" y="346"/>
      <point x="985" y="356"/>
      <point x="1020" y="379" type="qcurve"/>
      <point x="1034" y="390" type="line"/>
      <point x="1044" y="401"/>
      <point x="1058" y="458" type="qcurve"/>
      <point x="1066" y="495" type="line" smooth="yes"/>
      <point x="1068" y="503"/>
      <point x="1078" y="504" type="qcurve" smooth="yes"/>
      <point x="1146" y="512" type="line"/>
      <point x="1146" y="351" type="line"/>
      <point x="1098" y="299"/>
      <point x="942" y="258"/>
    </contour>
  </outline>
</glyph>
<glyph name="guillemotleft" format="1">
  <advance width="944"/>
  <unicode hex="00AB"/>
  <outline>
    <contour>
      <point x="507" y="206" type="line"/>
      <point x="380" y="206" type="line"/>
      <point x="124" y="488" type="line" smooth="yes"/>
      <point x="101" y="513"/>
      <point x="101" y="539" type="qcurve" smooth="yes"/>
      <point x="101" y="566"/>
      <point x="125" y="593" type="qcurve" smooth="yes"/>
      <point x="383" y="879" type="line"/>
      <point x="503" y="879" type="line"/>
      <point x="270" y="545" type="line"/>
    </contour>
    <contour>
      <point x="819" y="206" type="line"/>
      <point x="692" y="206" type="line"/>
      <point x="435" y="488" type="line" smooth="yes"/>
      <point x="413" y="513"/>
      <point x="413" y="539" type="qcurve" smooth="yes"/>
      <point x="413" y="566"/>
      <point x="436" y="593" type="qcurve"/>
      <point x="694" y="879" type="line"/>
      <point x="814" y="879" type="line"/>
      <point x="581" y="545" type="line"/>
    </contour>
  </outline>
</glyph>
<glyph name="logicalnot" format="1">
  <advance width="1017"/>
  <unicode hex="00AC"/>
  <outline>
    <contour>
      <point x="90" y="767" type="line"/>
      <point x="930" y="767" type="line"/>
      <point x="930" y="276" type="line"/>
      <point x="929" y="275" type="line"/>
      <point x="781" y="275" type="line"/>
      <point x="781" y="617" type="line"/>
      <point x="90" y="617" type="line"/>
    </contour>
  </outline>
</glyph>
<glyph name="registered" format="1">
  <advance width="1674"/>
  <unicode hex="00AE"/>
  <outline>
    <contour>
      <point x="837" y="42" type="qcurve" smooth="yes"/>
      <point x="1117" y="42"/>
      <point x="1514" y="439"/>
      <point x="1514" y="719" type="qcurve" smooth="yes"/>
      <point x="1514" y="999"/>
      <point x="1117" y="1396"/>
      <point x="837" y="1396" type="qcurve" smooth="yes"/>
      <point x="557" y="1396"/>
      <point x="160" y="999"/>
      <point x="160" y="719" type="qcurve" smooth="yes"/>
      <point x="160" y="439"/>
      <point x="557" y="42"/>
    </contour>
    <contour>
      <point x="837" y="-18" type="qcurve" smooth="yes"/>
      <point x="532" y="-18"/>
      <point x="100" y="414"/>
      <point x="100" y="719" type="qcurve" smooth="yes"/>
      <point x="100" y="1024"/>
      <point x="532" y="1456"/>
      <point x="837" y="1456" type="qcurve" smooth="yes"/>
      <point x="1142" y="1456"/>
      <point x="1574" y="1024"/>
      <point x="1574" y="719" type="qcurve" smooth="yes"/>
      <point x="1574" y="414"/>
      <point x="1142" y="-18"/>
    </contour>
    <contour>
      <point x="1252" y="278" type="line"/>
      <point x="1186" y="282"/>
      <point x="1115" y="285"/>
      <point x="1054" y="285" type="qcurve"/>
      <point x="856" y="649" type="line"/>
      <point x="833" y="648"/>
      <point x="715" y="648" type="qcurve"/>
      <point x="715" y="380" type="line" smooth="yes"/>
      <point x="715" y="371"/>
      <point x="723" y="370" type="qcurve" smooth="yes"/>
      <point x="800" y="361" type="line"/>
      <point x="807" y="361"/>
      <point x="809" y="353" type="qcurve"/>
      <point x="816" y="278" type="line"/>
      <point x="731" y="284"/>
      <point x="657" y="285" type="qcurve"/>
      <point x="584" y="284"/>
      <point x="499" y="278" type="qcurve"/>
      <point x="506" y="357"/>
      <point x="509" y="360"/>
      <point x="592" y="370" type="qcurve" smooth="yes"/>
      <point x="600" y="371"/>
      <point x="600" y="380" type="qcurve" smooth="yes"/>
      <point x="600" y="1080" type="line" smooth="yes"/>
      <point x="600" y="1089"/>
      <point x="593" y="1089" type="qcurve"/>
      <point x="554" y="1096" type="line"/>
      <point x="510" y="1102"/>
      <point x="506" y="1106"/>
      <point x="499" y="1178" type="qcurve"/>
      <point x="833" y="1178" type="line" smooth="yes"/>
      <point x="998" y="1178"/>
      <point x="1165" y="1060"/>
      <point x="1165" y="913" type="qcurve" smooth="yes"/>
      <point x="1165" y="713"/>
      <point x="971" y="664" type="qcurve"/>
      <point x="1139" y="382" type="line"/>
      <point x="1140" y="382" type="line"/>
      <point x="1150" y="364"/>
      <point x="1165" y="361" type="qcurve"/>
      <point x="1236" y="352" type="line"/>
      <point x="1245" y="352"/>
      <point x="1245" y="344" type="qcurve"/>
    </contour>
    <contour>
      <point x="856" y="722" type="line" smooth="yes"/>
      <point x="952" y="722"/>
      <point x="1045" y="828"/>
      <point x="1045" y="911" type="qcurve" smooth="yes"/>
      <point x="1045" y="1002"/>
      <point x="956" y="1097"/>
      <point x="847" y="1097" type="qcurve" smooth="yes"/>
      <point x="715" y="1097" type="line"/>
      <point x="715" y="722" type="line"/>
    </contour>
  </outline>
</glyph>
<glyph name="macron" format="1">
  <advance width="1024"/>
  <unicode hex="00AF"/>
  <outline>
    <contour>
      <point x="254" y="1441" type="line"/>
      <point x="254" y="1576" type="line"/>
      <point x="770" y="1576" type="line"/>
      <point x="770" y="1441" type="line"/>
    </contour>
  </outline>
</glyph>
<glyph name="degree" format="1">
  <advance width="674"/>
  <unicode hex="00B0"/>
  <outline>
    <contour>
      <point x="339" y="1315" type="qcurve" smooth="yes"/>
      <point x="276" y="1315"/>
      <point x="188" y="1226"/>
      <point x="188" y="1163" type="qcurve" smooth="yes"/>
      <point x="188" y="1100"/>
      <point x="276" y="1014"/>
      <point x="339" y="1014" type="qcurve" smooth="yes"/>
      <point x="402" y="1014"/>
      <point x="489" y="1100"/>
      <point x="489" y="1163" type="qcurve" smooth="yes"/>
      <point x="489" y="1226"/>
      <point x="401" y="1315"/>
    </contour>
    <contour>
      <point x="339" y="1442" type="qcurve" smooth="yes"/>
      <point x="454" y="1442"/>
      <point x="616" y="1279"/>
      <point x="616" y="1164" type="qcurve" smooth="yes"/>
      <point x="616" y="1050"/>
      <point x="452" y="886"/>
      <point x="337" y="886" type="qcurve" smooth="yes"/>
      <point x="220" y="886"/>
      <point x="60" y="1048"/>
      <point x="60" y="1164" type="qcurve" smooth="yes"/>
      <point x="60" y="1280"/>
      <point x="223" y="1442"/>
    </contour>
  </outline>
</glyph>
<glyph name="acute" format="1">
  <advance width="1024"/>
  <unicode hex="00B4"/>
  <outline>
    <contour>
      <point x="420" y="1245" type="qcurve" smooth="yes"/>
      <point x="413" y="1245"/>
      <point x="403" y="1249" type="qcurve" smooth="yes"/>
      <point x="313" y="1284" type="line"/>
      <point x="498" y="1558" type="line" smooth="yes"/>
      <point x="506" y="1571"/>
      <point x="517" y="1571" type="qcurve" smooth="yes"/>
      <point x="521" y="1571"/>
      <point x="726" y="1493" type="qcurve"/>
      <point x="444" y="1256" type="line"/>
      <point x="433" y="1245"/>
    </contour>
  </outline>
</glyph>
<glyph name="paragraph" format="1">
  <advance width="1024"/>
  <unicode hex="00B6"/>
  <outline>
    <contour>
      <point x="929" y="1435" type="line"/>
      <point x="929" y="1365" type="line"/>
      <point x="802" y="1365" type="line"/>
      <point x="802" y="0" type="line"/>
      <point x="720" y="0" type="line"/>
      <point x="720" y="1365" type="line"/>
      <point x="554" y="1365" type="line"/>
      <point x="554" y="0" type="line"/>
      <point x="470" y="0" type="line"/>
      <point x="470" y="738" type="line"/>
      <point x="296" y="746"/>
      <point x="93" y="935"/>
      <point x="93" y="1086" type="qcurve" smooth="yes"/>
      <point x="93" y="1243"/>
      <point x="308" y="1435"/>
      <point x="486" y="1435" type="qcurve" smooth="yes"/>
    </contour>
  </outline>
</glyph>
<glyph name="periodcentered" format="1">
  <advance width="508"/>
  <unicode hex="00B7"/>
  <unicode hex="2219"/>
  <outline>
    <contour>
      <point x="254" y="637" type="qcurve" smooth="yes"/>
      <point x="208" y="637"/>
      <point x="144" y="701"/>
      <point x="144" y="747" type="qcurve" smooth="yes"/>
      <point x="144" y="792"/>
      <point x="208" y="857"/>
      <point x="254" y="857" type="qcurve" smooth="yes"/>
      <point x="299" y="857"/>
      <point x="364" y="792"/>
      <point x="364" y="747" type="qcurve" smooth="yes"/>
      <point x="364" y="701"/>
      <point x="299" y="637"/>
    </contour>
  </outline>
</glyph>
<glyph name="cedilla" format="1">
  <advance width="1024"/>
  <unicode hex="00B8"/>
  <outline>
    <contour>
      <point x="360" y="-290" type="line"/>
      <point x="445" y="-342"/>
      <point x="512" y="-342" type="qcurve" smooth="yes"/>
      <point x="578" y="-342"/>
      <point x="635" y="-299"/>
      <point x="635" y="-254" type="qcurve" smooth="yes"/>
      <point x="635" y="-209"/>
      <point x="586" y="-190" type="qcurve" smooth="yes"/>
      <point x="546" y="-174"/>
      <point x="484" y="-174" type="qcurve" smooth="yes"/>
      <point x="468" y="-174"/>
      <point x="450" y="-176" type="qcurve"/>
      <point x="498" y="0" type="line"/>
      <point x="561" y="0" type="line"/>
      <point x="524" y="-104" type="line"/>
      <point x="556" y="-100"/>
      <point x="586" y="-99" type="qcurve"/>
      <point x="672" y="-99"/>
      <point x="768" y="-180"/>
      <point x="768" y="-253" type="qcurve" smooth="yes"/>
      <point x="768" y="-329"/>
      <point x="651" y="-418"/>
      <point x="549" y="-418" type="qcurve" smooth="yes"/>
      <point x="440" y="-418"/>
      <point x="360" y="-386" type="qcurve"/>
    </contour>
  </outline>
</glyph>
<glyph name="guillemotright" format="1">
  <advance width="944"/>
  <unicode hex="00BB"/>
  <outline>
    <contour>
      <point x="208" y="206" type="line"/>
      <point x="81" y="206" type="line"/>
      <point x="319" y="545" type="line"/>
      <point x="86" y="879" type="line"/>
      <point x="206" y="879" type="line"/>
      <point x="464" y="593" type="line"/>
      <point x="487" y="566"/>
      <point x="487" y="539" type="qcurve" smooth="yes"/>
      <point x="487" y="513"/>
      <point x="465" y="488" type="qcurve" smooth="yes"/>
    </contour>
    <contour>
      <point x="520" y="206" type="line"/>
      <point x="393" y="206" type="line"/>
      <point x="631" y="545" type="line"/>
      <point x="397" y="879" type="line"/>
      <point x="517" y="879" type="line"/>
      <point x="775" y="593" type="line"/>
      <point x="799" y="565"/>
      <point x="799" y="539" type="qcurve" smooth="yes"/>
      <point x="799" y="513"/>
      <point x="777" y="488" type="qcurve" smooth="yes"/>
    </contour>
  </outline>
</glyph>
<glyph name="questiondown" format="1">
  <advance width="768"/>
  <unicode hex="00BF"/>
  <outline>
    <contour>
      <point x="553" y="968" type="qcurve" smooth="yes"/>
      <point x="427" y="968"/>
      <point x="427" y="1099" type="qcurve" smooth="yes"/>
      <point x="427" y="1243"/>
      <point x="550" y="1243" type="qcurve" smooth="yes"/>
      <point x="553" y="1243" type="line" smooth="yes"/>
      <point x="679" y="1243"/>
      <point x="679" y="1101" type="qcurve" smooth="yes"/>
      <point x="679" y="968"/>
    </contour>
    <contour>
      <point x="545" y="-420" type="qcurve"/>
      <point x="316" y="-420"/>
      <point x="69" y="-184"/>
      <point x="69" y="29" type="qcurve"/>
      <point x="71" y="232"/>
      <point x="273" y="491"/>
      <point x="482" y="517" type="qcurve"/>
      <point x="479" y="643"/>
      <point x="468" y="749" type="qcurve"/>
      <point x="637" y="749" type="line"/>
      <point x="629" y="641"/>
      <point x="628" y="514" type="qcurve"/>
      <point x="628" y="377" type="line"/>
      <point x="602" y="382"/>
      <point x="556" y="384" type="qcurve"/>
      <point x="456" y="384"/>
      <point x="326" y="290"/>
      <point x="262" y="142"/>
      <point x="262" y="55" type="qcurve" smooth="yes"/>
      <point x="262" y="-86"/>
      <point x="323" y="-181" type="qcurve" smooth="yes"/>
      <point x="394" y="-292"/>
      <point x="539" y="-292" type="qcurve"/>
      <point x="656" y="-289"/>
      <point x="715" y="-224" type="qcurve" smooth="yes"/>
      <point x="758" y="-175"/>
      <point x="768" y="-120" type="qcurve" smooth="yes"/>
      <point x="771" y="-101" type="line"/>
      <point x="774" y="-89"/>
      <point x="788" y="-87" type="qcurve" smooth="yes"/>
      <point x="900" y="-74" type="line"/>
      <point x="894" y="-315" type="line"/>
      <point x="850" y="-358"/>
      <point x="662" y="-417"/>
    </contour>
  </outline>
</glyph>
<glyph name="Atilde" format="1">
  <advance width="1402"/>
  <unicode hex="00C3"/>
  <outline>
    <contour>
      <point x="1382" y="-17" type="line"/>
      <point x="1240" y="-6"/>
      <point x="1112" y="-6" type="qcurve" smooth="yes"/>
      <point x="986" y="-6"/>
      <point x="843" y="-17" type="qcurve"/>
      <point x="854" y="104" type="line" smooth="yes"/>
      <point x="855" y="117"/>
      <point x="869" y="118" type="qcurve" smooth="yes"/>
      <point x="993" y="132" type="line"/>
      <point x="1007" y="136"/>
      <point x="1007" y="147" type="qcurve"/>
      <point x="1006" y="153"/>
      <point x="908" y="429" type="qcurve"/>
      <point x="406" y="429" type="line"/>
      <point x="311" y="146" type="line"/>
      <point x="313" y="135"/>
      <point x="325" y="132" type="qcurve"/>
      <point x="449" y="118" type="line" smooth="yes"/>
      <point x="463" y="117"/>
      <point x="464" y="104" type="qcurve" smooth="yes"/>
      <point x="475" y="-17" type="line"/>
      <point x="321" y="-8"/>
      <point x="233" y="-6" type="qcurve"/>
      <point x="147" y="-8"/>
      <point x="-10" y="-17" type="qcurve"/>
      <point x="2" y="104" type="line" smooth="yes"/>
      <point x="3" y="117"/>
      <point x="16" y="118" type="qcurve" smooth="yes"/>
      <point x="138" y="132" type="line" smooth="yes"/>
      <point x="146" y="133"/>
      <point x="153" y="140"/>
      <point x="272" y="457" type="qcurve"/>
      <point x="535" y="1239" type="line"/>
      <point x="550" y="1289"/>
      <point x="551" y="1295" type="qcurve"/>
      <point x="551" y="1307"/>
      <point x="537" y="1309" type="qcurve" smooth="yes"/>
      <point x="408" y="1325" type="line"/>
      <point x="394" y="1326"/>
      <point x="393" y="1338" type="qcurve" smooth="yes"/>
      <point x="382" y="1450" type="line"/>
      <point x="736" y="1450" type="line"/>
      <point x="1216" y="148" type="line"/>
      <point x="1220" y="133"/>
      <point x="1234" y="132" type="qcurve" smooth="yes"/>
      <point x="1356" y="118" type="line" smooth="yes"/>
      <point x="1369" y="117"/>
      <point x="1370" y="104" type="qcurve" smooth="yes"/>
    </contour>
    <contour>
      <point x="862" y="557" type="line"/>
      <point x="650" y="1152" type="line"/>
      <point x="449" y="557" type="line"/>
    </contour>
    <contour>
      <point x="827" y="1636" type="qcurve" smooth="yes"/>
      <point x="792" y="1636"/>
      <point x="704" y="1669"/>
      <point x="610" y="1712"/>
      <point x="520" y="1747"/>
      <point x="483" y="1747" type="qcurve" smooth="yes"/>
      <point x="423" y="1747"/>
      <point x="354" y="1649" type="qcurve"/>
      <point x="266" y="1694" type="line"/>
      <point x="322" y="1806"/>
      <point x="409" y="1913"/>
      <point x="485" y="1913" type="qcurve" smooth="yes"/>
      <point x="520" y="1913"/>
      <point x="612" y="1877"/>
      <point x="707" y="1833"/>
      <point x="794" y="1799"/>
      <point x="827" y="1799" type="qcurve" smooth="yes"/>
      <point x="853" y="1799"/>
      <point x="906" y="1837"/>
      <point x="941" y="1888" type="qcurve"/>
      <point x="1031" y="1834" type="line"/>
      <point x="1017" y="1811" type="line" smooth="yes"/>
      <point x="961" y="1717"/>
      <point x="887" y="1636"/>
    </contour>
  </outline>
</glyph>
<glyph name="Adieresis" format="1">
  <advance width="1402"/>
  <unicode hex="00C4"/>
  <outline>
    <contour>
      <point x="1382" y="-17" type="line"/>
      <point x="1240" y="-6"/>
      <point x="1112" y="-6" type="qcurve" smooth="yes"/>
      <point x="986" y="-6"/>
      <point x="843" y="-17" type="qcurve"/>
      <point x="854" y="104" type="line" smooth="yes"/>
      <point x="855" y="117"/>
      <point x="869" y="118" type="qcurve" smooth="yes"/>
      <point x="993" y="132" type="line"/>
      <point x="1007" y="136"/>
      <point x="1007" y="147" type="qcurve"/>
      <point x="1006" y="153"/>
      <point x="908" y="429" type="qcurve"/>
      <point x="406" y="429" type="line"/>
      <point x="311" y="146" type="line"/>
      <point x="313" y="135"/>
      <point x="325" y="132" type="qcurve"/>
      <point x="449" y="118" type="line" smooth="yes"/>
      <point x="463" y="117"/>
      <point x="464" y="104" type="qcurve" smooth="yes"/>
      <point x="475" y="-17" type="line"/>
      <point x="321" y="-8"/>
      <point x="233" y="-6" type="qcurve"/>
      <point x="147" y="-8"/>
      <point x="-10" y="-17" type="qcurve"/>
      <point x="2" y="104" type="line" smooth="yes"/>
      <point x="3" y="117"/>
      <point x="16" y="118" type="qcurve" smooth="yes"/>
      <point x="138" y="132" type="line" smooth="yes"/>
      <point x="146" y="133"/>
      <point x="153" y="140"/>
      <point x="272" y="457" type="qcurve"/>
      <point x="535" y="1239" type="line"/>
      <point x="550" y="1289"/>
      <point x="551" y="1295" type="qcurve"/>
      <point x="551" y="1307"/>
      <point x="537" y="1309" type="qcurve" smooth="yes"/>
      <point x="408" y="1325" type="line"/>
      <point x="394" y="1326"/>
      <point x="393" y="1338" type="qcurve" smooth="yes"/>
      <point x="382" y="1450" type="line"/>
      <point x="736" y="1450" type="line"/>
      <point x="1216" y="148" type="line"/>
      <point x="1220" y="133"/>
      <point x="1234" y="132" type="qcurve" smooth="yes"/>
      <point x="1356" y="118" type="line" smooth="yes"/>
      <point x="1369" y="117"/>
      <point x="1370" y="104" type="qcurve" smooth="yes"/>
    </contour>
    <contour>
      <point x="862" y="557" type="line"/>
      <point x="650" y="1152" type="line"/>
      <point x="449" y="557" type="line"/>
    </contour>
    <contour>
      <point x="414" y="1618" type="qcurve" smooth="yes"/>
      <point x="524" y="1618"/>
      <point x="524" y="1745" type="qcurve" smooth="yes"/>
      <point x="524" y="1868"/>
      <point x="421" y="1868" type="qcurve" smooth="yes"/>
      <point x="414" y="1868" type="line" smooth="yes"/>
      <point x="302" y="1868"/>
      <point x="302" y="1747" type="qcurve" smooth="yes"/>
      <point x="302" y="1682"/>
      <point x="360" y="1618"/>
    </contour>
    <contour>
      <point x="850" y="1618" type="line"/>
      <point x="904" y="1618"/>
      <point x="962" y="1682"/>
      <point x="962" y="1747" type="qcurve" smooth="yes"/>
      <point x="962" y="1868"/>
      <point x="850" y="1868" type="qcurve" smooth="yes"/>
      <point x="740" y="1868"/>
      <point x="740" y="1749" type="qcurve" smooth="yes"/>
      <point x="740" y="1618"/>
      <point x="848" y="1618" type="qcurve"/>
    </contour>
  </outline>
</glyph>
<glyph name="AE" format="1">
  <advance width="2140"/>
  <unicode hex="00C6"/>
  <outline>
    <contour>
      <point x="598" y="-17" type="line"/>
      <point x="457" y="-7"/>
      <point x="330" y="-5" type="qcurve"/>
      <point x="202" y="-7"/>
      <point x="59" y="-17" type="qcurve"/>
      <point x="84" y="105" type="line" smooth="yes"/>
      <point x="87" y="117"/>
      <point x="100" y="118" type="qcurve" smooth="yes"/>
      <point x="224" y="132" type="line"/>
      <point x="239" y="136"/>
      <point x="244" y="148" type="qcurve"/>
      <point x="798" y="1299" type="line"/>
      <point x="797" y="1308"/>
      <point x="786" y="1308" type="qcurve"/>
      <point x="658" y="1324" type="line"/>
      <point x="645" y="1325"/>
      <point x="645" y="1337" type="qcurve"/>
      <point x="647" y="1450" type="line"/>
      <point x="895" y="1450" type="line"/>
      <point x="895" y="1449" type="line"/>
      <point x="1935" y="1449" type="line"/>
      <point x="1935" y="1102" type="line"/>
      <point x="1827" y="1114" type="line" smooth="yes"/>
      <point x="1818" y="1115"/>
      <point x="1811" y="1121"/>
      <point x="1762" y="1281" type="qcurve"/>
      <point x="1760" y="1295"/>
      <point x="1741" y="1296" type="qcurve" smooth="yes"/>
      <point x="1601" y="1304"/>
      <point x="1428" y="1310"/>
      <point x="1292" y="1310" type="qcurve"/>
      <point x="1292" y="818" type="line"/>
      <point x="1812" y="818" type="line"/>
      <point x="1812" y="674" type="line"/>
      <point x="1292" y="674" type="line"/>
      <point x="1292" y="135" type="line"/>
      <point x="1401" y="135"/>
      <point x="1465" y="136" type="qcurve" smooth="yes"/>
      <point x="1567" y="137"/>
      <point x="1788" y="149" type="qcurve"/>
      <point x="1809" y="149"/>
      <point x="1814" y="164" type="qcurve"/>
      <point x="1888" y="293" type="line"/>
      <point x="1895" y="307"/>
      <point x="1910" y="308" type="qcurve" smooth="yes"/>
      <point x="2046" y="322" type="line"/>
      <point x="1966" y="-4" type="line"/>
      <point x="1172" y="-4" type="line"/>
      <point x="1122" y="-5"/>
      <point x="1047" y="-10" type="qcurve" smooth="yes"/>
      <point x="939" y="-16" type="line"/>
      <point x="950" y="106" type="line" smooth="yes"/>
      <point x="951" y="119"/>
      <point x="965" y="120" type="qcurve" smooth="yes"/>
      <point x="1089" y="134" type="line" smooth="yes"/>
      <point x="1103" y="135"/>
      <point x="1103" y="150" type="qcurve" smooth="yes"/>
      <point x="1103" y="429" type="line"/>
      <point x="583" y="429" type="line"/>
      <point x="454" y="154"/>
      <point x="452" y="146" type="qcurve"/>
      <point x="452" y="136"/>
      <point x="464" y="133" type="qcurve"/>
      <point x="587" y="118" type="line" smooth="yes"/>
      <point x="600" y="117"/>
      <point x="600" y="105" type="qcurve"/>
    </contour>
    <contour>
      <point x="1103" y="556" type="line"/>
      <point x="1103" y="1310" type="line"/>
      <point x="997" y="1310" type="line"/>
      <point x="643" y="556" type="line"/>
    </contour>
  </outline>
</glyph>
